<svg id="Layer_2" data-name="Layer 2" xmlns="http://www.w3.org/2000/svg" xmlns:xlink="http://www.w3.org/1999/xlink" viewBox="0 0 230 230"><defs><style>.cls-1{fill:none;}.cls-2{fill:url(#radial-gradient);}.cls-3{fill:url(#linear-gradient);}.cls-4{clip-path:url(#clip-path);}.cls-5{fill:url(#linear-gradient-2);}.cls-6{clip-path:url(#clip-path-2);}.cls-7{fill:url(#linear-gradient-3);}.cls-8{fill:url(#radial-gradient-2);}.cls-9{clip-path:url(#clip-path-3);}.cls-10{fill:url(#radial-gradient-3);}.cls-11{fill:url(#radial-gradient-4);}.cls-12{fill:url(#linear-gradient-4);}.cls-13{clip-path:url(#clip-path-4);}.cls-14{fill:url(#linear-gradient-5);}.cls-15{fill:url(#linear-gradient-6);}</style><radialGradient id="radial-gradient" cx="322.15" cy="318.89" r="118.8" gradientTransform="translate(-277.86 -334.07) scale(1.22 1.41)" gradientUnits="userSpaceOnUse"><stop offset="0" stop-color="#fff"/><stop offset="1" stop-color="#e4ddfe"/></radialGradient><linearGradient id="linear-gradient" x1="90" y1="95.74" x2="140" y2="95.74" gradientUnits="userSpaceOnUse"><stop offset="0" stop-color="#553dde"/><stop offset="0.49" stop-color="#842bde"/><stop offset="1" stop-color="#df6fff"/></linearGradient><clipPath id="clip-path"><path id="_1_mask" data-name="1 mask" class="cls-1" d="M104.55,121.46,100,118.84A20,20,0,0,1,90,101.5V90.08a.22.22,0,0,1,.1-.18l9.9-5.7,0,17.31v11.57A10,10,0,0,0,104.55,121.46Z"/></clipPath><linearGradient id="linear-gradient-2" x1="102.1" y1="121.8" x2="102.1" y2="84.2" gradientUnits="userSpaceOnUse"><stop offset="0" stop-color="#fff" stop-opacity="0"/><stop offset="0.49" stop-color="#fff" stop-opacity="0.5"/><stop offset="1" stop-color="#fff" stop-opacity="0"/></linearGradient><clipPath id="clip-path-2"><path id="_2_mask" data-name="2 mask" class="cls-1" d="M124.64,70A10,10,0,0,0,120,78.4v34.66a10,10,0,0,1-10,10h-.07l-.57,0h-.06l-.46,0-.36-.05a8.1,8.1,0,0,1-1-.2h0l-.63-.19-.62-.23a11.56,11.56,0,0,1-1.22-.61l-.38-.22,0,0a10,10,0,0,1-4.58-8.4V101.51a10,10,0,0,0,5,8.67l2,1.15a2,2,0,0,0,3-1.73V78.77a.6.6,0,0,1,.3-.52Z"/></clipPath><linearGradient id="linear-gradient-3" x1="122.13" y1="113.06" x2="122.13" y2="69.65" xlink:href="#linear-gradient-2"/><radialGradient id="radial-gradient-2" cx="99.7" cy="114.41" r="20.7" gradientUnits="userSpaceOnUse"><stop offset="0" stop-color="#00032d" stop-opacity="0.4"/><stop offset="0.48" stop-color="#00032d" stop-opacity="0.15"/><stop offset="1" stop-color="#00032d" stop-opacity="0"/></radialGradient><clipPath id="clip-path-3"><path id="_3_mask" data-name="3 mask" class="cls-1" d="M140,78.42V84.2a20,20,0,0,1-10,17.31l-10,5.78V95.74l5-2.89a10,10,0,0,0,5-8.66V81.88a2,2,0,0,0-3-1.73l-7,4V78.4A10,10,0,0,1,124.64,70l.36-.21.3-.17.31-.16a8.43,8.43,0,0,1,1.2-.5l0,0,.61-.17h0c.19,0,.38-.1.57-.13s.51-.09.77-.12l.51,0h0l.61,0h0A10,10,0,0,1,140,78.42Z"/></clipPath><radialGradient id="radial-gradient-3" cx="121.62" cy="74.31" r="23.54" xlink:href="#radial-gradient-2"/><radialGradient id="radial-gradient-4" cx="119.4" cy="102.04" r="22.02" xlink:href="#radial-gradient-2"/><linearGradient id="linear-gradient-4" x1="136.33" y1="87.42" x2="127.68" y2="78.71" xlink:href="#radial-gradient-2"/><clipPath id="clip-path-4"><path id="_3.1_mask" data-name="3.1 mask" class="cls-1" d="M140,78.42V84.2a20,20,0,0,1-10,17.31l-10,5.78V95.74l5-2.89.07,0,9.7-5.6.42-.24A10,10,0,0,0,140,78.42Z"/></clipPath><linearGradient id="linear-gradient-5" x1="130" y1="96.07" x2="130" y2="78.41" xlink:href="#linear-gradient-2"/><linearGradient id="linear-gradient-6" x1="75.42" y1="170.9" x2="156.73" y2="123.96" gradientUnits="userSpaceOnUse"><stop offset="0" stop-color="#270645"/><stop offset="1" stop-color="#4c1083"/></linearGradient></defs><title>uptick-app_full-logo_vertical_positive</title><rect class="cls-2" width="230" height="230"/><g id="uptick-app_mark" data-name="uptick-app mark"><path id="Shape" class="cls-3" d="M125,69.76l-14.71,8.49a.61.61,0,0,0-.3.52V109.6a2,2,0,0,1-3,1.73l-2-1.15a10,10,0,0,1-5-8.67v-17a.2.2,0,0,0-.3-.17l-9.4,5.41a.6.6,0,0,0-.3.52v11.2a20,20,0,0,0,10,17.33l5,2.89a10,10,0,0,0,15-8.67v-5.77l10-5.78A20,20,0,0,0,140,84.2V78.42A10,10,0,0,0,125,69.76Zm0,23.1-5,2.88V84.2l7-4a2,2,0,0,1,3,1.74V84.2A10,10,0,0,1,125,92.86Z"/><g id="Effects"><g id="_1" data-name="1"><g class="cls-4"><path class="cls-5" d="M104.57,121.48a9.85,9.85,0,0,1-3.72-3.88,10.78,10.78,0,0,1-1.17-5.31c0-3.6-.08-7.19-.05-10.78v-.36H100l-.36.36c0-2.88,0-5.77.11-8.65s.13-5.77.27-8.66c.13,2.89.21,5.77.26,8.66s0,5.77.08,8.65v.36H100l.36-.36c0,3.59,0,7.18,0,10.78a10.21,10.21,0,0,0,4.27,9.19Z"/></g></g><g id="_2" data-name="2"><g class="cls-6"><g id="border"><path class="cls-7" d="M124.64,70a10.28,10.28,0,0,0-3.51,4.2,10.08,10.08,0,0,0-.76,2.62,14.77,14.77,0,0,0-.09,2.75c.06,3.72,0,7.45.08,11.17l-.08,11.18c-.06,3.73-.13,7.46-.29,11.18-.16-3.72-.23-7.45-.29-11.18l-.08-11.18c0-3.72,0-7.45.08-11.17a16,16,0,0,1,.2-2.83A9.81,9.81,0,0,1,124.64,70Z"/></g><path id="shadow" class="cls-8" d="M124.64,70A10,10,0,0,0,120,78.4v34.66a10,10,0,0,1-10,10h-.07l-.57,0h-.06l-.46,0-.36-.05a8.1,8.1,0,0,1-1-.2h0l-.63-.19-.62-.23a11.56,11.56,0,0,1-1.22-.61l-.38-.22,0,0a10,10,0,0,1-4.58-8.4V101.51a10,10,0,0,0,5,8.67l2,1.15a2,2,0,0,0,3-1.73V78.77a.6.6,0,0,1,.3-.52Z"/></g></g><g id="_3" data-name="3"><g class="cls-9"><g id="shadow_top_bottom" data-name="shadow top&amp;bottom"><path class="cls-10" d="M140,78.42V84.2a20,20,0,0,1-10,17.31l-10,5.78V95.74l5-2.89a10,10,0,0,0,5-8.66V81.88a2,2,0,0,0-3-1.73l-7,4V78.4A10,10,0,0,1,124.64,70l.36-.21.3-.17.31-.16a8.43,8.43,0,0,1,1.2-.5l0,0,.61-.17h0c.19,0,.38-.1.57-.13s.51-.09.77-.12l.51,0h0l.61,0h0A10,10,0,0,1,140,78.42Z"/><path class="cls-11" d="M140,78.42V84.2a20,20,0,0,1-10,17.31l-10,5.78V95.74l5-2.89a10,10,0,0,0,5-8.66V81.88a2,2,0,0,0-3-1.73l-7,4V78.4A10,10,0,0,1,124.64,70l.36-.21.3-.17.31-.16a8.43,8.43,0,0,1,1.2-.5l0,0,.61-.17h0c.19,0,.38-.1.57-.13s.51-.09.77-.12l.51,0h0l.61,0h0A10,10,0,0,1,140,78.42Z"/></g><g id="shadow_right" data-name="shadow right"><path class="cls-12" d="M140,78.41A10,10,0,0,1,135.18,87l-.42.24L125,92.83a10,10,0,0,0,5-8.64V81.88a2,2,0,0,0-3-1.73l-7,4V78.4A10,10,0,0,1,124.64,70l.36-.21.3-.17.31-.16a8.43,8.43,0,0,1,1.2-.5l0,0,.61-.17h0c.19,0,.38-.1.57-.13s.51-.09.77-.12l.51,0h0l.61,0h0a9.58,9.58,0,0,1,1.93.2l.09,0a9.63,9.63,0,0,1,1,.25,4.34,4.34,0,0,1,.47.16,4.22,4.22,0,0,1,.45.18l.44.2.43.22a4.49,4.49,0,0,1,.42.24l.41.26.39.28a10,10,0,0,1,4,6.94s0,0,0,0C140,77.72,140,78.07,140,78.41Z"/></g><g id="_3.1" data-name="3.1"><g class="cls-13"><g id="border-2" data-name="border"><path class="cls-14" d="M140,78.41a9.75,9.75,0,0,1-4.79,8.93l-3,1.77c-2,1.13-4,2.3-6.06,3.4s-4.08,2.21-6.16,3.23c1.93-1.29,3.9-2.51,5.87-3.73s4-2.36,6-3.55l3-1.71a10.74,10.74,0,0,0,2.59-2.12A10.45,10.45,0,0,0,140,78.41Z"/></g></g></g></g></g></g></g><path class="cls-15" d="M78.12,150.31a2.26,2.26,0,0,1-2.25,2.26H71.35a2.27,2.27,0,0,1-2.26-2.26V139H64.58v11.29a6.78,6.78,0,0,0,6.77,6.77h4.52a6.78,6.78,0,0,0,6.77-6.77V139H78.12Z"/><path class="cls-15" d="M128.55,145.79v4.52a6.78,6.78,0,0,0,6.77,6.77h9v-4.51h-9a2.26,2.26,0,0,1-2.26-2.26v-4.52a2.26,2.26,0,0,1,2.26-2.25h9V139h-9A6.78,6.78,0,0,0,128.55,145.79Z"/><path class="cls-15" d="M96.94,139H92.42a6.78,6.78,0,0,0-6.77,6.77V161.6h4.51v-4.52h6.78a6.78,6.78,0,0,0,6.77-6.77v-4.52A6.78,6.78,0,0,0,96.94,139Zm2.26,11.29a2.27,2.27,0,0,1-2.26,2.26H90.16v-6.78a2.26,2.26,0,0,1,2.26-2.25h4.52a2.26,2.26,0,0,1,2.26,2.25Z"/><path class="cls-15" d="M111.24,134.51h-4.52v15.8a6.78,6.78,0,0,0,6.77,6.77H118v-4.51h-4.52a2.26,2.26,0,0,1-2.25-2.26v-6.77H118V139h-6.77Z"/><rect class="cls-15" x="121.02" y="139.02" width="4.52" height="18.06"/><path class="cls-15" d="M165.42,139h-4.51v2.26a2.27,2.27,0,0,1-2.26,2.26h-6.77V139h-4.52v18.06h4.52v-9h6.64a2.39,2.39,0,0,1,2.39,2.38v6.65h4.51v-6.65a6.9,6.9,0,0,0-1.76-4.6,6.76,6.76,0,0,0,1.76-4.55Z"/></svg>