<svg id="Layer_2" data-name="Layer 2" xmlns="http://www.w3.org/2000/svg" xmlns:xlink="http://www.w3.org/1999/xlink" viewBox="0 0 230 100"><defs><style>.cls-1{fill:none;}.cls-2{fill:url(#gradient_logotype_dark_bg);}.cls-3{fill:url(#linear-gradient);}.cls-4{clip-path:url(#clip-path);}.cls-5{fill:url(#linear-gradient-2);}.cls-6{clip-path:url(#clip-path-2);}.cls-7{fill:url(#linear-gradient-3);}.cls-8{fill:url(#radial-gradient);}.cls-9{clip-path:url(#clip-path-3);}.cls-10{fill:url(#radial-gradient-2);}.cls-11{fill:url(#radial-gradient-3);}.cls-12{fill:url(#linear-gradient-4);}.cls-13{clip-path:url(#clip-path-4);}.cls-14{fill:url(#linear-gradient-5);}.cls-15{fill:url(#linear-gradient-6);}</style><linearGradient id="gradient_logotype_dark_bg" x1="428.54" y1="98" x2="214" y2="135.28" gradientTransform="translate(-277.86 -21.35) scale(1.22 0.61)" gradientUnits="userSpaceOnUse"><stop offset="0" stop-color="#fff"/><stop offset="1" stop-color="#e4ddfe"/></linearGradient><linearGradient id="linear-gradient" x1="39.2" y1="50" x2="75.78" y2="50" gradientUnits="userSpaceOnUse"><stop offset="0" stop-color="#553dde"/><stop offset="0.49" stop-color="#842bde"/><stop offset="1" stop-color="#df6fff"/></linearGradient><clipPath id="clip-path"><path id="_1_mask" data-name="1 mask" class="cls-1" d="M49.85,68.81,46.52,66.9A14.64,14.64,0,0,1,39.2,54.21V45.86a.14.14,0,0,1,.08-.13l7.23-4.17V62.68A7.29,7.29,0,0,0,49.85,68.81Z"/></clipPath><linearGradient id="linear-gradient-2" x1="48" y1="69.14" x2="48" y2="41.56" gradientUnits="userSpaceOnUse"><stop offset="0" stop-color="#fff" stop-opacity="0"/><stop offset="0.49" stop-color="#fff" stop-opacity="0.5"/><stop offset="1" stop-color="#fff" stop-opacity="0"/></linearGradient><clipPath id="clip-path-2"><path id="_2_mask" data-name="2 mask" class="cls-1" d="M64.54,31.14a7.3,7.3,0,0,0-3.4,6.18V62.67A7.33,7.33,0,0,1,53.83,70h-.52L53,70l-.27,0a5.57,5.57,0,0,1-.71-.14h0l-.47-.14-.45-.17a9.17,9.17,0,0,1-.89-.44l-.28-.17h0a7.3,7.3,0,0,1-3.35-6.15V54.22a7.32,7.32,0,0,0,3.66,6.34l1.46.84a1.46,1.46,0,0,0,2.2-1.26V37.59a.44.44,0,0,1,.22-.39Z"/></clipPath><linearGradient id="linear-gradient-3" x1="62.65" y1="62.67" x2="62.65" y2="30.82" xlink:href="#linear-gradient-2"/><radialGradient id="radial-gradient" cx="8.8" cy="68.06" r="15.59" gradientTransform="translate(37.75 -2.46) scale(0.97 0.97)" gradientUnits="userSpaceOnUse"><stop offset="0" stop-color="#00032d" stop-opacity="0.4"/><stop offset="0.48" stop-color="#00032d" stop-opacity="0.15"/><stop offset="1" stop-color="#00032d" stop-opacity="0"/></radialGradient><clipPath id="clip-path-3"><path id="_3_mask" data-name="3 mask" class="cls-1" d="M75.78,37.33v4.23a14.63,14.63,0,0,1-7.31,12.66l-7.32,4.23V50l3.66-2.11a7.33,7.33,0,0,0,3.66-6.34V39.86a1.46,1.46,0,0,0-2.2-1.26l-5.12,2.95V37.32a7.3,7.3,0,0,1,3.4-6.18l.27-.15.22-.13.22-.11a5.65,5.65,0,0,1,.88-.37h0l.44-.13h0l.41-.09a5.62,5.62,0,0,1,.57-.09L68,30h.48A7.34,7.34,0,0,1,75.78,37.33Z"/></clipPath><radialGradient id="radial-gradient-2" cx="25.31" cy="37.86" r="17.73" xlink:href="#radial-gradient"/><radialGradient id="radial-gradient-3" cx="23.64" cy="58.74" r="16.58" xlink:href="#radial-gradient"/><linearGradient id="linear-gradient-4" x1="73.09" y1="43.91" x2="66.77" y2="37.54" gradientTransform="matrix(1, 0, 0, 1, 0, 0)" xlink:href="#radial-gradient"/><clipPath id="clip-path-4"><path id="_3.1_mask" data-name="3.1 mask" class="cls-1" d="M75.78,37.33v4.23a14.63,14.63,0,0,1-7.31,12.66l-7.32,4.23V50l3.66-2.11,0,0,7.1-4.1.3-.17A7.31,7.31,0,0,0,75.78,37.33Z"/></clipPath><linearGradient id="linear-gradient-5" x1="68.47" y1="50.33" x2="68.47" y2="37.32" xlink:href="#linear-gradient-2"/><linearGradient id="linear-gradient-6" x1="100.8" y1="72.85" x2="182.1" y2="25.91" gradientUnits="userSpaceOnUse"><stop offset="0" stop-color="#270645"/><stop offset="1" stop-color="#4c1083"/></linearGradient></defs><title>uptick-app_full-logo_horizontal_positive</title><rect class="cls-2" y="0.03" width="230" height="99.94"/><g id="uptick-app_mark" data-name="uptick-app mark"><path id="Shape" class="cls-3" d="M64.81,31,54.05,37.2a.44.44,0,0,0-.22.38V60.14a1.46,1.46,0,0,1-2.2,1.26l-1.46-.84a7.33,7.33,0,0,1-3.66-6.34V41.81a.14.14,0,0,0-.22-.12l-6.87,4a.42.42,0,0,0-.22.38v8.19A14.65,14.65,0,0,0,46.52,66.9L50.17,69a7.32,7.32,0,0,0,11-6.34V58.45l7.32-4.23a14.64,14.64,0,0,0,7.32-12.66V37.33A7.32,7.32,0,0,0,64.81,31Zm0,16.9L61.14,50V41.55l5.12-2.95a1.46,1.46,0,0,1,2.2,1.26v1.69A7.33,7.33,0,0,1,64.8,47.89Z"/><g id="Effects"><g id="_1" data-name="1"><g class="cls-4"><path class="cls-5" d="M49.86,68.83A7.22,7.22,0,0,1,47.09,66a8,8,0,0,1-.89-3.91c0-2.63-.08-5.25-.05-7.88v-.36h.36l-.36.36c0-2.11,0-4.22.1-6.33s.14-4.22.27-6.33c.14,2.11.21,4.22.26,6.33s.06,4.22.09,6.33v.36h-.37l.36-.36c0,2.63,0,5.25,0,7.88a7.46,7.46,0,0,0,.62,3.74A7.7,7.7,0,0,0,49.86,68.83Z"/></g></g><g id="_2" data-name="2"><g class="cls-6"><g id="border"><path class="cls-7" d="M64.54,31.14A7.63,7.63,0,0,0,62,34.23a7.44,7.44,0,0,0-.54,1.91,11.05,11.05,0,0,0,0,2c.06,2.72,0,5.45.09,8.17s0,5.46-.09,8.18-.13,5.45-.29,8.18c-.15-2.73-.23-5.45-.29-8.18s-.05-5.45-.08-8.18,0-5.45.08-8.17a8.43,8.43,0,0,1,.84-4.06A7.34,7.34,0,0,1,64.54,31.14Z"/></g><path id="shadow" class="cls-8" d="M64.54,31.14a7.3,7.3,0,0,0-3.4,6.18V62.67A7.33,7.33,0,0,1,53.83,70h-.52L53,70l-.27,0a5.57,5.57,0,0,1-.71-.14h0l-.47-.14-.45-.17a9.17,9.17,0,0,1-.89-.44l-.28-.17h0a7.3,7.3,0,0,1-3.35-6.15V54.22a7.32,7.32,0,0,0,3.66,6.34l1.46.84a1.46,1.46,0,0,0,2.2-1.26V37.59a.44.44,0,0,1,.22-.39Z"/></g></g><g id="_3" data-name="3"><g class="cls-9"><g id="shadow_top_bottom" data-name="shadow top&amp;bottom"><path class="cls-10" d="M75.78,37.33v4.23a14.63,14.63,0,0,1-7.31,12.66l-7.32,4.23V50l3.66-2.11a7.33,7.33,0,0,0,3.66-6.34V39.86a1.46,1.46,0,0,0-2.2-1.26l-5.12,2.95V37.32a7.3,7.3,0,0,1,3.4-6.18l.27-.15.22-.13.22-.11a5.65,5.65,0,0,1,.88-.37h0l.44-.13h0l.41-.09a5.62,5.62,0,0,1,.57-.09L68,30h.48A7.34,7.34,0,0,1,75.78,37.33Z"/><path class="cls-11" d="M75.78,37.33v4.23a14.63,14.63,0,0,1-7.31,12.66l-7.32,4.23V50l3.66-2.11a7.33,7.33,0,0,0,3.66-6.34V39.86a1.46,1.46,0,0,0-2.2-1.26l-5.12,2.95V37.32a7.3,7.3,0,0,1,3.4-6.18l.27-.15.22-.13.22-.11a5.65,5.65,0,0,1,.88-.37h0l.44-.13h0l.41-.09a5.62,5.62,0,0,1,.57-.09L68,30h.48A7.34,7.34,0,0,1,75.78,37.33Z"/></g><g id="shadow_right" data-name="shadow right"><path class="cls-12" d="M75.77,37.32a7.32,7.32,0,0,1-3.52,6.26l-.3.17-7.13,4.12a7.3,7.3,0,0,0,3.64-6.32V39.86a1.46,1.46,0,0,0-2.2-1.26l-5.12,2.95V37.32a7.3,7.3,0,0,1,3.4-6.18l.27-.15.21-.13.23-.11a5.65,5.65,0,0,1,.88-.37h0l.44-.13h0c.14,0,.27-.07.41-.09a5.62,5.62,0,0,1,.57-.09L68,30h0l.44,0h0a6.69,6.69,0,0,1,1.41.15h.06c.24.05.48.11.71.18l.34.12.33.13.32.15.32.16.3.18a2.49,2.49,0,0,1,.3.19l.29.2a7.32,7.32,0,0,1,2.89,5.08s0,0,0,0A6,6,0,0,1,75.77,37.32Z"/></g><g id="_3.1" data-name="3.1"><g class="cls-13"><g id="border-2" data-name="border"><path class="cls-14" d="M75.77,37.32a6.94,6.94,0,0,1-1.48,4.87,7.22,7.22,0,0,1-2,1.76l-2.19,1.29c-1.47.84-2.94,1.68-4.44,2.47s-3,1.58-4.55,2.29c1.39-1,2.82-1.89,4.26-2.79s2.89-1.77,4.36-2.62L72,43.33a7.23,7.23,0,0,0,1.89-1.51A7.77,7.77,0,0,0,75.77,37.32Z"/></g></g></g></g></g></g></g><path class="cls-15" d="M103.5,52.26a2.26,2.26,0,0,1-2.26,2.26H96.73a2.26,2.26,0,0,1-2.26-2.26V41H90V52.26A6.78,6.78,0,0,0,96.73,59h4.51A6.78,6.78,0,0,0,108,52.26V41H103.5Z"/><path class="cls-15" d="M153.92,47.74v4.52A6.78,6.78,0,0,0,160.69,59h9V54.52h-9a2.26,2.26,0,0,1-2.25-2.26V47.74a2.26,2.26,0,0,1,2.25-2.26h9V41h-9A6.78,6.78,0,0,0,153.92,47.74Z"/><path class="cls-15" d="M122.31,41H117.8A6.78,6.78,0,0,0,111,47.74V63.55h4.52V59h6.77a6.78,6.78,0,0,0,6.78-6.77V47.74A6.78,6.78,0,0,0,122.31,41Zm2.26,11.29a2.26,2.26,0,0,1-2.26,2.26h-6.77V47.74a2.26,2.26,0,0,1,2.26-2.26h4.51a2.26,2.26,0,0,1,2.26,2.26Z"/><path class="cls-15" d="M136.61,36.45H132.1V52.26A6.78,6.78,0,0,0,138.87,59h4.52V54.52h-4.52a2.26,2.26,0,0,1-2.26-2.26V45.48h6.78V41h-6.78Z"/><rect class="cls-15" x="146.4" y="40.97" width="4.52" height="18.06"/><path class="cls-15" d="M190.8,41h-4.52v2.26A2.26,2.26,0,0,1,184,45.48h-6.77V41h-4.51V59h4.51V50h6.65a2.39,2.39,0,0,1,2.38,2.38V59h4.52V52.38a6.86,6.86,0,0,0-1.77-4.6,6.72,6.72,0,0,0,1.77-4.55Z"/></svg>