<svg id="Layer_2" data-name="Layer 2" xmlns="http://www.w3.org/2000/svg" xmlns:xlink="http://www.w3.org/1999/xlink" viewBox="0 0 100.4 92.9"><defs><style>.cls-1{fill:none;}.cls-2{fill:url(#linear-gradient);}.cls-3{clip-path:url(#clip-path);}.cls-4{fill:url(#linear-gradient-2);}.cls-5{clip-path:url(#clip-path-2);}.cls-6{fill:url(#linear-gradient-3);}.cls-7{fill:url(#radial-gradient);}.cls-8{clip-path:url(#clip-path-3);}.cls-9{fill:url(#radial-gradient-2);}.cls-10{fill:url(#radial-gradient-3);}.cls-11{fill:url(#linear-gradient-4);}.cls-12{clip-path:url(#clip-path-4);}.cls-13{fill:url(#linear-gradient-5);}.cls-14{fill-rule:evenodd;fill:url(#gradient_logotype_dark_bg);}</style><linearGradient id="linear-gradient" x1="25.2" y1="27.34" x2="75.2" y2="27.34" gradientUnits="userSpaceOnUse"><stop offset="0" stop-color="#553dde"/><stop offset="0.49" stop-color="#842bde"/><stop offset="1" stop-color="#df6fff"/></linearGradient><clipPath id="clip-path"><path id="_1_mask" data-name="1 mask" class="cls-1" d="M39.75,53.06,35.2,50.44a20,20,0,0,1-10-17.34V21.68a.22.22,0,0,1,.1-.18l9.9-5.7,0,17.31V44.68A10,10,0,0,0,39.75,53.06Z"/></clipPath><linearGradient id="linear-gradient-2" x1="37.3" y1="53.4" x2="37.3" y2="15.8" gradientUnits="userSpaceOnUse"><stop offset="0" stop-color="#fff" stop-opacity="0"/><stop offset="0.49" stop-color="#fff" stop-opacity="0.5"/><stop offset="1" stop-color="#fff" stop-opacity="0"/></linearGradient><clipPath id="clip-path-2"><path id="_2_mask" data-name="2 mask" class="cls-1" d="M59.84,1.56A10,10,0,0,0,55.19,10V44.66a10,10,0,0,1-10,10h-.07l-.57,0h-.06l-.46,0-.36,0a8.1,8.1,0,0,1-1-.2h0L42,54.16l-.62-.23a11.56,11.56,0,0,1-1.22-.61l-.38-.22a.05.05,0,0,1,0,0,10,10,0,0,1-4.58-8.4V33.11a10,10,0,0,0,5,8.67l2,1.15a2,2,0,0,0,3-1.73V10.37a.58.58,0,0,1,.3-.52Z"/></clipPath><linearGradient id="linear-gradient-3" x1="57.33" y1="44.66" x2="57.33" y2="1.24" xlink:href="#linear-gradient-2"/><radialGradient id="radial-gradient" cx="34.9" cy="46.01" r="20.7" gradientUnits="userSpaceOnUse"><stop offset="0" stop-color="#00032d" stop-opacity="0.4"/><stop offset="0.48" stop-color="#00032d" stop-opacity="0.15"/><stop offset="1" stop-color="#00032d" stop-opacity="0"/></radialGradient><clipPath id="clip-path-3"><path id="_3_mask" data-name="3 mask" class="cls-1" d="M75.2,10V15.8a20,20,0,0,1-10,17.31l-10,5.78V27.34l5-2.89a10,10,0,0,0,5-8.66V13.48a2,2,0,0,0-3-1.73l-7,4V10a10,10,0,0,1,4.65-8.44l.36-.21.3-.17L60.81,1A8.43,8.43,0,0,1,62,.52l.05,0,.61-.17h0c.19,0,.38-.1.57-.13S63.77.1,64,.07l.51,0h0l.61,0h0A10,10,0,0,1,75.2,10Z"/></clipPath><radialGradient id="radial-gradient-2" cx="56.82" cy="5.91" r="23.54" xlink:href="#radial-gradient"/><radialGradient id="radial-gradient-3" cx="54.6" cy="33.64" r="22.02" xlink:href="#radial-gradient"/><linearGradient id="linear-gradient-4" x1="71.53" y1="19.02" x2="62.88" y2="10.31" xlink:href="#radial-gradient"/><clipPath id="clip-path-4"><path id="_3.1_mask" data-name="3.1 mask" class="cls-1" d="M75.2,10V15.8a20,20,0,0,1-10,17.31l-10,5.78V27.34l5-2.89.07-.05L70,18.8l.42-.24A10,10,0,0,0,75.2,10Z"/></clipPath><linearGradient id="linear-gradient-5" x1="65.2" y1="27.67" x2="65.2" y2="10.01" xlink:href="#linear-gradient-2"/><linearGradient id="gradient_logotype_dark_bg" x1="100.94" y1="70.83" x2="-0.35" y2="88.43" gradientUnits="userSpaceOnUse"><stop offset="0" stop-color="#fff"/><stop offset="1" stop-color="#e4ddfe"/></linearGradient></defs><title>uptick-app_full-logo_vertical_negative_transparent</title><g id="uptick-app_mark" data-name="uptick-app mark"><path id="Shape" class="cls-2" d="M60.2,1.35,45.49,9.85a.6.6,0,0,0-.3.52V41.2a2,2,0,0,1-3,1.73l-2-1.15a10,10,0,0,1-5-8.67v-17a.2.2,0,0,0-.3-.18l-9.4,5.42a.59.59,0,0,0-.3.52V33.1a20,20,0,0,0,10,17.34l5,2.88a10,10,0,0,0,15-8.66V38.89l10-5.78a20,20,0,0,0,10-17.31V10A10,10,0,0,0,60.2,1.35Zm0,23.1-5,2.89V15.79l7-4a2,2,0,0,1,3,1.73v2.31A10,10,0,0,1,60.19,24.45Z"/><g id="Effects"><g id="_1" data-name="1"><g class="cls-3"><path class="cls-4" d="M39.77,53.08a9.85,9.85,0,0,1-3.72-3.88,10.81,10.81,0,0,1-1.17-5.32c0-3.59-.08-7.18-.05-10.77v-.36h.36l-.36.36c0-2.88,0-5.77.11-8.65s.13-5.77.27-8.66c.13,2.89.21,5.77.26,8.66s.05,5.77.08,8.65v.36h-.37l.36-.36c0,3.59,0,7.18,0,10.77a10.22,10.22,0,0,0,4.27,9.2Z"/></g></g><g id="_2" data-name="2"><g class="cls-5"><g id="border"><path class="cls-6" d="M59.84,1.56a10.28,10.28,0,0,0-3.51,4.2,10,10,0,0,0-.76,2.62,14.66,14.66,0,0,0-.09,2.74c.06,3.73.05,7.46.08,11.18l-.08,11.18c-.06,3.73-.13,7.45-.29,11.18C55,40.93,55,37.21,54.9,33.48L54.82,22.3c0-3.72,0-7.45.08-11.18a15.87,15.87,0,0,1,.2-2.82,9.81,9.81,0,0,1,4.74-6.74Z"/></g><path id="shadow" class="cls-7" d="M59.84,1.56A10,10,0,0,0,55.19,10V44.66a10,10,0,0,1-10,10h-.07l-.57,0h-.06l-.46,0-.36,0a8.1,8.1,0,0,1-1-.2h0L42,54.16l-.62-.23a11.56,11.56,0,0,1-1.22-.61l-.38-.22a.05.05,0,0,1,0,0,10,10,0,0,1-4.58-8.4V33.11a10,10,0,0,0,5,8.67l2,1.15a2,2,0,0,0,3-1.73V10.37a.58.58,0,0,1,.3-.52Z"/></g></g><g id="_3" data-name="3"><g class="cls-8"><g id="shadow_top_bottom" data-name="shadow top&amp;bottom"><path class="cls-9" d="M75.2,10V15.8a20,20,0,0,1-10,17.31l-10,5.78V27.34l5-2.89a10,10,0,0,0,5-8.66V13.48a2,2,0,0,0-3-1.73l-7,4V10a10,10,0,0,1,4.65-8.44l.36-.21.3-.17L60.81,1A8.43,8.43,0,0,1,62,.52l.05,0,.61-.17h0c.19,0,.38-.1.57-.13S63.77.1,64,.07l.51,0h0l.61,0h0A10,10,0,0,1,75.2,10Z"/><path class="cls-10" d="M75.2,10V15.8a20,20,0,0,1-10,17.31l-10,5.78V27.34l5-2.89a10,10,0,0,0,5-8.66V13.48a2,2,0,0,0-3-1.73l-7,4V10a10,10,0,0,1,4.65-8.44l.36-.21.3-.17L60.81,1A8.43,8.43,0,0,1,62,.52l.05,0,.61-.17h0c.19,0,.38-.1.57-.13S63.77.1,64,.07l.51,0h0l.61,0h0A10,10,0,0,1,75.2,10Z"/></g><g id="shadow_right" data-name="shadow right"><path class="cls-11" d="M75.19,10a10,10,0,0,1-4.81,8.55L70,18.8l-9.74,5.63a10,10,0,0,0,5-8.64V13.48a2,2,0,0,0-3-1.73l-7,4V10a10,10,0,0,1,4.65-8.44l.36-.21.3-.17L60.81,1A8.43,8.43,0,0,1,62,.52l.05,0,.61-.17h0c.19,0,.38-.1.57-.13S63.77.1,64,.07l.51,0h0l.61,0h0a9.58,9.58,0,0,1,1.93.2l.09,0a9.63,9.63,0,0,1,1,.25,4.34,4.34,0,0,1,.47.16,4.22,4.22,0,0,1,.45.18l.44.2.43.22a4.49,4.49,0,0,1,.42.24l.41.26.39.28a10,10,0,0,1,4,6.94s0,0,0,0C75.17,9.32,75.19,9.67,75.19,10Z"/></g><g id="_3.1" data-name="3.1"><g class="cls-12"><g id="border-2" data-name="border"><path class="cls-13" d="M75.19,10a9.64,9.64,0,0,1-2.1,6.59,9.75,9.75,0,0,1-2.69,2.34l-3,1.77c-2,1.13-4,2.29-6.06,3.4s-4.08,2.21-6.16,3.23c1.93-1.29,3.9-2.52,5.87-3.73s4-2.37,6-3.55l3-1.71a10.74,10.74,0,0,0,2.59-2.12A10.48,10.48,0,0,0,75.19,10Z"/></g></g></g></g></g></g></g><path class="cls-14" d="M32.1,74.9H27.6a2.48,2.48,0,0,0-2.5,2.5v7h7a2.48,2.48,0,0,0,2.5-2.5V77.4A2.48,2.48,0,0,0,32.1,74.9Zm47.2-4.1v4H70.5A2.48,2.48,0,0,0,68,77.3v4.5a2.48,2.48,0,0,0,2.5,2.5h8.8v4H70.5A6.49,6.49,0,0,1,64,81.8V77.3a6.55,6.55,0,0,1,6.5-6.5Zm7.6,0v4.5h7a2.48,2.48,0,0,0,2.5-2.5v-2h4v2a7.09,7.09,0,0,1-1.7,4.4l-.2.2.2.2a6.56,6.56,0,0,1,1.7,4.4v6.4h-4V82a2.58,2.58,0,0,0-2.6-2.6H86.9v9h-4V70.8Zm-26.5,0V88.4h-4V70.8ZM46.2,66.3v4.6H53v4H46.2v7a2.48,2.48,0,0,0,2.5,2.5H53v4H48.7a6.49,6.49,0,0,1-6.5-6.5V66.3ZM4,70.9v11a2.48,2.48,0,0,0,2.5,2.5H11a2.48,2.48,0,0,0,2.5-2.5v-11h4v11A6.49,6.49,0,0,1,11,88.4H6.5A6.49,6.49,0,0,1,0,81.9v-11Zm28.1-.1a6.55,6.55,0,0,1,6.5,6.5v4.6a6.49,6.49,0,0,1-6.5,6.5h-7v4.5h-4V77.3a6.49,6.49,0,0,1,6.5-6.5Z"/></svg>