<svg id="Layer_2" data-name="Layer 2" xmlns="http://www.w3.org/2000/svg" xmlns:xlink="http://www.w3.org/1999/xlink" viewBox="0 0 100.4 26.6"><defs><style>.cls-1{fill-rule:evenodd;fill:url(#gradient_logotype_dark_bg);}</style><linearGradient id="gradient_logotype_dark_bg" x1="100.94" y1="4.53" x2="-0.35" y2="22.14" gradientUnits="userSpaceOnUse"><stop offset="0" stop-color="#fff"/><stop offset="1" stop-color="#e4ddfe"/></linearGradient></defs><title>uptick-app_logotype_positive</title><path class="cls-1" d="M32.1,8.6H27.6a2.48,2.48,0,0,0-2.5,2.5v7h7a2.48,2.48,0,0,0,2.5-2.5V11.1A2.48,2.48,0,0,0,32.1,8.6ZM79.3,4.5v4H70.5A2.48,2.48,0,0,0,68,11v4.5A2.48,2.48,0,0,0,70.5,18h8.8v4H70.5A6.49,6.49,0,0,1,64,15.5V11a6.55,6.55,0,0,1,6.5-6.5Zm7.6,0V9h7a2.48,2.48,0,0,0,2.5-2.5v-2h4v2a7.09,7.09,0,0,1-1.7,4.4l-.2.2.2.2a6.56,6.56,0,0,1,1.7,4.4v6.4h-4V15.7a2.58,2.58,0,0,0-2.6-2.6H86.9v9h-4V4.5Zm-26.5,0V22.1h-4V4.5ZM46.2,0V4.6H53v4H46.2v7a2.48,2.48,0,0,0,2.5,2.5H53v4H48.7a6.49,6.49,0,0,1-6.5-6.5V0ZM4,4.6v11a2.48,2.48,0,0,0,2.5,2.5H11a2.48,2.48,0,0,0,2.5-2.5V4.6h4v11A6.49,6.49,0,0,1,11,22.1H6.5A6.49,6.49,0,0,1,0,15.6V4.6Zm28.1-.1A6.55,6.55,0,0,1,38.6,11v4.6a6.49,6.49,0,0,1-6.5,6.5h-7v4.5h-4V11a6.49,6.49,0,0,1,6.5-6.5Z"/></svg>