<?xml version="1.0" encoding="utf-8"?>
<!-- Generator: Adobe Illustrator 25.0.1, SVG Export Plug-In . SVG Version: 6.00 Build 0)  -->
<svg version="1.1" xmlns="http://www.w3.org/2000/svg" xmlns:xlink="http://www.w3.org/1999/xlink" x="0px" y="0px"
	 viewBox="0 0 57.2 62.5" style="enable-background:new 0 0 57.2 62.5;" xml:space="preserve">
<style type="text/css">
	.st0{fill:url(#Shape_2_);}
	.st1{clip-path:url(#SVGID_2_);}
	.st2{fill:url(#SVGID_3_);}
	.st3{clip-path:url(#SVGID_5_);}
	.st4{fill:url(#SVGID_6_);}
	.st5{fill:url(#shadow_2_);}
	.st6{clip-path:url(#SVGID_8_);}
	.st7{fill:url(#SVGID_9_);}
	.st8{fill:url(#SVGID_10_);}
	.st9{fill:url(#SVGID_11_);}
	.st10{clip-path:url(#SVGID_13_);}
	.st11{fill:url(#SVGID_14_);}
</style>
<g id="Layer_2">
</g>
<g id="图层_2">
	
		<linearGradient id="Shape_2_" gradientUnits="userSpaceOnUse" x1="0.1178" y1="30.652" x2="57.047" y2="30.652" gradientTransform="matrix(1 0 0 -1 0 61.8898)">
		<stop  offset="0" style="stop-color:#553DDE"/>
		<stop  offset="0.49" style="stop-color:#842BDE"/>
		<stop  offset="1" style="stop-color:#DF6FFF"/>
	</linearGradient>
	<path id="Shape_1_" class="st0" d="M40,1.6l-16.7,9.7c-0.2,0.1-0.4,0.3-0.4,0.6V47c0,1.3-1,2.3-2.3,2.3c-0.4,0-0.8-0.1-1.1-0.3
		l-2.3-1.3c-3.5-2-5.7-5.8-5.7-9.9V18.5c0-0.1-0.1-0.2-0.2-0.2c0,0-0.1,0-0.1,0L0.5,24.4c-0.2,0.1-0.3,0.3-0.3,0.6v12.8
		c0,8.1,4.3,15.7,11.4,19.7l5.7,3.3c5.4,3.1,12.4,1.3,15.6-4.2c1-1.7,1.5-3.7,1.5-5.7v-6.6l11.4-6.6c7-4.1,11.4-11.6,11.4-19.7v-6.6
		c0-6.3-5.1-11.4-11.4-11.4C43.7,0.1,41.7,0.7,40,1.6z M40,27.9l-5.7,3.3V18.1l8-4.6c1.1-0.6,2.5-0.3,3.1,0.8
		c0.2,0.3,0.3,0.7,0.3,1.1v2.6C45.7,22.2,43.5,25.9,40,27.9L40,27.9z"/>
	<g id="Effects_1_">
		<g id="_1_1_">
			<g>
				<defs>
					<path id="SVGID_1_" d="M16.7,60.5l-5.2-3C4.5,53.5,0.2,45.9,0.2,37.8v-13c0-0.1,0-0.2,0.1-0.2l11.3-6.5V51
						C11.5,54.8,13.5,58.4,16.7,60.5z"/>
				</defs>
				<clipPath id="SVGID_2_">
					<use xlink:href="#SVGID_1_"  style="overflow:visible;"/>
				</clipPath>
				<g class="st1">
					
						<linearGradient id="SVGID_3_" gradientUnits="userSpaceOnUse" x1="13.9137" y1="0.979" x2="13.9137" y2="43.7898" gradientTransform="matrix(1 0 0 -1 0 61.8898)">
						<stop  offset="0" style="stop-color:#FFFFFF;stop-opacity:0"/>
						<stop  offset="0.49" style="stop-color:#FFFFFF;stop-opacity:0.5"/>
						<stop  offset="1" style="stop-color:#FFFFFF;stop-opacity:0"/>
					</linearGradient>
					<path class="st2" d="M16.7,60.5c-1.8-1.1-3.3-2.6-4.2-4.4c-1-1.9-1.4-4-1.3-6.1c0-4.1-0.1-8.2-0.1-12.3v-0.4h0.4l-0.4,0.4
						c0-3.3,0-6.6,0.1-9.8c0.1-3.3,0.1-6.6,0.3-9.9c0.1,3.3,0.2,6.6,0.3,9.9c0.1,3.3,0.1,6.6,0.1,9.8v0.4h-0.4l0.4-0.4
						c0,4.1,0,8.2-0.1,12.3C11.5,54.2,13.4,58.2,16.7,60.5z"/>
				</g>
			</g>
		</g>
		<g id="_2_1_">
			<g>
				<defs>
					<path id="SVGID_4_" d="M39.6,1.9c-3.3,2.1-5.3,5.7-5.3,9.6V51c0,6.3-5.1,11.4-11.4,11.4h-0.1h-0.6h-0.1h-0.5h-0.4
						c-0.4-0.1-0.8-0.1-1.1-0.2l0,0l-0.7-0.2l-0.7-0.3c-0.5-0.2-0.9-0.4-1.4-0.7l-0.5-0.4l0,0c-3.2-2.1-5.2-5.7-5.2-9.6V37.8
						c0,4.1,2.2,7.8,5.7,9.9l2.3,1.3c1.1,0.6,2.5,0.3,3.1-0.8c0.2-0.3,0.3-0.7,0.3-1.1V11.9c0-0.2,0.1-0.5,0.3-0.6L39.6,1.9z"/>
				</defs>
				<clipPath id="SVGID_5_">
					<use xlink:href="#SVGID_4_"  style="overflow:visible;"/>
				</clipPath>
				<g class="st3">
					<g id="border_1_">
						
							<linearGradient id="SVGID_6_" gradientUnits="userSpaceOnUse" x1="36.6892" y1="10.9303" x2="36.6892" y2="60.3675" gradientTransform="matrix(1 0 0 -1 0 61.8898)">
							<stop  offset="0" style="stop-color:#FFFFFF;stop-opacity:0"/>
							<stop  offset="0.49" style="stop-color:#FFFFFF;stop-opacity:0.5"/>
							<stop  offset="1" style="stop-color:#FFFFFF;stop-opacity:0"/>
						</linearGradient>
						<path class="st4" d="M39.6,1.9c-1.7,1.2-3.1,2.9-4,4.8c-0.4,0.9-0.7,2-0.9,3c-0.1,1-0.2,2.1-0.1,3.1c0.1,4.2,0.1,8.5,0.1,12.7
							l-0.1,12.7c-0.1,4.2-0.1,8.5-0.3,12.7c-0.2-4.2-0.3-8.5-0.3-12.7l-0.1-12.7c0-4.2,0-8.5,0.1-12.7c0-1.1,0-2.1,0.2-3.2
							c0.2-1.1,0.5-2.1,1-3.1C36.2,4.6,37.7,3,39.6,1.9z"/>
					</g>
					
						<radialGradient id="shadow_2_" cx="11.1735" cy="9.3932" r="23.5687" gradientTransform="matrix(1 0 0 -1 0 61.8898)" gradientUnits="userSpaceOnUse">
						<stop  offset="0" style="stop-color:#00032D;stop-opacity:0.4"/>
						<stop  offset="0.48" style="stop-color:#00032D;stop-opacity:0.15"/>
						<stop  offset="1" style="stop-color:#00032D;stop-opacity:0"/>
					</radialGradient>
					<path id="shadow_1_" class="st5" d="M39.6,1.9c-3.3,2.1-5.3,5.7-5.3,9.6V51c0,6.3-5.1,11.4-11.4,11.4h-0.1h-0.6h-0.1h-0.5h-0.4
						c-0.4-0.1-0.8-0.1-1.1-0.2l0,0l-0.7-0.2l-0.7-0.3c-0.5-0.2-0.9-0.4-1.4-0.7l-0.5-0.4l0,0c-3.2-2.1-5.2-5.7-5.2-9.6V37.8
						c0,4.1,2.2,7.8,5.7,9.9l2.3,1.3c1.1,0.6,2.5,0.3,3.1-0.8c0.2-0.3,0.3-0.7,0.3-1.1V11.9c0-0.2,0.1-0.5,0.3-0.6L39.6,1.9z"/>
				</g>
			</g>
		</g>
		<g id="_3_1_">
			<g>
				<defs>
					<path id="SVGID_7_" d="M57.1,11.5v6.6c0,8.1-4.3,15.6-11.4,19.7l-11.4,6.6V31.2l5.7-3.3c3.5-2,5.7-5.8,5.7-9.9v-2.6
						c0-1.3-1-2.3-2.3-2.3c-0.4,0-0.8,0.1-1.1,0.3l-8,4.6v-6.5c0-3.9,2-7.5,5.3-9.6L40,1.6l0.3-0.2l0.3-0.2C41.1,1,41.5,0.8,42,0.7
						h0.1l0.7-0.2l0,0c0.2,0,0.4-0.1,0.6-0.1c0.2,0,0.6-0.1,0.9-0.1h0.6l0,0h0.7l0,0C51.9,0.2,57,5.2,57.1,11.5z"/>
				</defs>
				<clipPath id="SVGID_8_">
					<use xlink:href="#SVGID_7_"  style="overflow:visible;"/>
				</clipPath>
				<g class="st6">
					<g id="shadow_top_bottom_1_">
						
							<radialGradient id="SVGID_9_" cx="36.1312" cy="55.0504" r="26.8022" gradientTransform="matrix(1 0 0 -1 0 61.8898)" gradientUnits="userSpaceOnUse">
							<stop  offset="0" style="stop-color:#00032D;stop-opacity:0.4"/>
							<stop  offset="0.48" style="stop-color:#00032D;stop-opacity:0.15"/>
							<stop  offset="1" style="stop-color:#00032D;stop-opacity:0"/>
						</radialGradient>
						<path class="st7" d="M57.1,11.5v6.6c0,8.1-4.3,15.6-11.4,19.7l-11.4,6.6V31.2l5.7-3.3c3.5-2,5.7-5.8,5.7-9.9v-2.6
							c0-1.3-1-2.3-2.3-2.3c-0.4,0-0.8,0.1-1.1,0.3l-8,4.6v-6.5c0-3.9,2-7.5,5.3-9.6L40,1.6l0.3-0.2l0.3-0.2C41.1,1,41.5,0.8,42,0.7
							h0.1l0.7-0.2l0,0c0.2,0,0.4-0.1,0.6-0.1c0.2,0,0.6-0.1,0.9-0.1h0.6l0,0h0.7l0,0C51.9,0.2,57,5.2,57.1,11.5z"/>
						
							<radialGradient id="SVGID_10_" cx="33.615" cy="23.4774" r="25.0716" gradientTransform="matrix(1 0 0 -1 0 61.8898)" gradientUnits="userSpaceOnUse">
							<stop  offset="0" style="stop-color:#00032D;stop-opacity:0.4"/>
							<stop  offset="0.48" style="stop-color:#00032D;stop-opacity:0.15"/>
							<stop  offset="1" style="stop-color:#00032D;stop-opacity:0"/>
						</radialGradient>
						<path class="st8" d="M57.1,11.5v6.6c0,8.1-4.3,15.6-11.4,19.7l-11.4,6.6V31.2l5.7-3.3c3.5-2,5.7-5.8,5.7-9.9v-2.6
							c0-1.3-1-2.3-2.3-2.3c-0.4,0-0.8,0.1-1.1,0.3l-8,4.6v-6.5c0-3.9,2-7.5,5.3-9.6L40,1.6l0.3-0.2l0.3-0.2C41.1,1,41.5,0.8,42,0.7
							h0.1l0.7-0.2l0,0c0.2,0,0.4-0.1,0.6-0.1c0.2,0,0.6-0.1,0.9-0.1h0.6l0,0h0.7l0,0C51.9,0.2,57,5.2,57.1,11.5z"/>
					</g>
					<g id="shadow_right_1_">
						
							<linearGradient id="SVGID_11_" gradientUnits="userSpaceOnUse" x1="52.8891" y1="40.1328" x2="43.0518" y2="50.0498" gradientTransform="matrix(1 0 0 -1 0 61.8898)">
							<stop  offset="0" style="stop-color:#00032D;stop-opacity:0.4"/>
							<stop  offset="0.48" style="stop-color:#00032D;stop-opacity:0.15"/>
							<stop  offset="1" style="stop-color:#00032D;stop-opacity:0"/>
						</linearGradient>
						<path class="st9" d="M57,11.5c0,4-2.1,7.7-5.5,9.7l-0.5,0.3L40,27.9c3.5-2,5.7-5.8,5.7-9.8v-2.6c0-1.3-1-2.3-2.3-2.3
							c-0.4,0-0.8,0.1-1.1,0.3l-8,4.6v-6.5c0-3.9,2-7.5,5.3-9.6L40,1.6l0.3-0.2l0.3-0.2C41.1,1,41.5,0.8,42,0.7h0.1l0.7-0.2l0,0
							c0.2,0,0.4-0.1,0.6-0.1c0.2,0,0.6-0.1,0.9-0.1h0.6l0,0h0.7l0,0c0.7,0,1.5,0.1,2.2,0.2h0.1c0.4,0.1,0.8,0.2,1.1,0.3
							c0.2,0.1,0.4,0.1,0.5,0.2c0.2,0.1,0.3,0.1,0.5,0.2l0.5,0.2l0.5,0.3l0.5,0.3L52,2.1l0.4,0.3c2.6,1.9,4.2,4.7,4.6,7.9l0,0
							C57,10.7,57,11.1,57,11.5z"/>
					</g>
					<g id="_3.1_1_">
						<g>
							<defs>
								<path id="SVGID_12_" d="M57.1,11.5v6.6c0,8.1-4.3,15.6-11.4,19.7l-11.4,6.6V31.2l5.7-3.3l0.1-0.1l11-6.4l0.5-0.3
									C55,19.2,57.1,15.5,57.1,11.5z"/>
							</defs>
							<clipPath id="SVGID_13_">
								<use xlink:href="#SVGID_12_"  style="overflow:visible;"/>
							</clipPath>
							<g class="st10">
								<g id="border-2_1_">
									
										<linearGradient id="SVGID_14_" gradientUnits="userSpaceOnUse" x1="45.6649" y1="30.2748" x2="45.6649" y2="50.3822" gradientTransform="matrix(1 0 0 -1 0 61.8898)">
										<stop  offset="0" style="stop-color:#FFFFFF;stop-opacity:0"/>
										<stop  offset="0.49" style="stop-color:#FFFFFF;stop-opacity:0.5"/>
										<stop  offset="1" style="stop-color:#FFFFFF;stop-opacity:0"/>
									</linearGradient>
									<path class="st11" d="M57,11.5c0.2,2.7-0.7,5.4-2.4,7.5c-0.8,1.1-1.9,2-3.1,2.7l-3.4,2c-2.3,1.3-4.6,2.6-6.9,3.9
										c-2.3,1.3-4.6,2.5-7,3.7c2.2-1.5,4.4-2.9,6.7-4.2c2.2-1.4,4.6-2.7,6.8-4l3.4-1.9C54.6,19,56.8,15.4,57,11.5z"/>
								</g>
							</g>
						</g>
					</g>
				</g>
			</g>
		</g>
	</g>
</g>
</svg>
