<svg id="Layer_2" data-name="Layer 2" xmlns="http://www.w3.org/2000/svg" xmlns:xlink="http://www.w3.org/1999/xlink" viewBox="0 0 230 230"><defs><style>.cls-1{fill:none;}.cls-2{fill:url(#radial-gradient);}.cls-3{fill:url(#linear-gradient);}.cls-4{clip-path:url(#clip-path);}.cls-5{fill:url(#linear-gradient-2);}.cls-6{clip-path:url(#clip-path-2);}.cls-7{fill:url(#linear-gradient-3);}.cls-8{fill:url(#radial-gradient-2);}.cls-9{clip-path:url(#clip-path-3);}.cls-10{fill:url(#radial-gradient-3);}.cls-11{fill:url(#radial-gradient-4);}.cls-12{fill:url(#linear-gradient-4);}.cls-13{clip-path:url(#clip-path-4);}.cls-14{fill:url(#linear-gradient-5);}.cls-15{fill-rule:evenodd;fill:url(#gradient_logotype_dark_bg);}</style><radialGradient id="radial-gradient" cx="268.34" cy="212.73" r="113.7" gradientTransform="translate(-212.24 -184.88) scale(1.22 1.41)" gradientUnits="userSpaceOnUse"><stop offset="0" stop-color="#270645"/><stop offset="1" stop-color="#180031"/></radialGradient><linearGradient id="linear-gradient" x1="90" y1="95.89" x2="140" y2="95.89" gradientUnits="userSpaceOnUse"><stop offset="0" stop-color="#553dde"/><stop offset="0.49" stop-color="#842bde"/><stop offset="1" stop-color="#df6fff"/></linearGradient><clipPath id="clip-path"><path id="_1_mask" data-name="1 mask" class="cls-1" d="M104.55,121.61,100,119a20,20,0,0,1-10-17.34V90.23a.22.22,0,0,1,.1-.18l9.9-5.7,0,17.31v11.57A10,10,0,0,0,104.55,121.61Z"/></clipPath><linearGradient id="linear-gradient-2" x1="102.1" y1="121.95" x2="102.1" y2="84.35" gradientUnits="userSpaceOnUse"><stop offset="0" stop-color="#fff" stop-opacity="0"/><stop offset="0.49" stop-color="#fff" stop-opacity="0.5"/><stop offset="1" stop-color="#fff" stop-opacity="0"/></linearGradient><clipPath id="clip-path-2"><path id="_2_mask" data-name="2 mask" class="cls-1" d="M124.64,70.11A10,10,0,0,0,120,78.55v34.66a10,10,0,0,1-10,10h-.07l-.57,0h-.06l-.46,0-.36,0a8.1,8.1,0,0,1-1-.2h0l-.63-.19-.62-.23a11.56,11.56,0,0,1-1.22-.61l-.38-.22a.05.05,0,0,1,0,0,10,10,0,0,1-4.58-8.4V101.66a10,10,0,0,0,5,8.67l2,1.15a2,2,0,0,0,3-1.73V78.92a.58.58,0,0,1,.3-.52Z"/></clipPath><linearGradient id="linear-gradient-3" x1="122.13" y1="113.21" x2="122.13" y2="69.79" xlink:href="#linear-gradient-2"/><radialGradient id="radial-gradient-2" cx="99.7" cy="114.56" r="20.7" gradientUnits="userSpaceOnUse"><stop offset="0" stop-color="#00032d" stop-opacity="0.4"/><stop offset="0.48" stop-color="#00032d" stop-opacity="0.15"/><stop offset="1" stop-color="#00032d" stop-opacity="0"/></radialGradient><clipPath id="clip-path-3"><path id="_3_mask" data-name="3 mask" class="cls-1" d="M140,78.57v5.78a20,20,0,0,1-10,17.31l-10,5.78V95.89L125,93a10,10,0,0,0,5-8.66V82a2,2,0,0,0-3-1.73l-7,4V78.55a10,10,0,0,1,4.65-8.44l.36-.21.3-.17.31-.16a8.43,8.43,0,0,1,1.2-.5l0,0,.61-.17h0c.19-.05.38-.1.57-.13s.51-.09.77-.12l.51-.05h0l.61,0h0A10,10,0,0,1,140,78.57Z"/></clipPath><radialGradient id="radial-gradient-3" cx="121.62" cy="74.46" r="23.54" xlink:href="#radial-gradient-2"/><radialGradient id="radial-gradient-4" cx="119.4" cy="102.19" r="22.02" xlink:href="#radial-gradient-2"/><linearGradient id="linear-gradient-4" x1="136.33" y1="87.57" x2="127.68" y2="78.86" xlink:href="#radial-gradient-2"/><clipPath id="clip-path-4"><path id="_3.1_mask" data-name="3.1 mask" class="cls-1" d="M140,78.57v5.78a20,20,0,0,1-10,17.31l-10,5.78V95.89L125,93l.07,0,9.7-5.6.42-.24A10,10,0,0,0,140,78.57Z"/></clipPath><linearGradient id="linear-gradient-5" x1="130" y1="96.22" x2="130" y2="78.56" xlink:href="#linear-gradient-2"/><linearGradient id="gradient_logotype_dark_bg" x1="165.74" y1="139.38" x2="64.45" y2="156.98" gradientUnits="userSpaceOnUse"><stop offset="0" stop-color="#fff"/><stop offset="1" stop-color="#e4ddfe"/></linearGradient></defs><title>uptick-app_full-logo_vertical_negative</title><rect class="cls-2" width="230" height="230"/><g id="uptick-app_mark" data-name="uptick-app mark"><path id="Shape" class="cls-3" d="M125,69.91,110.29,78.4a.6.6,0,0,0-.3.52v30.83a2,2,0,0,1-3,1.73l-2-1.15a10,10,0,0,1-5-8.67v-17a.2.2,0,0,0-.3-.18l-9.4,5.42a.59.59,0,0,0-.3.52v11.19A20,20,0,0,0,100,119l5,2.88a10,10,0,0,0,15-8.66v-5.77l10-5.78a20,20,0,0,0,10-17.31V78.57A10,10,0,0,0,125,69.91ZM125,93l-5,2.89V84.34l7-4A2,2,0,0,1,130,82v2.31A10,10,0,0,1,125,93Z"/><g id="Effects"><g id="_1" data-name="1"><g class="cls-4"><path class="cls-5" d="M104.57,121.63a9.85,9.85,0,0,1-3.72-3.88,10.81,10.81,0,0,1-1.17-5.32c0-3.59-.08-7.18-.05-10.77v-.36H100l-.36.36c0-2.88,0-5.77.11-8.65s.13-5.77.27-8.66c.13,2.89.21,5.77.26,8.66s0,5.77.08,8.65V102H100l.36-.36c0,3.59,0,7.18,0,10.77a10.22,10.22,0,0,0,4.27,9.2Z"/></g></g><g id="_2" data-name="2"><g class="cls-6"><g id="border"><path class="cls-7" d="M124.64,70.11a10.28,10.28,0,0,0-3.51,4.2,10,10,0,0,0-.76,2.62,14.66,14.66,0,0,0-.09,2.74c.06,3.73,0,7.46.08,11.18L120.28,102c-.06,3.73-.13,7.45-.29,11.18-.16-3.73-.23-7.45-.29-11.18l-.08-11.18c0-3.72,0-7.45.08-11.18a15.87,15.87,0,0,1,.2-2.82,9.81,9.81,0,0,1,4.74-6.74Z"/></g><path id="shadow" class="cls-8" d="M124.64,70.11A10,10,0,0,0,120,78.55v34.66a10,10,0,0,1-10,10h-.07l-.57,0h-.06l-.46,0-.36,0a8.1,8.1,0,0,1-1-.2h0l-.63-.19-.62-.23a11.56,11.56,0,0,1-1.22-.61l-.38-.22a.05.05,0,0,1,0,0,10,10,0,0,1-4.58-8.4V101.66a10,10,0,0,0,5,8.67l2,1.15a2,2,0,0,0,3-1.73V78.92a.58.58,0,0,1,.3-.52Z"/></g></g><g id="_3" data-name="3"><g class="cls-9"><g id="shadow_top_bottom" data-name="shadow top&amp;bottom"><path class="cls-10" d="M140,78.57v5.78a20,20,0,0,1-10,17.31l-10,5.78V95.89L125,93a10,10,0,0,0,5-8.66V82a2,2,0,0,0-3-1.73l-7,4V78.55a10,10,0,0,1,4.65-8.44l.36-.21.3-.17.31-.16a8.43,8.43,0,0,1,1.2-.5l0,0,.61-.17h0c.19-.05.38-.1.57-.13s.51-.09.77-.12l.51-.05h0l.61,0h0A10,10,0,0,1,140,78.57Z"/><path class="cls-11" d="M140,78.57v5.78a20,20,0,0,1-10,17.31l-10,5.78V95.89L125,93a10,10,0,0,0,5-8.66V82a2,2,0,0,0-3-1.73l-7,4V78.55a10,10,0,0,1,4.65-8.44l.36-.21.3-.17.31-.16a8.43,8.43,0,0,1,1.2-.5l0,0,.61-.17h0c.19-.05.38-.1.57-.13s.51-.09.77-.12l.51-.05h0l.61,0h0A10,10,0,0,1,140,78.57Z"/></g><g id="shadow_right" data-name="shadow right"><path class="cls-12" d="M140,78.56a10,10,0,0,1-4.81,8.55l-.42.24L125,93a10,10,0,0,0,5-8.64V82a2,2,0,0,0-3-1.73l-7,4V78.55a10,10,0,0,1,4.65-8.44l.36-.21.3-.17.31-.16a8.43,8.43,0,0,1,1.2-.5l0,0,.61-.17h0c.19-.05.38-.1.57-.13s.51-.09.77-.12l.51-.05h0l.61,0h0a9.58,9.58,0,0,1,1.93.2l.09,0a9.63,9.63,0,0,1,1,.25,4.34,4.34,0,0,1,.47.16,4.22,4.22,0,0,1,.45.18l.44.2.43.22a4.49,4.49,0,0,1,.42.24l.41.26.39.28a10,10,0,0,1,4,6.94s0,0,0,0C140,77.87,140,78.22,140,78.56Z"/></g><g id="_3.1" data-name="3.1"><g class="cls-13"><g id="border-2" data-name="border"><path class="cls-14" d="M140,78.56a9.64,9.64,0,0,1-2.1,6.59,9.75,9.75,0,0,1-2.69,2.34l-3,1.77c-2,1.13-4,2.3-6.06,3.4s-4.08,2.21-6.16,3.23c1.93-1.29,3.9-2.51,5.87-3.73s4-2.37,6-3.55l3-1.71a10.74,10.74,0,0,0,2.59-2.12A10.45,10.45,0,0,0,140,78.56Z"/></g></g></g></g></g></g></g><path class="cls-15" d="M96.9,143.45H92.4a2.48,2.48,0,0,0-2.5,2.5v7h7a2.48,2.48,0,0,0,2.5-2.5V146A2.48,2.48,0,0,0,96.9,143.45Zm47.2-4.1v4h-8.8a2.48,2.48,0,0,0-2.5,2.5v4.5a2.48,2.48,0,0,0,2.5,2.5h8.8v4h-8.8a6.49,6.49,0,0,1-6.5-6.5v-4.5a6.55,6.55,0,0,1,6.5-6.5Zm7.6,0v4.5h7a2.48,2.48,0,0,0,2.5-2.5v-2h4v2a7.09,7.09,0,0,1-1.7,4.4l-.2.2.2.2a6.56,6.56,0,0,1,1.7,4.4V157h-4v-6.4a2.58,2.58,0,0,0-2.6-2.6h-6.9v9h-4v-17.6Zm-26.5,0V157h-4v-17.6Zm-14.2-4.5v4.6h6.8v4H111v7a2.48,2.48,0,0,0,2.5,2.5h4.3v4h-4.3a6.49,6.49,0,0,1-6.5-6.5v-15.6Zm-42.2,4.6v11a2.48,2.48,0,0,0,2.5,2.5h4.5a2.48,2.48,0,0,0,2.5-2.5v-11h4v11a6.49,6.49,0,0,1-6.5,6.5H71.3a6.49,6.49,0,0,1-6.5-6.5v-11Zm28.1-.1a6.55,6.55,0,0,1,6.5,6.5v4.6a6.49,6.49,0,0,1-6.5,6.5h-7v4.5h-4v-15.6a6.49,6.49,0,0,1,6.5-6.5Z"/></svg>