<svg id="Layer_2" data-name="Layer 2" xmlns="http://www.w3.org/2000/svg" xmlns:xlink="http://www.w3.org/1999/xlink" viewBox="0 0 100.85 93.2"><defs><style>.cls-1{fill:none;}.cls-2{fill:url(#linear-gradient);}.cls-3{clip-path:url(#clip-path);}.cls-4{fill:url(#linear-gradient-2);}.cls-5{clip-path:url(#clip-path-2);}.cls-6{fill:url(#linear-gradient-3);}.cls-7{fill:url(#radial-gradient);}.cls-8{clip-path:url(#clip-path-3);}.cls-9{fill:url(#radial-gradient-2);}.cls-10{fill:url(#radial-gradient-3);}.cls-11{fill:url(#linear-gradient-4);}.cls-12{clip-path:url(#clip-path-4);}.cls-13{fill:url(#linear-gradient-5);}.cls-14{fill:url(#linear-gradient-6);}</style><linearGradient id="linear-gradient" x1="25.42" y1="27.34" x2="75.42" y2="27.34" gradientUnits="userSpaceOnUse"><stop offset="0" stop-color="#553dde"/><stop offset="0.49" stop-color="#842bde"/><stop offset="1" stop-color="#df6fff"/></linearGradient><clipPath id="clip-path"><path id="_1_mask" data-name="1 mask" class="cls-1" d="M40,53.06l-4.55-2.62a20,20,0,0,1-10-17.34V21.68a.2.2,0,0,1,.1-.18l9.89-5.7V44.68A10,10,0,0,0,40,53.06Z"/></clipPath><linearGradient id="linear-gradient-2" x1="37.52" y1="53.4" x2="37.52" y2="15.8" gradientUnits="userSpaceOnUse"><stop offset="0" stop-color="#fff" stop-opacity="0"/><stop offset="0.49" stop-color="#fff" stop-opacity="0.5"/><stop offset="1" stop-color="#fff" stop-opacity="0"/></linearGradient><clipPath id="clip-path-2"><path id="_2_mask" data-name="2 mask" class="cls-1" d="M60.06,1.56A10,10,0,0,0,55.41,10V44.66a10,10,0,0,1-10,10h-.07l-.57,0h-.06l-.46,0-.36,0a8.1,8.1,0,0,1-1-.2h0l-.63-.19-.62-.23a11.56,11.56,0,0,1-1.22-.61L40,53.1a.05.05,0,0,1,0,0,10,10,0,0,1-4.58-8.4V33.11a10,10,0,0,0,5,8.67l2,1.15a2,2,0,0,0,3-1.73V10.37a.6.6,0,0,1,.3-.52Z"/></clipPath><linearGradient id="linear-gradient-3" x1="57.55" y1="44.66" x2="57.55" y2="1.24" xlink:href="#linear-gradient-2"/><radialGradient id="radial-gradient" cx="35.12" cy="46.01" r="20.7" gradientUnits="userSpaceOnUse"><stop offset="0" stop-color="#00032d" stop-opacity="0.4"/><stop offset="0.48" stop-color="#00032d" stop-opacity="0.15"/><stop offset="1" stop-color="#00032d" stop-opacity="0"/></radialGradient><clipPath id="clip-path-3"><path id="_3_mask" data-name="3 mask" class="cls-1" d="M75.42,10V15.8a20,20,0,0,1-10,17.31l-10,5.78V27.34l5-2.89a10,10,0,0,0,5-8.66V13.48a2,2,0,0,0-3-1.73l-7,4V10a10,10,0,0,1,4.65-8.44l.36-.21.3-.17L61,1a8.43,8.43,0,0,1,1.2-.5l.05,0,.61-.17h0c.19,0,.38-.1.57-.13S64,.1,64.25.07l.51,0h0l.61,0h0A10,10,0,0,1,75.42,10Z"/></clipPath><radialGradient id="radial-gradient-2" cx="57.04" cy="5.91" r="23.54" xlink:href="#radial-gradient"/><radialGradient id="radial-gradient-3" cx="54.83" cy="33.64" r="22.02" xlink:href="#radial-gradient"/><linearGradient id="linear-gradient-4" x1="71.75" y1="19.02" x2="63.11" y2="10.31" xlink:href="#radial-gradient"/><clipPath id="clip-path-4"><path id="_3.1_mask" data-name="3.1 mask" class="cls-1" d="M75.42,10V15.8a20,20,0,0,1-10,17.31l-10,5.78V27.34l5-2.89.07-.05,9.7-5.6.42-.24A10,10,0,0,0,75.42,10Z"/></clipPath><linearGradient id="linear-gradient-5" x1="65.42" y1="27.67" x2="65.42" y2="10.01" xlink:href="#linear-gradient-2"/><linearGradient id="linear-gradient-6" x1="10.84" y1="102.5" x2="92.15" y2="55.56" gradientUnits="userSpaceOnUse"><stop offset="0" stop-color="#270645"/><stop offset="1" stop-color="#4c1083"/></linearGradient></defs><title>uptick-app_full-logo_vertical_positive_transparent</title><g id="uptick-app_mark" data-name="uptick-app mark"><path id="Shape" class="cls-2" d="M60.42,1.35l-14.7,8.5a.59.59,0,0,0-.31.52V41.2a2,2,0,0,1-3,1.73l-2-1.15a10,10,0,0,1-5-8.67v-17a.2.2,0,0,0-.3-.18l-9.4,5.42a.61.61,0,0,0-.3.52V33.1a20,20,0,0,0,10,17.34l5,2.88a10,10,0,0,0,15-8.66V38.89l10-5.78a20,20,0,0,0,10-17.31V10A10,10,0,0,0,60.42,1.35Zm0,23.1-5,2.89V15.79l7-4a2,2,0,0,1,3,1.73v2.31A10,10,0,0,1,60.41,24.45Z"/><g id="Effects"><g id="_1" data-name="1"><g class="cls-3"><path class="cls-4" d="M40,53.08a9.92,9.92,0,0,1-3.72-3.88,10.81,10.81,0,0,1-1.17-5.32c0-3.59-.08-7.18-.05-10.77v-.36h.37l-.36.36c0-2.88,0-5.77.1-8.65s.13-5.77.27-8.66c.13,2.89.21,5.77.26,8.66s.06,5.77.09,8.65v.36h-.37l.36-.36c0,3.59,0,7.18-.05,10.77A10.22,10.22,0,0,0,40,53.08Z"/></g></g><g id="_2" data-name="2"><g class="cls-5"><g id="border"><path class="cls-6" d="M60.06,1.56a10.25,10.25,0,0,0-3.5,4.2,9.62,9.62,0,0,0-.77,2.62,14.66,14.66,0,0,0-.09,2.74c.06,3.73.06,7.46.09,11.18L55.7,33.48c-.06,3.73-.13,7.45-.29,11.18-.15-3.73-.23-7.45-.29-11.18L55,22.3c0-3.72,0-7.45.09-11.18a15.86,15.86,0,0,1,.19-2.82,10.24,10.24,0,0,1,.91-2.7A10,10,0,0,1,60.06,1.56Z"/></g><path id="shadow" class="cls-7" d="M60.06,1.56A10,10,0,0,0,55.41,10V44.66a10,10,0,0,1-10,10h-.07l-.57,0h-.06l-.46,0-.36,0a8.1,8.1,0,0,1-1-.2h0l-.63-.19-.62-.23a11.56,11.56,0,0,1-1.22-.61L40,53.1a.05.05,0,0,1,0,0,10,10,0,0,1-4.58-8.4V33.11a10,10,0,0,0,5,8.67l2,1.15a2,2,0,0,0,3-1.73V10.37a.6.6,0,0,1,.3-.52Z"/></g></g><g id="_3" data-name="3"><g class="cls-8"><g id="shadow_top_bottom" data-name="shadow top&amp;bottom"><path class="cls-9" d="M75.42,10V15.8a20,20,0,0,1-10,17.31l-10,5.78V27.34l5-2.89a10,10,0,0,0,5-8.66V13.48a2,2,0,0,0-3-1.73l-7,4V10a10,10,0,0,1,4.65-8.44l.36-.21.3-.17L61,1a8.43,8.43,0,0,1,1.2-.5l.05,0,.61-.17h0c.19,0,.38-.1.57-.13S64,.1,64.25.07l.51,0h0l.61,0h0A10,10,0,0,1,75.42,10Z"/><path class="cls-10" d="M75.42,10V15.8a20,20,0,0,1-10,17.31l-10,5.78V27.34l5-2.89a10,10,0,0,0,5-8.66V13.48a2,2,0,0,0-3-1.73l-7,4V10a10,10,0,0,1,4.65-8.44l.36-.21.3-.17L61,1a8.43,8.43,0,0,1,1.2-.5l.05,0,.61-.17h0c.19,0,.38-.1.57-.13S64,.1,64.25.07l.51,0h0l.61,0h0A10,10,0,0,1,75.42,10Z"/></g><g id="shadow_right" data-name="shadow right"><path class="cls-11" d="M75.41,10a10,10,0,0,1-4.81,8.55l-.42.24-9.74,5.63a10,10,0,0,0,5-8.64V13.48a2,2,0,0,0-3-1.73l-7,4V10a10,10,0,0,1,4.65-8.44l.36-.21.3-.17L61,1a8.43,8.43,0,0,1,1.2-.5l.05,0,.61-.17h0c.19,0,.38-.1.57-.13S64,.1,64.25.07l.51,0h0l.61,0h0a9.58,9.58,0,0,1,1.93.2l.09,0a9.63,9.63,0,0,1,1,.25,4.34,4.34,0,0,1,.47.16,4.22,4.22,0,0,1,.45.18l.44.2.43.22.42.24.41.26L71.4,2a10,10,0,0,1,4,6.94s0,0,0,0C75.39,9.32,75.41,9.67,75.41,10Z"/></g><g id="_3.1" data-name="3.1"><g class="cls-12"><g id="border-2" data-name="border"><path class="cls-13" d="M75.41,10a9.64,9.64,0,0,1-2.1,6.59,9.75,9.75,0,0,1-2.69,2.34l-3,1.77c-2,1.13-4,2.29-6.06,3.4s-4.07,2.21-6.16,3.23c1.93-1.29,3.9-2.52,5.87-3.73s4-2.37,6-3.55l3-1.71A10.26,10.26,0,0,0,75.41,10Z"/></g></g></g></g></g></g></g><path class="cls-14" d="M13.55,81.91a2.27,2.27,0,0,1-2.26,2.26H6.77a2.26,2.26,0,0,1-2.25-2.26V70.62H0V81.91a6.78,6.78,0,0,0,6.77,6.77h4.52a6.78,6.78,0,0,0,6.77-6.77V70.62H13.55Z"/><path class="cls-14" d="M64,77.39v4.52a6.78,6.78,0,0,0,6.77,6.77h9V84.17h-9a2.27,2.27,0,0,1-2.26-2.26V77.39a2.27,2.27,0,0,1,2.26-2.26h9V70.62h-9A6.78,6.78,0,0,0,64,77.39Z"/><path class="cls-14" d="M32.36,70.62H27.85a6.78,6.78,0,0,0-6.78,6.77V93.2h4.52V88.68h6.77a6.78,6.78,0,0,0,6.77-6.77V77.39A6.78,6.78,0,0,0,32.36,70.62Zm2.26,11.29a2.26,2.26,0,0,1-2.26,2.26H25.59V77.39a2.26,2.26,0,0,1,2.26-2.26h4.51a2.26,2.26,0,0,1,2.26,2.26Z"/><path class="cls-14" d="M46.66,66.1H42.14V81.91a6.78,6.78,0,0,0,6.78,6.77h4.51V84.17H48.92a2.26,2.26,0,0,1-2.26-2.26V75.13h6.77V70.62H46.66Z"/><rect class="cls-14" x="56.44" y="70.62" width="4.52" height="18.06"/><path class="cls-14" d="M100.85,70.62H96.33v2.26a2.26,2.26,0,0,1-2.26,2.25H87.3V70.62H82.78V88.68H87.3v-9H94A2.39,2.39,0,0,1,96.33,82v6.65h4.52V82a6.86,6.86,0,0,0-1.77-4.6,6.72,6.72,0,0,0,1.77-4.55Z"/></svg>