<svg id="Layer_2" data-name="Layer 2" xmlns="http://www.w3.org/2000/svg" xmlns:xlink="http://www.w3.org/1999/xlink" viewBox="0 0 151.59 40"><defs><style>.cls-1{fill:none;}.cls-2{fill:url(#linear-gradient);}.cls-3{clip-path:url(#clip-path);}.cls-4{fill:url(#linear-gradient-2);}.cls-5{clip-path:url(#clip-path-2);}.cls-6{fill:url(#linear-gradient-3);}.cls-7{fill:url(#radial-gradient);}.cls-8{clip-path:url(#clip-path-3);}.cls-9{fill:url(#radial-gradient-2);}.cls-10{fill:url(#radial-gradient-3);}.cls-11{fill:url(#linear-gradient-4);}.cls-12{clip-path:url(#clip-path-4);}.cls-13{fill:url(#linear-gradient-5);}.cls-14{fill:url(#linear-gradient-6);}</style><linearGradient id="linear-gradient" y1="20" x2="36.58" y2="20" gradientUnits="userSpaceOnUse"><stop offset="0" stop-color="#553dde"/><stop offset="0.49" stop-color="#842bde"/><stop offset="1" stop-color="#df6fff"/></linearGradient><clipPath id="clip-path"><path id="_1_mask" data-name="1 mask" class="cls-1" d="M10.65,38.81,7.32,36.9A14.62,14.62,0,0,1,0,24.21V15.86a.16.16,0,0,1,.07-.13l7.24-4.17V32.68A7.27,7.27,0,0,0,10.65,38.81Z"/></clipPath><linearGradient id="linear-gradient-2" x1="8.8" y1="39.14" x2="8.8" y2="11.56" gradientUnits="userSpaceOnUse"><stop offset="0" stop-color="#fff" stop-opacity="0"/><stop offset="0.49" stop-color="#fff" stop-opacity="0.5"/><stop offset="1" stop-color="#fff" stop-opacity="0"/></linearGradient><clipPath id="clip-path-2"><path id="_2_mask" data-name="2 mask" class="cls-1" d="M25.34,1.14a7.3,7.3,0,0,0-3.4,6.18V32.67A7.33,7.33,0,0,1,14.62,40h-.51l-.34,0-.26,0a6.1,6.1,0,0,1-.72-.14h0l-.46-.14-.45-.17A9.17,9.17,0,0,1,11,39l-.28-.17h0a7.3,7.3,0,0,1-3.35-6.15V24.22A7.32,7.32,0,0,0,11,30.56l1.46.84a1.45,1.45,0,0,0,2.19-1.26V7.59a.47.47,0,0,1,.22-.39Z"/></clipPath><linearGradient id="linear-gradient-3" x1="23.45" y1="32.67" x2="23.45" y2="0.82" xlink:href="#linear-gradient-2"/><radialGradient id="radial-gradient" cx="-29.25" cy="34.44" r="15.59" gradientTransform="translate(35.51 0.2) scale(0.97 0.97)" gradientUnits="userSpaceOnUse"><stop offset="0" stop-color="#00032d" stop-opacity="0.4"/><stop offset="0.48" stop-color="#00032d" stop-opacity="0.15"/><stop offset="1" stop-color="#00032d" stop-opacity="0"/></radialGradient><clipPath id="clip-path-3"><path id="_3_mask" data-name="3 mask" class="cls-1" d="M36.58,7.33v4.23a14.62,14.62,0,0,1-7.32,12.66l-7.31,4.23V20l3.66-2.11a7.32,7.32,0,0,0,3.65-6.34V9.86A1.45,1.45,0,0,0,27.06,8.6l-5.12,3V7.32a7.3,7.3,0,0,1,3.4-6.18L25.6,1l.22-.13.23-.11a5.65,5.65,0,0,1,.88-.37h0l.45-.13h0c.14,0,.28-.07.42-.09A5,5,0,0,1,28.4.05l.38,0h.47A7.34,7.34,0,0,1,36.58,7.33Z"/></clipPath><radialGradient id="radial-gradient-2" cx="-12.74" cy="4.25" r="17.73" xlink:href="#radial-gradient"/><radialGradient id="radial-gradient-3" cx="-14.41" cy="25.13" r="16.58" xlink:href="#radial-gradient"/><linearGradient id="linear-gradient-4" x1="33.89" y1="13.91" x2="27.57" y2="7.54" gradientTransform="matrix(1, 0, 0, 1, 0, 0)" xlink:href="#radial-gradient"/><clipPath id="clip-path-4"><path id="_3.1_mask" data-name="3.1 mask" class="cls-1" d="M36.58,7.33v4.23a14.62,14.62,0,0,1-7.32,12.66l-7.31,4.23V20l3.66-2.11,0,0,7.09-4.1.31-.17A7.31,7.31,0,0,0,36.58,7.33Z"/></clipPath><linearGradient id="linear-gradient-5" x1="29.27" y1="20.33" x2="29.27" y2="7.32" xlink:href="#linear-gradient-2"/><linearGradient id="linear-gradient-6" x1="61.59" y1="42.85" x2="142.9" y2="-4.09" gradientUnits="userSpaceOnUse"><stop offset="0" stop-color="#270645"/><stop offset="1" stop-color="#4c1083"/></linearGradient></defs><title>uptick-app_full-logo_horizontal_positive_transparent</title><g id="uptick-app_mark" data-name="uptick-app mark"><path id="Shape" class="cls-2" d="M25.6,1,14.84,7.2a.46.46,0,0,0-.22.38V30.14a1.46,1.46,0,0,1-2.19,1.26L11,30.56a7.31,7.31,0,0,1-3.66-6.34V11.81a.14.14,0,0,0-.22-.12l-6.87,4A.42.42,0,0,0,0,16v8.19A14.63,14.63,0,0,0,7.32,36.9L11,39a7.31,7.31,0,0,0,11-6.34V28.45l7.32-4.23a14.63,14.63,0,0,0,7.31-12.66V7.33A7.32,7.32,0,0,0,25.6,1Zm0,16.9L21.94,20V11.55l5.12-3a1.46,1.46,0,0,1,2.19,1.26v1.69A7.32,7.32,0,0,1,25.6,17.89Z"/><g id="Effects"><g id="_1" data-name="1"><g class="cls-3"><path class="cls-4" d="M10.66,38.83A7.22,7.22,0,0,1,7.89,36,8,8,0,0,1,7,32.1c0-2.63-.08-5.25,0-7.88v-.36h.36L7,24.22c0-2.11,0-4.22.1-6.33s.13-4.22.27-6.33c.14,2.11.21,4.22.26,6.33s.06,4.22.09,6.33v.36H7.31l.36-.36c0,2.63,0,5.25,0,7.88a7.46,7.46,0,0,0,.62,3.74A7.7,7.7,0,0,0,10.66,38.83Z"/></g></g><g id="_2" data-name="2"><g class="cls-5"><g id="border"><path class="cls-6" d="M25.34,1.14a7.55,7.55,0,0,0-2.52,3.09,7.06,7.06,0,0,0-.54,1.91,11.05,11.05,0,0,0-.05,2c.06,2.72.05,5.45.08,8.17s0,5.46-.08,8.18-.14,5.45-.29,8.18c-.16-2.73-.23-5.45-.29-8.18s-.06-5.45-.09-8.18,0-5.45.09-8.17a8.43,8.43,0,0,1,.84-4.06A7.27,7.27,0,0,1,25.34,1.14Z"/></g><path id="shadow" class="cls-7" d="M25.34,1.14a7.3,7.3,0,0,0-3.4,6.18V32.67A7.33,7.33,0,0,1,14.62,40h-.51l-.34,0-.26,0a6.1,6.1,0,0,1-.72-.14h0l-.46-.14-.45-.17A9.17,9.17,0,0,1,11,39l-.28-.17h0a7.3,7.3,0,0,1-3.35-6.15V24.22A7.32,7.32,0,0,0,11,30.56l1.46.84a1.45,1.45,0,0,0,2.19-1.26V7.59a.47.47,0,0,1,.22-.39Z"/></g></g><g id="_3" data-name="3"><g class="cls-8"><g id="shadow_top_bottom" data-name="shadow top&amp;bottom"><path class="cls-9" d="M36.58,7.33v4.23a14.62,14.62,0,0,1-7.32,12.66l-7.31,4.23V20l3.66-2.11a7.32,7.32,0,0,0,3.65-6.34V9.86A1.45,1.45,0,0,0,27.06,8.6l-5.12,3V7.32a7.3,7.3,0,0,1,3.4-6.18L25.6,1l.22-.13.23-.11a5.65,5.65,0,0,1,.88-.37h0l.45-.13h0c.14,0,.28-.07.42-.09A5,5,0,0,1,28.4.05l.38,0h.47A7.34,7.34,0,0,1,36.58,7.33Z"/><path class="cls-10" d="M36.58,7.33v4.23a14.62,14.62,0,0,1-7.32,12.66l-7.31,4.23V20l3.66-2.11a7.32,7.32,0,0,0,3.65-6.34V9.86A1.45,1.45,0,0,0,27.06,8.6l-5.12,3V7.32a7.3,7.3,0,0,1,3.4-6.18L25.6,1l.22-.13.23-.11a5.65,5.65,0,0,1,.88-.37h0l.45-.13h0c.14,0,.28-.07.42-.09A5,5,0,0,1,28.4.05l.38,0h.47A7.34,7.34,0,0,1,36.58,7.33Z"/></g><g id="shadow_right" data-name="shadow right"><path class="cls-11" d="M36.57,7.32a7.32,7.32,0,0,1-3.52,6.26l-.31.17-7.12,4.12a7.31,7.31,0,0,0,3.63-6.32V9.86A1.45,1.45,0,0,0,27.06,8.6l-5.12,3V7.32a7.3,7.3,0,0,1,3.4-6.18L25.6,1l.22-.13.23-.11a5.65,5.65,0,0,1,.88-.37h0l.45-.13h0c.14,0,.28-.07.42-.09A5,5,0,0,1,28.4.05c.13,0,.25,0,.38,0h0l.45,0h0a6.62,6.62,0,0,1,1.41.15h.07a7.15,7.15,0,0,1,.7.18c.12,0,.23.08.35.12l.33.13.32.15.31.16a2.48,2.48,0,0,1,.31.18,2.49,2.49,0,0,1,.3.19l.28.2a7.33,7.33,0,0,1,2.9,5.08s0,0,0,0C36.55,6.82,36.57,7.07,36.57,7.32Z"/></g><g id="_3.1" data-name="3.1"><g class="cls-12"><g id="border-2" data-name="border"><path class="cls-13" d="M36.57,7.32a6.94,6.94,0,0,1-1.48,4.87,7.37,7.37,0,0,1-2,1.76l-2.19,1.29c-1.47.84-2.95,1.68-4.45,2.47s-3,1.58-4.54,2.29c1.39-1,2.82-1.89,4.25-2.79s2.9-1.77,4.36-2.62l2.21-1.26a7.23,7.23,0,0,0,1.89-1.51A7.77,7.77,0,0,0,36.57,7.32Z"/></g></g></g></g></g></g></g><path class="cls-14" d="M64.3,22.26A2.27,2.27,0,0,1,62,24.52H57.52a2.27,2.27,0,0,1-2.26-2.26V11H50.75V22.26A6.78,6.78,0,0,0,57.52,29H62a6.78,6.78,0,0,0,6.77-6.77V11H64.3Z"/><path class="cls-14" d="M114.72,17.74v4.52A6.78,6.78,0,0,0,121.49,29h9V24.52h-9a2.27,2.27,0,0,1-2.26-2.26V17.74a2.27,2.27,0,0,1,2.26-2.26h9V11h-9A6.78,6.78,0,0,0,114.72,17.74Z"/><path class="cls-14" d="M83.11,11H78.59a6.78,6.78,0,0,0-6.77,6.77V33.55h4.52V29h6.77a6.78,6.78,0,0,0,6.77-6.77V17.74A6.78,6.78,0,0,0,83.11,11Zm2.26,11.29a2.26,2.26,0,0,1-2.26,2.26H76.34V17.74a2.26,2.26,0,0,1,2.25-2.26h4.52a2.26,2.26,0,0,1,2.26,2.26Z"/><path class="cls-14" d="M97.41,6.45H92.89V22.26A6.78,6.78,0,0,0,99.67,29h4.51V24.52H99.67a2.26,2.26,0,0,1-2.26-2.26V15.48h6.77V11H97.41Z"/><rect class="cls-14" x="107.19" y="10.97" width="4.52" height="18.06"/><path class="cls-14" d="M151.59,11h-4.51v2.26a2.26,2.26,0,0,1-2.26,2.25h-6.77V11h-4.52V29h4.52V20h6.65a2.39,2.39,0,0,1,2.38,2.38V29h4.51V22.38a6.85,6.85,0,0,0-1.76-4.6,6.71,6.71,0,0,0,1.76-4.55Z"/></svg>