<svg id="Layer_2" data-name="Layer 2" xmlns="http://www.w3.org/2000/svg" xmlns:xlink="http://www.w3.org/1999/xlink" viewBox="0 0 230 100"><defs><style>.cls-1{fill:none;}.cls-2{fill:url(#radial-gradient);}.cls-3{fill:url(#linear-gradient);}.cls-4{clip-path:url(#clip-path);}.cls-5{fill:url(#linear-gradient-2);}.cls-6{clip-path:url(#clip-path-2);}.cls-7{fill:url(#linear-gradient-3);}.cls-8{fill:url(#radial-gradient-2);}.cls-9{clip-path:url(#clip-path-3);}.cls-10{fill:url(#radial-gradient-3);}.cls-11{fill:url(#radial-gradient-4);}.cls-12{fill:url(#linear-gradient-4);}.cls-13{clip-path:url(#clip-path-4);}.cls-14{fill:url(#linear-gradient-5);}.cls-15{fill-rule:evenodd;fill:url(#gradient_logotype_dark_bg);}</style><radialGradient id="radial-gradient" cx="268.34" cy="116.54" r="113.7" gradientTransform="translate(-212.24 -21.35) scale(1.22 0.61)" gradientUnits="userSpaceOnUse"><stop offset="0" stop-color="#270645"/><stop offset="1" stop-color="#180031"/></radialGradient><linearGradient id="linear-gradient" x1="39.08" y1="50" x2="75.66" y2="50" gradientUnits="userSpaceOnUse"><stop offset="0" stop-color="#553dde"/><stop offset="0.49" stop-color="#842bde"/><stop offset="1" stop-color="#df6fff"/></linearGradient><clipPath id="clip-path"><path id="_1_mask" data-name="1 mask" class="cls-1" d="M49.73,68.81,46.4,66.9a14.64,14.64,0,0,1-7.32-12.69V45.86a.16.16,0,0,1,.07-.13l7.24-4.17V62.68A7.29,7.29,0,0,0,49.73,68.81Z"/></clipPath><linearGradient id="linear-gradient-2" x1="47.88" y1="69.14" x2="47.88" y2="41.56" gradientUnits="userSpaceOnUse"><stop offset="0" stop-color="#fff" stop-opacity="0"/><stop offset="0.49" stop-color="#fff" stop-opacity="0.5"/><stop offset="1" stop-color="#fff" stop-opacity="0"/></linearGradient><clipPath id="clip-path-2"><path id="_2_mask" data-name="2 mask" class="cls-1" d="M64.42,31.14A7.3,7.3,0,0,0,61,37.32V62.67A7.33,7.33,0,0,1,53.7,70h-.51l-.33,0-.27,0a5.57,5.57,0,0,1-.71-.14h0l-.46-.14-.45-.17a9.17,9.17,0,0,1-.89-.44l-.28-.17h0a7.3,7.3,0,0,1-3.35-6.15V54.22a7.32,7.32,0,0,0,3.66,6.34l1.46.84a1.45,1.45,0,0,0,2.19-1.26V37.59a.47.47,0,0,1,.22-.39Z"/></clipPath><linearGradient id="linear-gradient-3" x1="62.53" y1="62.67" x2="62.53" y2="30.82" xlink:href="#linear-gradient-2"/><radialGradient id="radial-gradient-2" cx="-327.96" cy="74.73" r="20.7" gradientTransform="translate(286.09 8.99) scale(0.73 0.73)" gradientUnits="userSpaceOnUse"><stop offset="0" stop-color="#00032d" stop-opacity="0.4"/><stop offset="0.48" stop-color="#00032d" stop-opacity="0.15"/><stop offset="1" stop-color="#00032d" stop-opacity="0"/></radialGradient><clipPath id="clip-path-3"><path id="_3_mask" data-name="3 mask" class="cls-1" d="M75.66,37.33v4.23a14.62,14.62,0,0,1-7.32,12.66L61,58.45V50l3.66-2.11a7.32,7.32,0,0,0,3.65-6.34V39.86a1.45,1.45,0,0,0-2.19-1.26L61,41.55V37.32a7.3,7.3,0,0,1,3.4-6.18l.26-.15.22-.13.23-.11a5.65,5.65,0,0,1,.88-.37h0l.45-.13h0c.13,0,.27-.07.41-.09a5.62,5.62,0,0,1,.57-.09l.37,0h.47A7.34,7.34,0,0,1,75.66,37.33Z"/></clipPath><radialGradient id="radial-gradient-3" cx="-306.04" cy="34.63" r="23.54" xlink:href="#radial-gradient-2"/><radialGradient id="radial-gradient-4" cx="-308.26" cy="62.37" r="22.02" xlink:href="#radial-gradient-2"/><linearGradient id="linear-gradient-4" x1="72.97" y1="43.91" x2="66.65" y2="37.54" gradientTransform="matrix(1, 0, 0, 1, 0, 0)" xlink:href="#radial-gradient-2"/><clipPath id="clip-path-4"><path id="_3.1_mask" data-name="3.1 mask" class="cls-1" d="M75.66,37.33v4.23a14.62,14.62,0,0,1-7.32,12.66L61,58.45V50l3.66-2.11,0,0,7.09-4.1.31-.17A7.31,7.31,0,0,0,75.66,37.33Z"/></clipPath><linearGradient id="linear-gradient-5" x1="68.35" y1="50.33" x2="68.35" y2="37.32" xlink:href="#linear-gradient-2"/><linearGradient id="gradient_logotype_dark_bg" x1="191.46" y1="41.23" x2="90.17" y2="58.84" gradientUnits="userSpaceOnUse"><stop offset="0" stop-color="#fff"/><stop offset="1" stop-color="#e4ddfe"/></linearGradient></defs><title>uptick-app_full-logo_horizontal_negative</title><rect class="cls-2" y="0.06" width="230" height="99.94"/><g id="uptick-app_mark" data-name="uptick-app mark"><path id="Shape" class="cls-3" d="M64.68,31,53.93,37.2a.45.45,0,0,0-.23.38V60.14a1.46,1.46,0,0,1-2.19,1.26l-1.46-.84a7.33,7.33,0,0,1-3.66-6.34V41.81a.14.14,0,0,0-.22-.12l-6.87,4a.42.42,0,0,0-.22.38v8.19A14.65,14.65,0,0,0,46.4,66.9L50.05,69a7.31,7.31,0,0,0,11-6.34V58.45l7.32-4.23a14.66,14.66,0,0,0,7.32-12.66V37.33A7.32,7.32,0,0,0,64.68,31Zm0,16.9L61,50V41.55l5.12-2.95a1.46,1.46,0,0,1,2.2,1.26v1.69A7.33,7.33,0,0,1,64.68,47.89Z"/><g id="Effects"><g id="_1" data-name="1"><g class="cls-4"><path class="cls-5" d="M49.74,68.83A7.22,7.22,0,0,1,47,66a8,8,0,0,1-.89-3.91c0-2.63-.08-5.25,0-7.88v-.36h.36l-.36.36c0-2.11,0-4.22.1-6.33s.14-4.22.27-6.33c.14,2.11.21,4.22.26,6.33s.06,4.22.09,6.33v.36h-.37l.36-.36c0,2.63,0,5.25,0,7.88a7.46,7.46,0,0,0,.62,3.74A7.7,7.7,0,0,0,49.74,68.83Z"/></g></g><g id="_2" data-name="2"><g class="cls-6"><g id="border"><path class="cls-7" d="M64.42,31.14a7.55,7.55,0,0,0-2.52,3.09,7.06,7.06,0,0,0-.54,1.91,11.05,11.05,0,0,0,0,2c.06,2.72,0,5.45.08,8.17s0,5.46-.08,8.18-.14,5.45-.29,8.18c-.16-2.73-.23-5.45-.29-8.18s-.06-5.45-.09-8.18,0-5.45.09-8.17a8.43,8.43,0,0,1,.84-4.06A7.27,7.27,0,0,1,64.42,31.14Z"/></g><path id="shadow" class="cls-8" d="M64.42,31.14A7.3,7.3,0,0,0,61,37.32V62.67A7.33,7.33,0,0,1,53.7,70h-.51l-.33,0-.27,0a5.57,5.57,0,0,1-.71-.14h0l-.46-.14-.45-.17a9.17,9.17,0,0,1-.89-.44l-.28-.17h0a7.3,7.3,0,0,1-3.35-6.15V54.22a7.32,7.32,0,0,0,3.66,6.34l1.46.84a1.45,1.45,0,0,0,2.19-1.26V37.59a.47.47,0,0,1,.22-.39Z"/></g></g><g id="_3" data-name="3"><g class="cls-9"><g id="shadow_top_bottom" data-name="shadow top&amp;bottom"><path class="cls-10" d="M75.66,37.33v4.23a14.62,14.62,0,0,1-7.32,12.66L61,58.45V50l3.66-2.11a7.32,7.32,0,0,0,3.65-6.34V39.86a1.45,1.45,0,0,0-2.19-1.26L61,41.55V37.32a7.3,7.3,0,0,1,3.4-6.18l.26-.15.22-.13.23-.11a5.65,5.65,0,0,1,.88-.37h0l.45-.13h0c.13,0,.27-.07.41-.09a5.62,5.62,0,0,1,.57-.09l.37,0h.47A7.34,7.34,0,0,1,75.66,37.33Z"/><path class="cls-11" d="M75.66,37.33v4.23a14.62,14.62,0,0,1-7.32,12.66L61,58.45V50l3.66-2.11a7.32,7.32,0,0,0,3.65-6.34V39.86a1.45,1.45,0,0,0-2.19-1.26L61,41.55V37.32a7.3,7.3,0,0,1,3.4-6.18l.26-.15.22-.13.23-.11a5.65,5.65,0,0,1,.88-.37h0l.45-.13h0c.13,0,.27-.07.41-.09a5.62,5.62,0,0,1,.57-.09l.37,0h.47A7.34,7.34,0,0,1,75.66,37.33Z"/></g><g id="shadow_right" data-name="shadow right"><path class="cls-12" d="M75.65,37.32a7.32,7.32,0,0,1-3.52,6.26l-.31.17L64.7,47.87a7.31,7.31,0,0,0,3.63-6.32V39.86a1.45,1.45,0,0,0-2.19-1.26L61,41.55V37.32a7.3,7.3,0,0,1,3.4-6.18l.26-.15.22-.13.23-.11a5.65,5.65,0,0,1,.88-.37h0l.45-.13h0c.13,0,.27-.07.41-.09a5.21,5.21,0,0,1,.57-.09c.12,0,.24,0,.37,0h0l.44,0h0a6.78,6.78,0,0,1,1.42.15h.06a7.15,7.15,0,0,1,.7.18c.12,0,.23.08.35.12l.33.13.32.15.31.16a1.92,1.92,0,0,1,.31.18,2.49,2.49,0,0,1,.3.19l.29.2a7.32,7.32,0,0,1,2.89,5.08s0,0,0,0C75.63,36.82,75.65,37.07,75.65,37.32Z"/></g><g id="_3.1" data-name="3.1"><g class="cls-13"><g id="border-2" data-name="border"><path class="cls-14" d="M75.65,37.32a6.94,6.94,0,0,1-1.48,4.87,7.37,7.37,0,0,1-2,1.76L70,45.24c-1.47.84-3,1.68-4.45,2.47S62.56,49.29,61,50c1.39-1,2.82-1.89,4.26-2.79s2.89-1.77,4.35-2.62l2.21-1.26a7.23,7.23,0,0,0,1.89-1.51A7.77,7.77,0,0,0,75.65,37.32Z"/></g></g></g></g></g></g></g><path class="cls-15" d="M122.62,45.3h-4.5a2.48,2.48,0,0,0-2.5,2.5v7h7a2.48,2.48,0,0,0,2.5-2.5V47.8A2.48,2.48,0,0,0,122.62,45.3Zm47.2-4.1v4H161a2.48,2.48,0,0,0-2.5,2.5v4.5a2.48,2.48,0,0,0,2.5,2.5h8.8v4H161a6.49,6.49,0,0,1-6.5-6.5V47.7a6.55,6.55,0,0,1,6.5-6.5Zm7.6,0v4.5h7a2.48,2.48,0,0,0,2.5-2.5v-2h4v2a7.09,7.09,0,0,1-1.7,4.4l-.2.2.2.2a6.56,6.56,0,0,1,1.7,4.4v6.4h-4V52.4a2.58,2.58,0,0,0-2.6-2.6h-6.9v9h-4V41.2Zm-26.5,0V58.8h-4V41.2Zm-14.2-4.5v4.6h6.8v4h-6.8v7a2.48,2.48,0,0,0,2.5,2.5h4.3v4h-4.3a6.49,6.49,0,0,1-6.5-6.5V36.7Zm-42.2,4.6v11A2.48,2.48,0,0,0,97,54.8h4.5a2.48,2.48,0,0,0,2.5-2.5v-11h4v11a6.49,6.49,0,0,1-6.5,6.5H97a6.49,6.49,0,0,1-6.5-6.5v-11Zm28.1-.1a6.55,6.55,0,0,1,6.5,6.5v4.6a6.49,6.49,0,0,1-6.5,6.5h-7v4.5h-4V47.7a6.49,6.49,0,0,1,6.5-6.5Z"/></svg>