<svg id="Layer_2" data-name="Layer 2" xmlns="http://www.w3.org/2000/svg" xmlns:xlink="http://www.w3.org/1999/xlink" viewBox="0 0 100.85 27.09"><defs><style>.cls-1{fill:url(#linear-gradient);}</style><linearGradient id="linear-gradient" x1="10.84" y1="36.4" x2="92.15" y2="-10.54" gradientUnits="userSpaceOnUse"><stop offset="0" stop-color="#270645"/><stop offset="1" stop-color="#4c1083"/></linearGradient></defs><title>uptick-app_logotype_negative</title><path class="cls-1" d="M13.55,15.8a2.26,2.26,0,0,1-2.26,2.26H6.77A2.26,2.26,0,0,1,4.52,15.8V4.52H0V15.8a6.78,6.78,0,0,0,6.77,6.78h4.52a6.78,6.78,0,0,0,6.77-6.78V4.52H13.55Z"/><path class="cls-1" d="M64,11.29V15.8a6.78,6.78,0,0,0,6.77,6.78h9V18.06h-9a2.26,2.26,0,0,1-2.26-2.26V11.29A2.26,2.26,0,0,1,70.74,9h9V4.52h-9A6.78,6.78,0,0,0,64,11.29Z"/><path class="cls-1" d="M32.36,4.52H27.85a6.78,6.78,0,0,0-6.78,6.77v15.8h4.52V22.58h6.77a6.78,6.78,0,0,0,6.77-6.78V11.29A6.77,6.77,0,0,0,32.36,4.52ZM34.62,15.8a2.26,2.26,0,0,1-2.26,2.26H25.59V11.29A2.26,2.26,0,0,1,27.85,9h4.51a2.26,2.26,0,0,1,2.26,2.26Z"/><path class="cls-1" d="M46.66,0H42.14V15.8a6.79,6.79,0,0,0,6.78,6.78h4.51V18.06H48.92a2.26,2.26,0,0,1-2.26-2.26V9h6.77V4.52H46.66Z"/><rect class="cls-1" x="56.44" y="4.52" width="4.52" height="18.06"/><path class="cls-1" d="M100.85,4.52H96.33V6.77A2.26,2.26,0,0,1,94.07,9H87.3V4.52H82.78V22.58H87.3v-9H94a2.39,2.39,0,0,1,2.38,2.38v6.65h4.52V15.93a6.84,6.84,0,0,0-1.77-4.6,6.74,6.74,0,0,0,1.77-4.56Z"/></svg>