<svg id="Layer_2" data-name="Layer 2" xmlns="http://www.w3.org/2000/svg" xmlns:xlink="http://www.w3.org/1999/xlink" viewBox="0 0 100 100"><defs><style>.cls-1{fill:none;}.cls-2{fill:url(#radial-gradient);}.cls-3{fill:url(#linear-gradient);}.cls-4{clip-path:url(#clip-path);}.cls-5{fill:url(#linear-gradient-2);}.cls-6{clip-path:url(#clip-path-2);}.cls-7{fill:url(#linear-gradient-3);}.cls-8{fill:url(#radial-gradient-2);}.cls-9{clip-path:url(#clip-path-3);}.cls-10{fill:url(#radial-gradient-3);}.cls-11{fill:url(#radial-gradient-4);}.cls-12{fill:url(#linear-gradient-4);}.cls-13{clip-path:url(#clip-path-4);}.cls-14{fill:url(#linear-gradient-5);}</style><radialGradient id="radial-gradient" cx="50" cy="50" r="64.48" gradientUnits="userSpaceOnUse"><stop offset="0" stop-color="#270645"/><stop offset="1" stop-color="#180031"/></radialGradient><linearGradient id="linear-gradient" x1="20.14" y1="51.28" x2="77.31" y2="51.28" gradientUnits="userSpaceOnUse"><stop offset="0" stop-color="#553dde"/><stop offset="0.49" stop-color="#842bde"/><stop offset="1" stop-color="#df6fff"/></linearGradient><clipPath id="clip-path"><path id="_1_mask" data-name="1 mask" class="cls-1" d="M36.78,80.68l-5.2-3A22.87,22.87,0,0,1,20.14,57.86l0-13.06a.23.23,0,0,1,.11-.2l11.31-6.52v33A11.39,11.39,0,0,0,36.78,80.68Z"/></clipPath><linearGradient id="linear-gradient-2" x1="34" y1="81.02" x2="34" y2="38.08" gradientUnits="userSpaceOnUse"><stop offset="0" stop-color="#fff" stop-opacity="0"/><stop offset="0.49" stop-color="#fff" stop-opacity="0.5"/><stop offset="1" stop-color="#fff" stop-opacity="0"/></linearGradient><clipPath id="clip-path-2"><path id="_2_mask" data-name="2 mask" class="cls-1" d="M59.75,21.8a11.38,11.38,0,0,0-5.32,9.65V71.08A11.45,11.45,0,0,1,43,82.53h-.08l-.66,0H42.2c-.19,0-.36,0-.53-.06l-.41,0a10.09,10.09,0,0,1-1.12-.23h0l-.72-.22-.71-.26c-.46-.2-.92-.44-1.39-.7l-.44-.25s0,0,0,0a11.38,11.38,0,0,1-5.24-9.6V57.87a11.48,11.48,0,0,0,5.72,9.92l2.29,1.31a2.29,2.29,0,0,0,3.43-2V31.87a.68.68,0,0,1,.34-.59Z"/></clipPath><linearGradient id="linear-gradient-3" x1="56.9" y1="71.08" x2="56.9" y2="21.49" xlink:href="#linear-gradient-2"/><radialGradient id="radial-gradient-2" cx="2.08" cy="66.61" r="24.37" gradientTransform="translate(29.21 7.91) scale(0.97 0.97)" gradientUnits="userSpaceOnUse"><stop offset="0" stop-color="#00032d" stop-opacity="0.4"/><stop offset="0.48" stop-color="#00032d" stop-opacity="0.15"/><stop offset="1" stop-color="#00032d" stop-opacity="0"/></radialGradient><clipPath id="clip-path-3"><path id="_3_mask" data-name="3 mask" class="cls-1" d="M77.31,31.47l0,6.61A22.83,22.83,0,0,1,65.86,57.87L54.43,64.48V51.28L60.15,48a11.42,11.42,0,0,0,5.71-9.9V35.43a2.29,2.29,0,0,0-3.43-2l-8,4.62V31.45a11.38,11.38,0,0,1,5.32-9.65l.41-.24a2.9,2.9,0,0,1,.34-.19,3.9,3.9,0,0,1,.35-.19,11.12,11.12,0,0,1,1.38-.57l.05,0c.23-.07.47-.14.7-.19l0,0c.22-.05.44-.11.66-.14a8.08,8.08,0,0,1,.88-.14c.19,0,.38-.05.58-.06h0l.7,0h0A11.46,11.46,0,0,1,77.31,31.47Z"/></clipPath><radialGradient id="radial-gradient-3" cx="27.88" cy="19.41" r="27.7" xlink:href="#radial-gradient-2"/><radialGradient id="radial-gradient-4" cx="25.27" cy="52.05" r="25.92" xlink:href="#radial-gradient-2"/><linearGradient id="linear-gradient-4" x1="73.11" y1="41.76" x2="63.23" y2="31.8" gradientTransform="matrix(1, 0, 0, 1, 0, 0)" xlink:href="#radial-gradient-2"/><clipPath id="clip-path-4"><path id="_3.1_mask" data-name="3.1 mask" class="cls-1" d="M77.31,31.47l0,6.61A22.83,22.83,0,0,1,65.86,57.87L54.43,64.48V51.28L60.14,48l.08,0,11.09-6.41.48-.27A11.43,11.43,0,0,0,77.31,31.47Z"/></clipPath><linearGradient id="linear-gradient-5" x1="65.87" y1="51.6" x2="65.87" y2="31.46" xlink:href="#linear-gradient-2"/></defs><title>uptick-upp_logomark_social-app-icon_negative</title><rect class="cls-2" width="100" height="100"/><g id="uptick-app_mark" data-name="uptick-app mark"><path id="Shape" class="cls-3" d="M60.16,21.57l-16.82,9.7a.71.71,0,0,0-.34.6V67.12a2.29,2.29,0,0,1-3.43,2l-2.28-1.32a11.44,11.44,0,0,1-5.72-9.91V38.48a.23.23,0,0,0-.34-.2L20.5,44.47a.68.68,0,0,0-.35.6v12.8A22.87,22.87,0,0,0,31.57,77.69L37.29,81a11.43,11.43,0,0,0,17.15-9.91V64.48l11.44-6.61A22.85,22.85,0,0,0,77.3,38.08V31.47A11.43,11.43,0,0,0,60.16,21.57Zm0,26.41-5.72,3.3V38.07l8-4.62a2.29,2.29,0,0,1,3.43,2v2.64A11.46,11.46,0,0,1,60.15,48Z"/><g id="Effects"><g id="_1" data-name="1"><g class="cls-4"><path class="cls-5" d="M36.8,80.7a11.32,11.32,0,0,1-4.23-4.45,12.26,12.26,0,0,1-1.32-6.06c0-4.11-.08-8.21-.05-12.32v-.36h.37l-.36.36c0-3.3,0-6.59.1-9.89s.14-6.6.27-9.9c.14,3.3.21,6.6.26,9.9s.06,6.6.09,9.89v.36h-.37l.36-.36c0,4.11,0,8.21-.05,12.32A11.64,11.64,0,0,0,36.8,80.7Z"/></g></g><g id="_2" data-name="2"><g class="cls-6"><g id="border"><path class="cls-7" d="M59.75,21.8a11.5,11.5,0,0,0-4.93,7.79,18.27,18.27,0,0,0-.1,3.15l.08,12.78L54.72,58.3c-.06,4.26-.14,8.52-.29,12.78-.16-4.26-.23-8.52-.29-12.78l-.09-12.78.09-12.78a18.53,18.53,0,0,1,.22-3.23,11.86,11.86,0,0,1,1-3.08A11.47,11.47,0,0,1,59.75,21.8Z"/></g><path id="shadow" class="cls-8" d="M59.75,21.8a11.38,11.38,0,0,0-5.32,9.65V71.08A11.45,11.45,0,0,1,43,82.53h-.08l-.66,0H42.2c-.19,0-.36,0-.53-.06l-.41,0a10.09,10.09,0,0,1-1.12-.23h0l-.72-.22-.71-.26c-.46-.2-.92-.44-1.39-.7l-.44-.25s0,0,0,0a11.38,11.38,0,0,1-5.24-9.6V57.87a11.48,11.48,0,0,0,5.72,9.92l2.29,1.31a2.29,2.29,0,0,0,3.43-2V31.87a.68.68,0,0,1,.34-.59Z"/></g></g><g id="_3" data-name="3"><g class="cls-9"><g id="shadow_top_bottom" data-name="shadow top&amp;bottom"><path class="cls-10" d="M77.31,31.47l0,6.61A22.83,22.83,0,0,1,65.86,57.87L54.43,64.48V51.28L60.15,48a11.42,11.42,0,0,0,5.71-9.9V35.43a2.29,2.29,0,0,0-3.43-2l-8,4.62V31.45a11.38,11.38,0,0,1,5.32-9.65l.41-.24a2.9,2.9,0,0,1,.34-.19,3.9,3.9,0,0,1,.35-.19,11.12,11.12,0,0,1,1.38-.57l.05,0c.23-.07.47-.14.7-.19l0,0c.22-.05.44-.11.66-.14a8.08,8.08,0,0,1,.88-.14c.19,0,.38-.05.58-.06h0l.7,0h0A11.46,11.46,0,0,1,77.31,31.47Z"/><path class="cls-11" d="M77.31,31.47l0,6.61A22.83,22.83,0,0,1,65.86,57.87L54.43,64.48V51.28L60.15,48a11.42,11.42,0,0,0,5.71-9.9V35.43a2.29,2.29,0,0,0-3.43-2l-8,4.62V31.45a11.38,11.38,0,0,1,5.32-9.65l.41-.24a2.9,2.9,0,0,1,.34-.19,3.9,3.9,0,0,1,.35-.19,11.12,11.12,0,0,1,1.38-.57l.05,0c.23-.07.47-.14.7-.19l0,0c.22-.05.44-.11.66-.14a8.08,8.08,0,0,1,.88-.14c.19,0,.38-.05.58-.06h0l.7,0h0A11.46,11.46,0,0,1,77.31,31.47Z"/></g><g id="shadow_right" data-name="shadow right"><path class="cls-12" d="M77.29,31.46a11.42,11.42,0,0,1-5.5,9.78l-.48.27L60.18,48a11.43,11.43,0,0,0,5.68-9.88V35.43a2.29,2.29,0,0,0-3.43-2l-8,4.62V31.45a11.4,11.4,0,0,1,5.31-9.65l.42-.24.34-.19a2.31,2.31,0,0,1,.35-.18,9.82,9.82,0,0,1,1.38-.58l.05,0c.23-.07.47-.14.7-.19l0,0c.22-.05.44-.11.65-.14s.59-.11.88-.14.39-.05.59-.06h0l.7,0h0a10.91,10.91,0,0,1,2.21.23l.1,0a9.86,9.86,0,0,1,1.1.29,4.27,4.27,0,0,1,.54.18,3.66,3.66,0,0,1,.51.21,4.46,4.46,0,0,1,.5.22,4.59,4.59,0,0,1,.49.26l.48.27c.16.09.31.19.47.3s.3.2.45.32a11.44,11.44,0,0,1,4.53,7.93s0,0,0,.05C77.27,30.67,77.29,31.07,77.29,31.46Z"/></g><g id="_3.1" data-name="3.1"><g class="cls-13"><g id="border-2" data-name="border"><path class="cls-14" d="M77.29,31.46A11.2,11.2,0,0,1,71.8,41.63l-3.43,2c-2.31,1.3-4.6,2.63-6.92,3.9s-4.65,2.54-7,3.73c2.21-1.46,4.47-2.85,6.73-4.23s4.56-2.7,6.84-4l3.45-2a11.68,11.68,0,0,0,5.84-9.58Z"/></g></g></g></g></g></g></g></svg>