<?xml version="1.0" encoding="utf-8"?>
<!-- Generator: Adobe Illustrator 25.0.1, SVG Export Plug-In . SVG Version: 6.00 Build 0)  -->
<svg version="1.1" id="图层_4" xmlns="http://www.w3.org/2000/svg" xmlns:xlink="http://www.w3.org/1999/xlink" x="0px" y="0px"
	 viewBox="0 0 1100 500" style="enable-background:new 0 0 1100 500;" xml:space="preserve">
<style type="text/css">
	.st0{fill:url(#SVGID_1_);}
	.st1{fill:url(#SVGID_2_);}
	.st2{fill:url(#SVGID_3_);}
	.st3{fill:#FFFFFF;}
	.st4{fill:#B927ED;}
</style>
<rect x="0" width="1100" height="500"/>
<linearGradient id="SVGID_1_" gradientUnits="userSpaceOnUse" x1="276.9456" y1="676.0658" x2="276.9456" y2="903.6942" gradientTransform="matrix(1 0 0 1 0 -463.8898)">
	<stop  offset="0" style="stop-color:#B927ED"/>
	<stop  offset="1" style="stop-color:#6C06FC"/>
</linearGradient>
<path class="st0" d="M282.5,445.4l-78.2-80.9c-1.2-1.3-3.3-1.3-4.6-0.1l-24.8,24c-1.3,1.2-3.3,1.2-4.6-0.1L136.1,353
	c-1.2-1.3-1.2-3.3,0.1-4.6l160.2-154.9c1.3-1.2,3.3-1.2,4.6,0.1l116.9,120.9c1.2,1.3,1.2,3.3-0.1,4.6L287.1,445.5
	C285.8,446.8,283.8,446.7,282.5,445.4z M244.4,325.9l39.4,40.8c1.2,1.3,3.3,1.3,4.6,0.1l50.6-48.9c1.3-1.2,1.3-3.3,0.1-4.6
	l-39.4-40.8c-1.2-1.3-3.3-1.3-4.6-0.1l-50.6,48.9C243.1,322.5,243.1,324.6,244.4,325.9z"/>
<linearGradient id="SVGID_2_" gradientUnits="userSpaceOnUse" x1="203.2012" y1="58.4948" x2="203.2012" y2="274.8295">
	<stop  offset="0.4835" style="stop-color:#FFFFFF"/>
	<stop  offset="1" style="stop-color:#F5CBF8"/>
</linearGradient>
<path class="st1" d="M296.6,139.9l-102.8,99.3c-1.3,1.2-3.3,1.2-4.6-0.1l-39.4-40.8c-1.2-1.3-1.2-3.3,0.1-4.6l85.1-82.3
	c2.1-2,0.7-5.6-2.2-5.6h-70.9c-0.8,0-1.6,0.3-2.2,0.9l-88.5,85.6c-1.3,1.2-1.3,3.3-0.1,4.6l117,121c1.2,1.3,3.3,1.3,4.6,0.1
	L335.3,180c1.3-1.2,1.3-3.3,0.1-4.6L301.2,140C300,138.7,297.9,138.7,296.6,139.9z"/>
<linearGradient id="SVGID_3_" gradientUnits="userSpaceOnUse" x1="215.1356" y1="58.3552" x2="215.1356" y2="275.7696">
	<stop  offset="0.4835" style="stop-color:#FFFFFF"/>
	<stop  offset="1" style="stop-color:#F5CBF8"/>
</linearGradient>
<path class="st2" d="M246.8,83.7l-29.4-30.4c-0.6-0.6-1.6-0.7-2.3,0l-31.5,30.4c-1,1-0.3,2.8,1.1,2.8h60.9
	C247,86.5,247.8,84.7,246.8,83.7z"/>
<g>
	<path class="st3" d="M561.3,269.5h-10.9c-1.3,0-2.4,1.1-2.4,2.4v53.9l-42.4-55.3c-0.4-0.6-1.1-0.9-1.9-0.9h-8.5
		c-1.3,0-2.4,1.1-2.4,2.4V353c0,1.3,1.1,2.4,2.4,2.4h10.9c1.3,0,2.4-1.1,2.4-2.4v-53.4l42,54.9c0.4,0.6,1.1,0.9,1.9,0.9h8.9
		c1.3,0,2.4-1.1,2.4-2.4v-81.1C563.7,270.6,562.6,269.5,561.3,269.5z"/>
	<path class="st3" d="M638.5,294h-54.4c-1.3,0-2.4,1.1-2.4,2.4V353c0,1.3,1.1,2.4,2.4,2.4h54.4c1.3,0,2.4-1.1,2.4-2.4v-8.5
		c0-1.3-1.1-2.4-2.4-2.4H596V330h42.6c1.3,0,2.4-1.1,2.4-2.4v-31.3C640.9,295.1,639.8,294,638.5,294z M596,316.7v-8.9h30.8v8.9H596z
		"/>
	<path class="st3" d="M693.6,294h-20.3v-11.4c0-1.3-1.1-2.4-2.4-2.4h-9.4c-1.3,0-2.4,1.1-2.4,2.4V294h-9.1v11.3
		c0,1.3,1.1,2.4,2.4,2.4h6.6V353c0,1.3,1.1,2.4,2.4,2.4h31.8c1.3,0,2.4-1.1,2.4-2.4v-8.5c0-1.3-1.1-2.4-2.4-2.4h-19.9v-34.4h20.3
		c1.3,0,2.4-1.1,2.4-2.4v-9C695.9,295.1,694.9,294,693.6,294z"/>
	<path class="st3" d="M780,294h-9.4c-1.3,0-2.4,1.1-2.4,2.4v45.7h-15.7v-45.7c0-1.3-1.1-2.4-2.4-2.4h-9.4c-1.3,0-2.4,1.1-2.4,2.4
		v45.7h-15.7v-45.7c0-1.3-1.1-2.4-2.4-2.4h-9c-1.3,0-2.4,1.1-2.4,2.4V353c0,1.3,1.1,2.4,2.4,2.4h70.9l0.1-58.9
		c0-0.6-0.2-1.2-0.7-1.7C781.2,294.3,780.6,294,780,294z"/>
	<path class="st3" d="M852.9,294h-52.2c-1.3,0-2.4,1.1-2.4,2.4V353c0,1.3,1.1,2.4,2.4,2.4h52.2c1.3,0,2.4-1.1,2.4-2.4v-56.6
		C855.2,295.1,854.2,294,852.9,294z M812.5,342.1v-34.4h28.6v34.4H812.5z"/>
	<path class="st3" d="M910.2,294h-36.1c-1.3,0-2.4,1.1-2.4,2.4V353c0,1.3,1.1,2.4,2.4,2.4h9.9c1.3,0,2.4-1.1,2.4-2.4v-45.2h23.9
		c1.3,0,2.4-1.1,2.4-2.4v-9C912.6,295.1,911.5,294,910.2,294z"/>
	<path class="st3" d="M979.7,351.6l-21.9-29.3l19.9-24.4c0.6-0.7,0.7-1.7,0.3-2.5c-0.4-0.8-1.2-1.4-2.1-1.4h-10.7
		c-0.7,0-1.4,0.3-1.8,0.9l-17.1,20.5h-8.5v-31.9c0-1.3-1.1-2.4-2.4-2.4h-9.9c-1.3,0-2.4,1.1-2.4,2.4V353c0,1.3,1.1,2.4,2.4,2.4h9.9
		c1.3,0,2.4-1.1,2.4-2.4v-23.4h8l18.9,24.8c0.4,0.6,1.2,0.9,1.9,0.9h11.2c0.9,0,1.7-0.5,2.1-1.3
		C980.3,353.2,980.2,352.3,979.7,351.6z"/>
</g>
<g>
	<path class="st3" d="M554.1,211.5h-36.5c-0.5,0-0.9-0.4-0.9-0.9v-80.1c0-0.5-0.4-0.9-0.9-0.9h-23.7c-0.5,0-0.9,0.4-0.9,0.9v103.7
		c0,0.5,0.4,0.9,0.9,0.9h86.5c0.5,0,0.9-0.4,0.9-0.9V130.5c0-0.5-0.4-0.9-0.9-0.9h-22.9c-0.5,0-0.9,0.4-0.9,0.9v80.1
		C555,211.1,554.6,211.5,554.1,211.5z"/>
	<path class="st3" d="M601.2,249.3h22.2c0.5,0,0.9-0.4,0.9-0.9v-12.6c0-0.5,0.4-0.9,0.9-0.9h49c0.5,0,0.9-0.4,0.9-0.9v-75.5
		c0-0.5-0.4-0.9-0.9-0.9h-72.9c-0.5,0-0.9,0.4-0.9,0.9v89.8C600.4,249,600.8,249.3,601.2,249.3z M651.7,181.1v30.8
		c0,0.5-0.4,0.9-0.9,0.9h-25.6c-0.5,0-0.9-0.4-0.9-0.9v-30.8c0-0.5,0.4-0.9,0.9-0.9h25.6C651.3,180.3,651.7,180.6,651.7,181.1z"/>
	<path class="st3" d="M717.6,141.9h-21.2c-0.5,0-0.9,0.4-0.9,0.9V157c0,0.5-0.4,0.9-0.9,0.9h-8.6c-0.5,0-0.9,0.4-0.9,0.9v20.7
		c0,0.5,0.4,0.9,0.9,0.9h8.6c0.5,0,0.9,0.4,0.9,0.9v53.1c0,0.5,0.4,0.9,0.9,0.9h46.8c0.5,0,0.9-0.4,0.9-0.9v-20.1
		c0-0.5-0.4-0.9-0.9-0.9h-23.9c-0.5,0-0.9-0.4-0.9-0.9v-31.3c0-0.5,0.4-0.9,0.9-0.9h24.4c0.5,0,0.9-0.4,0.9-0.9v-20.7
		c0-0.5-0.4-0.9-0.9-0.9h-24.4c-0.5,0-0.9-0.4-0.9-0.9v-14.2C718.5,142.3,718.1,141.9,717.6,141.9z"/>
	<path class="st3" d="M756.7,179.2h8.5c0.5,0,0.9,0.4,0.9,0.9v54.1c0,0.5,0.4,0.9,0.9,0.9h22.3c0.5,0,0.9-0.4,0.9-0.9v-75.5
		c0-0.5-0.4-0.9-0.9-0.9h-32.5c-0.5,0-0.9,0.4-0.9,0.9v19.6C755.9,178.8,756.2,179.2,756.7,179.2z"/>
	<path class="st3" d="M815,235.1h70.4c0.5,0,0.9-0.4,0.9-0.9v-20.1c0-0.5-0.4-0.9-0.9-0.9h-48c-0.5,0-0.9-0.4-0.9-0.9v-31.7
		c0-0.5,0.4-0.9,0.9-0.9h48c0.5,0,0.9-0.4,0.9-0.9v-20.2c0-0.5-0.4-0.9-0.9-0.9H815c-0.5,0-0.9,0.4-0.9,0.9v75.5
		C814.1,234.7,814.5,235.1,815,235.1z"/>
	<path class="st3" d="M950.9,193.3l27.8-34.1c0.5-0.6,0.1-1.4-0.7-1.4h-25.7c-0.3,0-0.5,0.1-0.7,0.3l-19.9,24
		c-0.2,0.2-0.4,0.3-0.7,0.3h-3.7c-0.5,0-0.9-0.4-0.9-0.9v-37.8c0-0.5-0.4-0.9-0.9-0.9h-21.6c-0.5,0-0.9,0.4-0.9,0.9v90.4
		c0,0.5,0.4,0.9,0.9,0.9h21.6c0.5,0,0.9-0.4,0.9-0.9v-28c0-0.5,0.4-0.9,0.9-0.9h3c0.3,0,0.5,0.1,0.7,0.3l22,29
		c0.2,0.2,0.4,0.3,0.7,0.3h25.8c0.7,0,1.1-0.8,0.7-1.4l-29.5-39.3C950.6,194.1,950.6,193.6,950.9,193.3z"/>
</g>
<path class="st4" d="M756.4,142.3l16.4-16.5c0.3-0.3,0.9-0.3,1.2,0l16.5,16.5c0.5,0.5,0.2,1.5-0.6,1.5H757
	C756.2,143.8,755.8,142.9,756.4,142.3z"/>
</svg>
