<?xml version="1.0" encoding="utf-8"?>
<!-- Generator: Adobe Illustrator 25.0.1, SVG Export Plug-In . SVG Version: 6.00 Build 0)  -->
<svg version="1.1" id="图层_1" xmlns="http://www.w3.org/2000/svg" xmlns:xlink="http://www.w3.org/1999/xlink" x="0px" y="0px"
	 viewBox="0 0 500 500" style="enable-background:new 0 0 500 500;" xml:space="preserve">
<style type="text/css">
	.st0{fill:url(#SVGID_1_);}
	.st1{fill:url(#SVGID_2_);}
	.st2{fill:url(#SVGID_3_);}
</style>
<rect width="500" height="500"/>
<g>
	
		<linearGradient id="SVGID_1_" gradientUnits="userSpaceOnUse" x1="282.5811" y1="676.4021" x2="282.5811" y2="904.288" gradientTransform="matrix(1 0 0 1 0 -463.8898)">
		<stop  offset="0" style="stop-color:#B927ED"/>
		<stop  offset="1" style="stop-color:#6C06FC"/>
	</linearGradient>
	<path class="st0" d="M288.2,446l-78.3-81c-1.2-1.3-3.3-1.3-4.6-0.1l-24.8,24c-1.3,1.2-3.3,1.2-4.6-0.1l-34.3-35.4
		c-1.2-1.3-1.2-3.3,0.1-4.6L302,193.8c1.3-1.2,3.3-1.2,4.6,0.1l117,121.1c1.2,1.3,1.2,3.3-0.1,4.6L292.7,446.1
		C291.5,447.4,289.4,447.3,288.2,446z M250,326.3l39.5,40.9c1.2,1.3,3.3,1.3,4.6,0.1l50.7-49c1.3-1.2,1.3-3.3,0.1-4.6l-39.5-40.9
		c-1.2-1.3-3.3-1.3-4.6-0.1l-50.7,49C248.7,323,248.7,325,250,326.3z"/>
	<linearGradient id="SVGID_2_" gradientUnits="userSpaceOnUse" x1="208.7532" y1="58.6573" x2="208.7532" y2="275.2367">
		<stop  offset="0.4835" style="stop-color:#FFFFFF"/>
		<stop  offset="1" style="stop-color:#F5CBF8"/>
	</linearGradient>
	<path class="st1" d="M302.3,140.2l-102.9,99.4c-1.3,1.2-3.3,1.2-4.6-0.1l-39.5-40.9c-1.2-1.3-1.2-3.3,0.1-4.6l85.2-82.4
		c2.1-2,0.7-5.6-2.3-5.6h-71c-0.8,0-1.6,0.3-2.3,0.9l-88.6,85.7c-1.3,1.2-1.3,3.3-0.1,4.6l117.2,121.2c1.2,1.3,3.3,1.3,4.6,0.1
		L341,180.3c1.3-1.2,1.3-3.3,0.1-4.6l-34.2-35.4C305.6,139,303.6,138.9,302.3,140.2z"/>
	<linearGradient id="SVGID_3_" gradientUnits="userSpaceOnUse" x1="220.7012" y1="58.5176" x2="220.7012" y2="276.1778">
		<stop  offset="0.4835" style="stop-color:#FFFFFF"/>
		<stop  offset="1" style="stop-color:#F5CBF8"/>
	</linearGradient>
	<path class="st2" d="M252.4,83.9l-29.4-30.4c-0.6-0.6-1.6-0.7-2.3,0l-31.6,30.4c-1,1-0.3,2.8,1.1,2.8h61
		C252.6,86.7,253.4,84.9,252.4,83.9z"/>
</g>
</svg>
