<?xml version="1.0" encoding="utf-8"?>
<!-- Generator: Adobe Illustrator 25.0.1, SVG Export Plug-In . SVG Version: 6.00 Build 0)  -->
<svg version="1.1" id="图层_2" xmlns="http://www.w3.org/2000/svg" xmlns:xlink="http://www.w3.org/1999/xlink" x="0px" y="0px"
	 viewBox="0 0 1400 500" style="enable-background:new 0 0 1400 500;" xml:space="preserve">
<style type="text/css">
	.st0{fill:url(#SVGID_1_);}
	.st1{fill:url(#SVGID_2_);}
	.st2{fill:url(#SVGID_3_);}
	.st3{fill:#B927ED;}
</style>
<g>
	<linearGradient id="SVGID_1_" gradientUnits="userSpaceOnUse" x1="283.0761" y1="415.0079" x2="283.0761" y2="196.2523">
		<stop  offset="0" style="stop-color:#000000"/>
		<stop  offset="0.9992" style="stop-color:#2A005A"/>
	</linearGradient>
	<path class="st0" d="M288.7,447l-78.5-81.2c-1.2-1.3-3.3-1.3-4.6-0.1l-24.9,24.1c-1.3,1.2-3.3,1.2-4.6-0.1l-34.4-35.5
		c-1.2-1.3-1.2-3.3,0.1-4.6l160.7-155.4c1.3-1.2,3.3-1.2,4.6,0.1l117.3,121.4c1.2,1.3,1.2,3.3-0.1,4.6L293.3,447.1
		C292,448.3,289.9,448.3,288.7,447z M250.4,327l39.6,41c1.2,1.3,3.3,1.3,4.6,0.1l50.8-49.1c1.3-1.2,1.3-3.3,0.1-4.6l-39.6-41
		c-1.2-1.3-3.3-1.3-4.6-0.1l-50.8,49.1C249.2,323.6,249.1,325.7,250.4,327z"/>
	<linearGradient id="SVGID_2_" gradientUnits="userSpaceOnUse" x1="209.0728" y1="58.6708" x2="209.0728" y2="275.7648">
		<stop  offset="0" style="stop-color:#B927ED"/>
		<stop  offset="1" style="stop-color:#6C06FC"/>
	</linearGradient>
	<path class="st1" d="M302.8,140.4L199.7,240c-1.3,1.2-3.3,1.2-4.6-0.1l-39.6-41c-1.2-1.3-1.2-3.3,0.1-4.6l85.4-82.6
		c2.1-2,0.7-5.6-2.3-5.6h-71.2c-0.8,0-1.7,0.3-2.3,0.9L76.5,193c-1.3,1.2-1.3,3.3-0.1,4.6l117.4,121.5c1.2,1.3,3.3,1.3,4.6,0.1
		l143.2-138.6c1.3-1.2,1.3-3.3,0.1-4.6l-34.3-35.5C306.2,139.2,304.1,139.1,302.8,140.4z"/>
	<linearGradient id="SVGID_3_" gradientUnits="userSpaceOnUse" x1="221.0492" y1="58.5307" x2="221.0492" y2="276.7082">
		<stop  offset="0" style="stop-color:#B927ED"/>
		<stop  offset="1" style="stop-color:#6C06FC"/>
	</linearGradient>
	<path class="st2" d="M252.8,84l-29.5-30.5c-0.6-0.6-1.6-0.7-2.3,0l-31.6,30.5c-1.1,1-0.3,2.8,1.1,2.8h61.1
		C253,86.7,253.8,85,252.8,84z"/>
</g>
<g>
	<path d="M602.9,286.6h-59.4c-0.8,0-1.4-0.6-1.4-1.4V154.6c0-0.8-0.6-1.4-1.4-1.4H502c-0.8,0-1.4,0.6-1.4,1.4v169
		c0,0.8,0.6,1.4,1.4,1.4h141c0.8,0,1.4-0.6,1.4-1.4v-169c0-0.8-0.6-1.4-1.4-1.4h-37.3c-0.8,0-1.4,0.6-1.4,1.4v130.6
		C604.3,286,603.7,286.6,602.9,286.6z"/>
	<path d="M679.7,348.3h36.2c0.8,0,1.4-0.6,1.4-1.4v-20.5c0-0.8,0.6-1.4,1.4-1.4h79.9c0.8,0,1.4-0.6,1.4-1.4v-123
		c0-0.8-0.6-1.4-1.4-1.4H679.7c-0.8,0-1.4,0.6-1.4,1.4v146.3C678.3,347.6,678.9,348.3,679.7,348.3z M761.9,237.1v50.2
		c0,0.8-0.6,1.4-1.4,1.4h-41.7c-0.8,0-1.4-0.6-1.4-1.4v-50.2c0-0.8,0.6-1.4,1.4-1.4h41.7C761.2,235.7,761.9,236.3,761.9,237.1z"/>
	<path d="M869.2,173.3h-34.5c-0.8,0-1.4,0.6-1.4,1.4v23.1c0,0.8-0.6,1.4-1.4,1.4h-14c-0.8,0-1.4,0.6-1.4,1.4v33.7
		c0,0.8,0.6,1.4,1.4,1.4h14c0.8,0,1.4,0.6,1.4,1.4v86.5c0,0.8,0.6,1.4,1.4,1.4H911c0.8,0,1.4-0.6,1.4-1.4v-32.8
		c0-0.8-0.6-1.4-1.4-1.4h-39c-0.8,0-1.4-0.6-1.4-1.4v-50.9c0-0.8,0.6-1.4,1.4-1.4h39.8c0.8,0,1.4-0.6,1.4-1.4v-33.7
		c0-0.8-0.6-1.4-1.4-1.4H872c-0.8,0-1.4-0.6-1.4-1.4v-23.1C870.6,173.9,870,173.3,869.2,173.3z"/>
	<path d="M932.9,234h13.9c0.8,0,1.4,0.6,1.4,1.4v88.2c0,0.8,0.6,1.4,1.4,1.4H986c0.8,0,1.4-0.6,1.4-1.4v-123c0-0.8-0.6-1.4-1.4-1.4
		h-53c-0.8,0-1.4,0.6-1.4,1.4v32C931.5,233.4,932.2,234,932.9,234z"/>
	<path d="M1027.9,325h114.7c0.8,0,1.4-0.6,1.4-1.4v-32.8c0-0.8-0.6-1.4-1.4-1.4h-78.2c-0.8,0-1.4-0.6-1.4-1.4v-51.7
		c0-0.8,0.6-1.4,1.4-1.4h78.2c0.8,0,1.4-0.6,1.4-1.4v-33c0-0.8-0.6-1.4-1.4-1.4h-114.7c-0.8,0-1.4,0.6-1.4,1.4v123
		C1026.5,324.4,1027.1,325,1027.9,325z"/>
	<path d="M1249.3,257l45.3-55.5c0.7-0.9,0.1-2.3-1.1-2.3h-41.8c-0.4,0-0.8,0.2-1.1,0.5l-32.5,39.1c-0.3,0.3-0.7,0.5-1.1,0.5h-6.1
		c-0.8,0-1.4-0.6-1.4-1.4v-61.5c0-0.8-0.6-1.4-1.4-1.4H1173c-0.8,0-1.4,0.6-1.4,1.4v147.2c0,0.8,0.6,1.4,1.4,1.4h35.2
		c0.8,0,1.4-0.6,1.4-1.4V278c0-0.8,0.6-1.4,1.4-1.4h4.9c0.4,0,0.8,0.2,1.1,0.6l35.9,47.3c0.3,0.3,0.7,0.6,1.1,0.6h42.1
		c1.2,0,1.8-1.3,1.1-2.2l-48-64C1248.9,258.2,1248.9,257.5,1249.3,257z"/>
</g>
<path class="st3" d="M932.4,173.9l26.7-26.9c0.5-0.5,1.4-0.5,2,0l26.9,26.9c0.9,0.9,0.3,2.4-1,2.4h-53.6
	C932.2,176.3,931.5,174.8,932.4,173.9z"/>
</svg>
