<?xml version="1.0" encoding="utf-8"?>
<!-- Generator: Adobe Illustrator 25.0.1, SVG Export Plug-In . SVG Version: 6.00 Build 0)  -->
<svg version="1.1" id="Layer_2" xmlns="http://www.w3.org/2000/svg" xmlns:xlink="http://www.w3.org/1999/xlink" x="0px" y="0px"
	 viewBox="0 0 100.8 93.2" style="enable-background:new 0 0 100.8 93.2;" xml:space="preserve">
<style type="text/css">
	.st0{fill:url(#SVGID_1_);}
	.st1{fill:url(#SVGID_2_);}
	.st2{fill:url(#SVGID_3_);}
	.st3{fill:url(#SVGID_4_);}
	.st4{fill:url(#SVGID_5_);}
	.st5{fill:url(#SVGID_6_);}
	.st6{fill:url(#Shape_1_);}
	.st7{clip-path:url(#SVGID_8_);}
	.st8{fill:url(#SVGID_9_);}
	.st9{clip-path:url(#SVGID_11_);}
	.st10{fill:url(#SVGID_12_);}
	.st11{fill:url(#shadow_1_);}
	.st12{clip-path:url(#SVGID_14_);}
	.st13{fill:url(#SVGID_15_);}
	.st14{fill:url(#SVGID_16_);}
	.st15{fill:url(#SVGID_17_);}
	.st16{clip-path:url(#SVGID_19_);}
	.st17{fill:url(#SVGID_20_);}
</style>
<linearGradient id="SVGID_1_" gradientUnits="userSpaceOnUse" x1="-0.1246" y1="9.7727" x2="81.1854" y2="56.7127" gradientTransform="matrix(1 0 0 -1 0 93.2756)">
	<stop  offset="0" style="stop-color:#270645"/>
	<stop  offset="1" style="stop-color:#4C1083"/>
</linearGradient>
<path class="st0" d="M13.6,81.9c0,1.2-1,2.3-2.3,2.3H6.8c-1.2,0-2.3-1-2.2-2.3V70.6H0v11.3c0,3.7,3,6.8,6.8,6.8h4.5
	c3.7,0,6.8-3,6.8-6.8V70.6h-4.5V81.9z"/>
<linearGradient id="SVGID_2_" gradientUnits="userSpaceOnUse" x1="16.8253" y1="-19.5922" x2="98.1353" y2="27.3478" gradientTransform="matrix(1 0 0 -1 0 93.2756)">
	<stop  offset="0" style="stop-color:#270645"/>
	<stop  offset="1" style="stop-color:#4C1083"/>
</linearGradient>
<path class="st1" d="M64,77.4v4.5c0,3.7,3,6.8,6.8,6.8h9v-4.5h-9c-1.2,0-2.3-1-2.3-2.3v-4.5c0-1.2,1-2.3,2.3-2.3h9v-4.5h-9
	C67,70.6,64,73.7,64,77.4z"/>
<linearGradient id="SVGID_3_" gradientUnits="userSpaceOnUse" x1="5.7605" y1="-0.4256" x2="87.0704" y2="46.5144" gradientTransform="matrix(1 0 0 -1 0 93.2756)">
	<stop  offset="0" style="stop-color:#270645"/>
	<stop  offset="1" style="stop-color:#4C1083"/>
</linearGradient>
<path class="st2" d="M32.4,70.6h-4.5c-3.7,0-6.8,3-6.8,6.8v15.8h4.5v-4.5h6.8c3.7,0,6.8-3,6.8-6.8v-4.5
	C39.1,73.7,36.1,70.6,32.4,70.6z M34.6,81.9c0,1.2-1,2.3-2.3,2.3l0,0h-6.8v-6.8c0-1.2,1-2.3,2.3-2.3h0h4.5c1.2,0,2.3,1,2.3,2.3l0,0
	V81.9z"/>
<linearGradient id="SVGID_4_" gradientUnits="userSpaceOnUse" x1="9.2025" y1="-6.3879" x2="90.5125" y2="40.5521" gradientTransform="matrix(1 0 0 -1 0 93.2756)">
	<stop  offset="0" style="stop-color:#270645"/>
	<stop  offset="1" style="stop-color:#4C1083"/>
</linearGradient>
<path class="st3" d="M46.7,66.1h-4.5v15.8c0,3.7,3,6.8,6.8,6.8h4.5v-4.5h-4.5c-1.2,0-2.3-1-2.3-2.3l0,0v-6.8h6.8v-4.5h-6.8V66.1z"/>
<linearGradient id="SVGID_5_" gradientUnits="userSpaceOnUse" x1="12.9095" y1="-12.8091" x2="94.2195" y2="34.1309" gradientTransform="matrix(1 0 0 -1 0 93.2756)">
	<stop  offset="0" style="stop-color:#270645"/>
	<stop  offset="1" style="stop-color:#4C1083"/>
</linearGradient>
<rect x="56.4" y="70.6" class="st4" width="4.5" height="18.1"/>
<linearGradient id="SVGID_6_" gradientUnits="userSpaceOnUse" x1="21.1806" y1="-27.1364" x2="102.4906" y2="19.8036" gradientTransform="matrix(1 0 0 -1 0 93.2756)">
	<stop  offset="0" style="stop-color:#270645"/>
	<stop  offset="1" style="stop-color:#4C1083"/>
</linearGradient>
<path class="st5" d="M100.8,70.6h-4.5v2.3c0,1.2-1,2.3-2.3,2.2h-6.8v-4.5h-4.5v18.1h4.5v-9H94c1.3,0,2.3,1.1,2.3,2.3v6.7h4.5V82
	c0-1.7-0.6-3.3-1.8-4.6c1.1-1.2,1.8-2.9,1.8-4.6V70.6z"/>
<g>
	
		<linearGradient id="Shape_1_" gradientUnits="userSpaceOnUse" x1="25.118" y1="1361.63" x2="75.2282" y2="1361.63" gradientTransform="matrix(1 0 0 1 0 -1334)">
		<stop  offset="0" style="stop-color:#D300FD"/>
		<stop  offset="0.7462" style="stop-color:#7471FF"/>
		<stop  offset="1" style="stop-color:#00FDCF"/>
	</linearGradient>
	<path id="Shape_2_" class="st6" d="M60.3,1.5L45.5,10c-0.2,0.2-0.3,0.3-0.3,0.5v30.8c0,1.1-1,1.9-2.1,1.9c-0.4,0-0.7-0.2-1-0.3
		l-1.9-1.1c-3.1-1.8-5-5.1-5-8.7V16.3c0-0.2-0.2-0.2-0.2-0.2h-0.2l-9.3,5.5c-0.2,0.2-0.3,0.3-0.3,0.5v11.2c0,7.2,3.9,13.8,9.9,17.4
		l5,2.9c4.8,2.7,10.9,1.1,13.7-3.7c0.8-1.5,1.4-3.3,1.4-5v-5.8l9.9-5.8c6.2-3.6,9.9-10.2,9.9-17.2v-5.8c0-5.5-4.6-9.9-10.1-9.9
		C63.4,0.2,61.8,0.8,60.3,1.5z M60.3,24.7l-5,2.9V16l7-3.9c1-0.5,2.2-0.3,2.7,0.7c0.2,0.3,0.3,0.7,0.3,1v2.4
		C65.2,19.7,63.3,22.8,60.3,24.7L60.3,24.7z"/>
	<g id="Effects_2_">
		<g id="_1_2_">
			<g>
				<g>
					<g>
						<g>
							<defs>
								<path id="SVGID_7_" d="M39.8,53.5l-4.6-2.6C29,47.2,25.1,40.5,25.1,33.4V22c0-0.2,0-0.2,0.2-0.2l9.9-5.6V45
									C35.2,48.4,36.9,51.5,39.8,53.5z"/>
							</defs>
							<clipPath id="SVGID_8_">
								<use xlink:href="#SVGID_7_"  style="overflow:visible;"/>
							</clipPath>
							<g class="st7">
								
									<linearGradient id="SVGID_9_" gradientUnits="userSpaceOnUse" x1="37.3154" y1="1387.7168" x2="37.3154" y2="1350.0339" gradientTransform="matrix(1 0 0 1 0 -1334)">
									<stop  offset="0" style="stop-color:#FFFFFF;stop-opacity:0"/>
									<stop  offset="0.49" style="stop-color:#FFFFFF;stop-opacity:0.5"/>
									<stop  offset="1" style="stop-color:#FFFFFF;stop-opacity:0"/>
								</linearGradient>
								<path class="st8" d="M39.8,53.5c-1.7-1-2.9-2.4-3.7-3.9c-0.8-1.7-1.2-3.4-1.1-5.4c0-3.6-0.2-7.2,0-10.8V33h0.4l-0.4,0.4
									c0-2.9,0-5.8,0.2-8.7s0.2-5.8,0.3-8.7c0.2,2.9,0.3,5.8,0.3,8.7s0,5.8,0.2,8.7v0.4h-0.5l0.4-0.4c0,3.6,0,7.2,0,10.8
									C35.2,47.7,36.7,51.3,39.8,53.5z"/>
							</g>
						</g>
					</g>
				</g>
			</g>
		</g>
		<g id="_2_2_">
			<g>
				<g>
					<g>
						<g>
							<defs>
								<path id="SVGID_10_" d="M59.8,1.7c-2.9,1.8-4.7,5-4.7,8.4v34.7c0,5.5-4.4,9.9-9.9,9.9h-0.2h-0.6l0,0H44h-0.4
									c-0.3,0-0.7-0.2-1-0.2l0,0l-0.7-0.2l-0.5-0.2c-0.4-0.2-0.8-0.4-1.2-0.5l-0.4-0.3l0,0c-2.9-1.8-4.6-5-4.6-8.4V33.5
									c0,3.6,1.9,7,5,8.7l1.9,1.1c1,0.5,2.2,0.3,2.7-0.7c0.2-0.3,0.3-0.7,0.3-1V10.5c0-0.3,0.2-0.4,0.3-0.5L59.8,1.7z"/>
							</defs>
							<clipPath id="SVGID_11_">
								<use xlink:href="#SVGID_10_"  style="overflow:visible;"/>
							</clipPath>
							<g class="st9">
								<g id="border_2_">
									
										<linearGradient id="SVGID_12_" gradientUnits="userSpaceOnUse" x1="57.2822" y1="1378.9574" x2="57.2822" y2="1335.4417" gradientTransform="matrix(1 0 0 1 0 -1334)">
										<stop  offset="0" style="stop-color:#FFFFFF;stop-opacity:0"/>
										<stop  offset="0.49" style="stop-color:#FFFFFF;stop-opacity:0.5"/>
										<stop  offset="1" style="stop-color:#FFFFFF;stop-opacity:0"/>
									</linearGradient>
									<path class="st10" d="M59.8,1.7c-1.5,1.1-2.7,2.5-3.4,4.1c-0.4,0.8-0.7,1.7-0.8,2.6c-0.2,1-0.2,1.8-0.2,2.7
										c0,3.7,0,7.5,0.2,11.2l-0.2,11.2c0,3.7-0.2,7.5-0.3,11.2c-0.2-3.7-0.3-7.5-0.3-11.2l-0.2-11.2c0-3.7,0-7.5,0.2-11.2
										c0-1,0-1.9,0.2-2.7c0.2-1,0.4-1.8,1-2.7C56.9,4.1,58.2,2.7,59.8,1.7z"/>
								</g>
								
									<radialGradient id="shadow_1_" cx="34.8493" cy="1380.3105" r="20.7456" gradientTransform="matrix(1 0 0 1 0 -1334)" gradientUnits="userSpaceOnUse">
									<stop  offset="0" style="stop-color:#00032D;stop-opacity:0.4"/>
									<stop  offset="0.48" style="stop-color:#00032D;stop-opacity:0.15"/>
									<stop  offset="1" style="stop-color:#00032D;stop-opacity:0"/>
								</radialGradient>
								<path id="shadow_2_" class="st11" d="M59.8,1.7c-2.9,1.8-4.7,5-4.7,8.4v34.7c0,5.5-4.4,9.9-9.9,9.9h-0.2h-0.6l0,0H44h-0.4
									c-0.3,0-0.7-0.2-1-0.2l0,0l-0.7-0.2l-0.5-0.2c-0.4-0.2-0.8-0.4-1.2-0.5l-0.4-0.3l0,0c-2.9-1.8-4.6-5-4.6-8.4V33.5
									c0,3.6,1.9,7,5,8.7l1.9,1.1c1,0.5,2.2,0.3,2.7-0.7c0.2-0.3,0.3-0.7,0.3-1V10.5c0-0.3,0.2-0.4,0.3-0.5L59.8,1.7z"/>
							</g>
						</g>
					</g>
				</g>
			</g>
		</g>
		<g id="_3_2_">
			<g>
				<g>
					<g>
						<g>
							<defs>
								<path id="SVGID_13_" d="M75.3,10.3v5.8c0,7.2-3.9,13.8-9.9,17.2l-10.1,5.8V27.6l5-2.9c3.1-1.8,5-5.1,5-8.7v-2.2
									c0-1.1-1-1.9-2.1-1.9c-0.4,0-0.7,0.2-1,0.3l-7,3.9v-5.6c0-3.4,1.8-6.6,4.7-8.4l0.4-0.3l0.3-0.2l0.2-0.3
									C61.2,1,61.6,0.8,62,0.7l0,0l0.5-0.2l0,0c0.2,0,0.4-0.2,0.5-0.2c0.2,0,0.5-0.2,0.8-0.2h0.5l0,0h0.5l0,0
									C70.7,0.2,75.1,4.7,75.3,10.3z"/>
							</defs>
							<clipPath id="SVGID_14_">
								<use xlink:href="#SVGID_13_"  style="overflow:visible;"/>
							</clipPath>
							<g class="st12">
								<g id="shadow_top_bottom_2_">
									
										<radialGradient id="SVGID_15_" cx="56.8177" cy="1340.1221" r="23.5918" gradientTransform="matrix(1 0 0 1 0 -1334)" gradientUnits="userSpaceOnUse">
										<stop  offset="0" style="stop-color:#00032D;stop-opacity:0.4"/>
										<stop  offset="0.48" style="stop-color:#00032D;stop-opacity:0.15"/>
										<stop  offset="1" style="stop-color:#00032D;stop-opacity:0"/>
									</radialGradient>
									<path class="st13" d="M75.3,10.3v5.8c0,7.2-3.9,13.8-9.9,17.2l-10.1,5.8V27.6l5-2.9c3.1-1.8,5-5.1,5-8.7v-2.2
										c0-1.1-1-1.9-2.1-1.9c-0.4,0-0.7,0.2-1,0.3l-7,3.9v-5.6c0-3.4,1.8-6.6,4.7-8.4l0.4-0.3l0.3-0.2l0.2-0.3
										C61.2,1,61.6,0.8,62,0.7l0,0l0.5-0.2l0,0c0.2,0,0.4-0.2,0.5-0.2c0.2,0,0.5-0.2,0.8-0.2h0.5l0,0h0.5l0,0
										C70.7,0.2,75.1,4.7,75.3,10.3z"/>
									
										<radialGradient id="SVGID_16_" cx="54.6027" cy="1367.9131" r="22.0686" gradientTransform="matrix(1 0 0 1 0 -1334)" gradientUnits="userSpaceOnUse">
										<stop  offset="0" style="stop-color:#00032D;stop-opacity:0.4"/>
										<stop  offset="0.48" style="stop-color:#00032D;stop-opacity:0.15"/>
										<stop  offset="1" style="stop-color:#00032D;stop-opacity:0"/>
									</radialGradient>
									<path class="st14" d="M75.3,10.3v5.8c0,7.2-3.9,13.8-9.9,17.2l-10.1,5.8V27.6l5-2.9c3.1-1.8,5-5.1,5-8.7v-2.2
										c0-1.1-1-1.9-2.1-1.9c-0.4,0-0.7,0.2-1,0.3l-7,3.9v-5.6c0-3.4,1.8-6.6,4.7-8.4l0.4-0.3l0.3-0.2l0.2-0.3
										C61.2,1,61.6,0.8,62,0.7l0,0l0.5-0.2l0,0c0.2,0,0.4-0.2,0.5-0.2c0.2,0,0.5-0.2,0.8-0.2h0.5l0,0h0.5l0,0
										C70.7,0.2,75.1,4.7,75.3,10.3z"/>
								</g>
								<g id="shadow_right_2_">
									
										<linearGradient id="SVGID_17_" gradientUnits="userSpaceOnUse" x1="71.5338" y1="1353.287" x2="62.8749" y2="1344.5577" gradientTransform="matrix(1 0 0 1 0 -1334)">
										<stop  offset="0" style="stop-color:#00032D;stop-opacity:0.4"/>
										<stop  offset="0.48" style="stop-color:#00032D;stop-opacity:0.15"/>
										<stop  offset="1" style="stop-color:#00032D;stop-opacity:0"/>
									</linearGradient>
									<path class="st15" d="M75.1,10.3c0,3.4-1.8,6.8-4.8,8.5L70,19.1l-9.9,5.6c3.1-1.8,5-5.1,5-8.7v-2.4c0-1.1-1-1.9-2.1-1.9
										c-0.4,0-0.7,0.2-1,0.3l-6.8,3.9v-5.6c0-3.4,1.8-6.6,4.7-8.4l0.4-0.3l0.3-0.2l0.2-0.3c0.4-0.2,0.8-0.4,1.2-0.5l0,0l0.5-0.2
										l0,0c0.2,0,0.4-0.2,0.5-0.2c0.2,0,0.5-0.2,0.8-0.2h0.5l0,0h0.5l0,0c0.7,0,1.2,0,1.9,0.2H67c0.3,0,0.7,0.2,1,0.3
										c0.2,0,0.3,0.2,0.4,0.2s0.3,0.2,0.4,0.2l0.5,0.4L70,1.5l0.5,0.2L70.9,2l0.4,0.3c2.2,1.7,3.7,4.1,4,7l0,0
										C75.1,9.5,75.1,9.9,75.1,10.3z"/>
								</g>
								<g id="_3.1_2_">
									<g>
										<g>
											<g>
												<g>
													<defs>
														<path id="SVGID_18_" d="M75.3,10.3v5.8c0,7.2-3.9,13.8-9.9,17.2l-10.1,5.8V27.6l5-2.9h0.2l9.7-5.6l0.4-0.3
															C73.4,16.9,75.3,13.8,75.3,10.3z"/>
													</defs>
													<clipPath id="SVGID_19_">
														<use xlink:href="#SVGID_18_"  style="overflow:visible;"/>
													</clipPath>
													<g class="st16">
														<g id="border-2_2_">
															
																<linearGradient id="SVGID_20_" gradientUnits="userSpaceOnUse" x1="65.0817" y1="1361.9299" x2="65.0817" y2="1344.2312" gradientTransform="matrix(1 0 0 1 0 -1334)">
																<stop  offset="0" style="stop-color:#FFFFFF;stop-opacity:0"/>
																<stop  offset="0.49" style="stop-color:#FFFFFF;stop-opacity:0.5"/>
																<stop  offset="1" style="stop-color:#FFFFFF;stop-opacity:0"/>
															</linearGradient>
															<path class="st17" d="M75.1,10.3c0.2,2.4-0.5,4.7-2.1,6.6c-0.7,1-1.7,1.8-2.6,2.4L67.3,21c-1.9,1.1-4,2.4-6.1,3.4
																c-2.1,1.1-4.1,2.2-6.2,3.2c1.9-1.2,3.9-2.5,6-3.7c2.1-1.2,4-2.4,6-3.6l3.1-1.7C73.1,16.9,75.1,13.8,75.1,10.3z"/>
														</g>
													</g>
												</g>
											</g>
										</g>
									</g>
								</g>
							</g>
						</g>
					</g>
				</g>
			</g>
		</g>
	</g>
</g>
</svg>
