<?xml version="1.0" encoding="utf-8"?>
<!-- Generator: Adobe Illustrator 25.0.1, SVG Export Plug-In . SVG Version: 6.00 Build 0)  -->
<svg version="1.1" id="Layer_2" xmlns="http://www.w3.org/2000/svg" xmlns:xlink="http://www.w3.org/1999/xlink" x="0px" y="0px"
	 viewBox="0 0 100.4 92.9" style="enable-background:new 0 0 100.4 92.9;" xml:space="preserve">
<style type="text/css">
	.st0{fill-rule:evenodd;clip-rule:evenodd;fill:url(#SVGID_1_);}
	.st1{fill:url(#Shape_2_);}
	.st2{clip-path:url(#SVGID_3_);}
	.st3{fill:url(#SVGID_4_);}
	.st4{clip-path:url(#SVGID_6_);}
	.st5{fill:url(#SVGID_7_);}
	.st6{fill:url(#shadow_2_);}
	.st7{clip-path:url(#SVGID_9_);}
	.st8{fill:url(#SVGID_10_);}
	.st9{fill:url(#SVGID_11_);}
	.st10{fill:url(#SVGID_12_);}
	.st11{clip-path:url(#SVGID_14_);}
	.st12{fill:url(#SVGID_15_);}
</style>
<linearGradient id="SVGID_1_" gradientUnits="userSpaceOnUse" x1="100.9406" y1="23.1666" x2="-0.3494" y2="5.5666" gradientTransform="matrix(1 0 0 -1 0 94)">
	<stop  offset="0" style="stop-color:#FFFFFF"/>
	<stop  offset="1" style="stop-color:#E4DDFE"/>
</linearGradient>
<path class="st0" d="M32.1,74.9h-4.5c-1.4,0-2.5,1.1-2.5,2.5c0,0,0,0,0,0v7h7c1.4,0,2.5-1.1,2.5-2.5c0,0,0,0,0,0v-4.5
	C34.6,76,33.5,74.9,32.1,74.9C32.1,74.9,32.1,74.9,32.1,74.9z M79.3,70.8v4h-8.8c-1.4,0-2.5,1.1-2.5,2.5c0,0,0,0,0,0v4.5
	c0,1.4,1.1,2.5,2.5,2.5c0,0,0,0,0,0h8.8v4h-8.8c-3.6,0-6.5-2.9-6.5-6.5c0,0,0,0,0,0v-4.5c0-3.6,2.9-6.5,6.5-6.5H79.3z M86.9,70.8
	v4.5h7c1.4,0,2.5-1.1,2.5-2.5c0,0,0,0,0,0v-2h4v2c0,1.6-0.6,3.2-1.7,4.4l-0.2,0.2l0.2,0.2c1.1,1.2,1.7,2.8,1.7,4.4v6.4h-4V82
	c0-1.4-1.1-2.6-2.6-2.6c0,0,0,0,0,0h-6.9v9h-4V70.8H86.9z M60.4,70.8v17.6h-4V70.8H60.4z M46.2,66.3v4.6H53v4h-6.8v7
	c0,1.4,1.1,2.5,2.5,2.5c0,0,0,0,0,0H53v4h-4.3c-3.6,0-6.5-2.9-6.5-6.5c0,0,0,0,0,0V66.3H46.2z M4,70.9v11c0,1.4,1.1,2.5,2.5,2.5
	c0,0,0,0,0,0H11c1.4,0,2.5-1.1,2.5-2.5c0,0,0,0,0,0v-11h4v11c0,3.6-2.9,6.5-6.5,6.5c0,0,0,0,0,0H6.5c-3.6,0-6.5-2.9-6.5-6.5
	c0,0,0,0,0,0v-11H4z M32.1,70.8c3.6,0,6.5,2.9,6.5,6.5v4.6c0,3.6-2.9,6.5-6.5,6.5c0,0,0,0,0,0h-7v4.5h-4V77.3c0-3.6,2.9-6.5,6.5-6.5
	c0,0,0,0,0,0H32.1z"/>
<g>
	
		<linearGradient id="Shape_2_" gradientUnits="userSpaceOnUse" x1="24.9054" y1="988.418" x2="76.5244" y2="988.418" gradientTransform="matrix(1 0 0 1 0 -960.1102)">
		<stop  offset="0" style="stop-color:#D300FD"/>
		<stop  offset="0.7462" style="stop-color:#7471FF"/>
		<stop  offset="1" style="stop-color:#00FDCF"/>
	</linearGradient>
	<path id="Shape_1_" class="st1" d="M61.1,1.4l-15.2,8.7c-0.1,0.1-0.3,0.3-0.3,0.6v31.8c0,1.1-1,2-2.1,2c-0.4,0-0.7-0.1-1-0.3
		l-2-1.1c-3.1-1.9-5.1-5.3-5.1-9V16.7c0-0.1-0.1-0.1-0.1-0.1H35l-9.7,5.6c-0.1,0.1-0.3,0.3-0.3,0.6v11.5c0,7.4,4,14.2,10.3,17.9
		l5.1,3c5,2.8,11.3,1.1,14.1-3.8c0.9-1.6,1.4-3.4,1.4-5.1v-6l10.3-6c6.4-3.7,10.3-10.5,10.3-17.8v-6c0-5.7-4.7-10.3-10.4-10.3
		C64.4,0,62.6,0.6,61.1,1.4z M61.1,25.2l-5.1,3v-12l7.1-4c1-0.6,2.3-0.3,2.8,0.7c0.1,0.3,0.3,0.7,0.3,1v2.4
		C66.2,20.1,64.2,23.4,61.1,25.2L61.1,25.2z"/>
	<g id="Effects_1_">
		<g id="_1_1_">
			<g>
				<g>
					<defs>
						<path id="SVGID_2_" d="M40,54.8l-4.7-2.7c-6.4-3.7-10.4-10.5-10.4-17.9V22.4c0-0.1,0-0.1,0.1-0.1l10.3-5.8v29.8
							C35.3,49.7,37,52.8,40,54.8z"/>
					</defs>
					<clipPath id="SVGID_3_">
						<use xlink:href="#SVGID_2_"  style="overflow:visible;"/>
					</clipPath>
					<g class="st2">
						
							<linearGradient id="SVGID_4_" gradientUnits="userSpaceOnUse" x1="37.4764" y1="1015.2533" x2="37.4764" y2="976.4357" gradientTransform="matrix(1 0 0 1 0 -960.1102)">
							<stop  offset="0" style="stop-color:#FFFFFF;stop-opacity:0"/>
							<stop  offset="0.49" style="stop-color:#FFFFFF;stop-opacity:0.5"/>
							<stop  offset="1" style="stop-color:#FFFFFF;stop-opacity:0"/>
						</linearGradient>
						<path class="st3" d="M40,54.8c-1.7-1-3-2.4-3.8-4c-0.9-1.7-1.3-3.6-1.1-5.6c0-3.7-0.1-7.4,0-11.1v-0.4h0.4L35,34.2
							c0-3,0-6,0.1-9s0.1-6,0.3-9c0.1,3,0.3,6,0.3,9s0,6,0.1,9v0.4h-0.6l0.4-0.4c0,3.7,0,7.4,0,11.1C35.3,49,36.9,52.7,40,54.8z"/>
					</g>
				</g>
			</g>
		</g>
		<g id="_2_1_">
			<g>
				<g>
					<defs>
						<path id="SVGID_5_" d="M60.7,1.6c-3,1.9-4.8,5.1-4.8,8.7V46c0,5.7-4.6,10.3-10.3,10.3h-0.1h-0.6l0,0h-0.4H44
							c-0.3,0-0.7-0.1-1-0.1l0,0L42.3,56l-0.6-0.1c-0.4-0.1-0.9-0.4-1.3-0.6L40,55l0,0c-3-1.9-4.7-5.1-4.7-8.7v-12
							c0,3.7,2,7.1,5.1,9l2,1.1c1,0.6,2.3,0.3,2.8-0.7c0.1-0.3,0.3-0.7,0.3-1v-32c0-0.3,0.1-0.4,0.3-0.6L60.7,1.6z"/>
					</defs>
					<clipPath id="SVGID_6_">
						<use xlink:href="#SVGID_5_"  style="overflow:visible;"/>
					</clipPath>
					<g class="st4">
						<g id="border_1_">
							
								<linearGradient id="SVGID_7_" gradientUnits="userSpaceOnUse" x1="58.017" y1="1006.2303" x2="58.017" y2="961.4044" gradientTransform="matrix(1 0 0 1 0 -960.1102)">
								<stop  offset="0" style="stop-color:#FFFFFF;stop-opacity:0"/>
								<stop  offset="0.49" style="stop-color:#FFFFFF;stop-opacity:0.5"/>
								<stop  offset="1" style="stop-color:#FFFFFF;stop-opacity:0"/>
							</linearGradient>
							<path class="st5" d="M60.7,1.6c-1.6,1.1-2.8,2.6-3.6,4.3c-0.4,0.9-0.7,1.7-0.9,2.7c-0.1,1-0.1,1.9-0.1,2.8
								c0,3.8,0,7.7,0.1,11.5l-0.1,11.5c0,3.8-0.1,7.7-0.3,11.5c-0.1-3.8-0.3-7.7-0.3-11.5l-0.1-11.5c0-3.8,0-7.7,0.1-11.5
								c0-1,0-2,0.1-2.8c0.1-1,0.4-1.9,1-2.8C57.7,4,58.9,2.6,60.7,1.6z"/>
						</g>
						
							<radialGradient id="shadow_2_" cx="34.9297" cy="1007.624" r="21.3702" gradientTransform="matrix(1 0 0 1 0 -960.1102)" gradientUnits="userSpaceOnUse">
							<stop  offset="0" style="stop-color:#00032D;stop-opacity:0.4"/>
							<stop  offset="0.48" style="stop-color:#00032D;stop-opacity:0.15"/>
							<stop  offset="1" style="stop-color:#00032D;stop-opacity:0"/>
						</radialGradient>
						<path id="shadow_1_" class="st6" d="M60.7,1.6c-3,1.9-4.8,5.1-4.8,8.7V46c0,5.7-4.6,10.3-10.3,10.3h-0.1h-0.6l0,0h-0.4H44
							c-0.3,0-0.7-0.1-1-0.1l0,0L42.3,56l-0.6-0.1c-0.4-0.1-0.9-0.4-1.3-0.6L40,55l0,0c-3-1.9-4.7-5.1-4.7-8.7v-12
							c0,3.7,2,7.1,5.1,9l2,1.1c1,0.6,2.3,0.3,2.8-0.7c0.1-0.3,0.3-0.7,0.3-1v-32c0-0.3,0.1-0.4,0.3-0.6L60.7,1.6z"/>
					</g>
				</g>
			</g>
		</g>
		<g id="_3_1_">
			<g>
				<g>
					<defs>
						<path id="SVGID_8_" d="M76.6,10.4v6c0,7.4-4,14.2-10.3,17.8l-10.4,6v-12l5.1-3c3.1-1.9,5.1-5.3,5.1-9V14c0-1.1-1-2-2.1-2
							c-0.4,0-0.7,0.1-1,0.3l-7.1,4v-5.8c0-3.6,1.9-6.8,4.8-8.7l0.4-0.3l0.3-0.1L61.6,1c0.4-0.1,0.9-0.4,1.3-0.6l0,0l0.6-0.1l0,0
							c0.1,0,0.4-0.1,0.6-0.1S64.6,0,64.9,0h0.6l0,0h0.6l0,0C71.9,0,76.5,4.7,76.6,10.4z"/>
					</defs>
					<clipPath id="SVGID_9_">
						<use xlink:href="#SVGID_8_"  style="overflow:visible;"/>
					</clipPath>
					<g class="st7">
						<g id="shadow_top_bottom_1_">
							
								<radialGradient id="SVGID_10_" cx="57.5596" cy="966.2256" r="24.3022" gradientTransform="matrix(1 0 0 1 0 -960.1102)" gradientUnits="userSpaceOnUse">
								<stop  offset="0" style="stop-color:#00032D;stop-opacity:0.4"/>
								<stop  offset="0.48" style="stop-color:#00032D;stop-opacity:0.15"/>
								<stop  offset="1" style="stop-color:#00032D;stop-opacity:0"/>
							</radialGradient>
							<path class="st8" d="M76.6,10.4v6c0,7.4-4,14.2-10.3,17.8l-10.4,6v-12l5.1-3c3.1-1.9,5.1-5.3,5.1-9V14c0-1.1-1-2-2.1-2
								c-0.4,0-0.7,0.1-1,0.3l-7.1,4v-5.8c0-3.6,1.9-6.8,4.8-8.7l0.4-0.3l0.3-0.1L61.6,1c0.4-0.1,0.9-0.4,1.3-0.6l0,0l0.6-0.1l0,0
								c0.1,0,0.4-0.1,0.6-0.1S64.6,0,64.9,0h0.6l0,0h0.6l0,0C71.9,0,76.5,4.7,76.6,10.4z"/>
							
								<radialGradient id="SVGID_11_" cx="55.2779" cy="994.8534" r="22.7331" gradientTransform="matrix(1 0 0 1 0 -960.1102)" gradientUnits="userSpaceOnUse">
								<stop  offset="0" style="stop-color:#00032D;stop-opacity:0.4"/>
								<stop  offset="0.48" style="stop-color:#00032D;stop-opacity:0.15"/>
								<stop  offset="1" style="stop-color:#00032D;stop-opacity:0"/>
							</radialGradient>
							<path class="st9" d="M76.6,10.4v6c0,7.4-4,14.2-10.3,17.8l-10.4,6v-12l5.1-3c3.1-1.9,5.1-5.3,5.1-9V14c0-1.1-1-2-2.1-2
								c-0.4,0-0.7,0.1-1,0.3l-7.1,4v-5.8c0-3.6,1.9-6.8,4.8-8.7l0.4-0.3l0.3-0.1L61.6,1c0.4-0.1,0.9-0.4,1.3-0.6l0,0l0.6-0.1l0,0
								c0.1,0,0.4-0.1,0.6-0.1S64.6,0,64.9,0h0.6l0,0h0.6l0,0C71.9,0,76.5,4.7,76.6,10.4z"/>
						</g>
						<g id="shadow_right_1_">
							
								<linearGradient id="SVGID_12_" gradientUnits="userSpaceOnUse" x1="72.6951" y1="979.8104" x2="63.7754" y2="970.8184" gradientTransform="matrix(1 0 0 1 0 -960.1102)">
								<stop  offset="0" style="stop-color:#00032D;stop-opacity:0.4"/>
								<stop  offset="0.48" style="stop-color:#00032D;stop-opacity:0.15"/>
								<stop  offset="1" style="stop-color:#00032D;stop-opacity:0"/>
							</linearGradient>
							<path class="st10" d="M76.5,10.4c0,3.6-1.9,7-5,8.8L71,19.5l-10.1,5.8c3.1-1.9,5.1-5.3,5.1-9V14c0-1.1-1-2-2.1-2
								c-0.4,0-0.7,0.1-1,0.3l-7,4v-5.8c0-3.6,1.9-6.8,4.8-8.7l0.4-0.3l0.3-0.1L61.6,1c0.4-0.1,0.9-0.4,1.3-0.6l0,0l0.6-0.1l0,0
								c0.1,0,0.4-0.1,0.6-0.1S64.6,0,64.9,0h0.6l0,0h0.6l0,0c0.7,0,1.3,0,2,0.1h0.1c0.3,0,0.7,0.1,1,0.3c0.1,0,0.3,0.1,0.4,0.1
								s0.3,0.1,0.4,0.1l0.6,0.4L71,1.4l0.6,0.1L72,1.9l0.4,0.3c2.3,1.7,3.8,4.3,4.1,7.1l0,0C76.5,9.7,76.5,10,76.5,10.4z"/>
						</g>
						<g id="_3.1_1_">
							<g>
								<g>
									<defs>
										<path id="SVGID_13_" d="M76.6,10.4v6c0,7.4-4,14.2-10.3,17.8l-10.4,6v-12l5.1-3h0.1l10-5.8l0.4-0.3
											C74.6,17.2,76.6,14,76.6,10.4z"/>
									</defs>
									<clipPath id="SVGID_14_">
										<use xlink:href="#SVGID_13_"  style="overflow:visible;"/>
									</clipPath>
									<g class="st11">
										<g id="border-2_1_">
											
												<linearGradient id="SVGID_15_" gradientUnits="userSpaceOnUse" x1="66.1441" y1="988.6902" x2="66.1441" y2="970.4584" gradientTransform="matrix(1 0 0 1 0 -960.1102)">
												<stop  offset="0" style="stop-color:#FFFFFF;stop-opacity:0"/>
												<stop  offset="0.49" style="stop-color:#FFFFFF;stop-opacity:0.5"/>
												<stop  offset="1" style="stop-color:#FFFFFF;stop-opacity:0"/>
											</linearGradient>
											<path class="st12" d="M76.5,10.4c0.1,2.4-0.6,4.8-2.1,6.8c-0.7,1-1.7,1.9-2.7,2.4l-3.1,1.9c-2,1.1-4.1,2.4-6.3,3.6
												c-2.1,1.1-4.3,2.3-6.4,3.3c2-1.3,4-2.6,6.1-3.8c2.1-1.3,4.1-2.4,6.1-3.7l3.1-1.7C74.3,17.2,76.3,14,76.5,10.4z"/>
										</g>
									</g>
								</g>
							</g>
						</g>
					</g>
				</g>
			</g>
		</g>
	</g>
</g>
</svg>
