<?xml version="1.0" encoding="utf-8"?>
<!-- Generator: Adobe Illustrator 25.0.1, SVG Export Plug-In . SVG Version: 6.00 Build 0)  -->
<svg version="1.1" id="Layer_2" xmlns="http://www.w3.org/2000/svg" xmlns:xlink="http://www.w3.org/1999/xlink" x="0px" y="0px"
	 viewBox="0 0 230 100" style="enable-background:new 0 0 230 100;" xml:space="preserve">
<style type="text/css">
	.st0{fill:url(#SVGID_1_);}
	.st1{fill-rule:evenodd;clip-rule:evenodd;fill:url(#SVGID_2_);}
	.st2{fill:url(#Shape_2_);}
	.st3{clip-path:url(#SVGID_4_);}
	.st4{fill:url(#SVGID_5_);}
	.st5{clip-path:url(#SVGID_7_);}
	.st6{fill:url(#SVGID_8_);}
	.st7{fill:url(#shadow_2_);}
	.st8{clip-path:url(#SVGID_10_);}
	.st9{fill:url(#SVGID_11_);}
	.st10{fill:url(#SVGID_12_);}
	.st11{fill:url(#SVGID_13_);}
	.st12{clip-path:url(#SVGID_15_);}
	.st13{fill:url(#SVGID_16_);}
</style>
<radialGradient id="SVGID_1_" cx="198.9836" cy="-301.6056" r="113.7763" gradientTransform="matrix(1.22 0 0 -0.61 -127.76 -134.24)" gradientUnits="userSpaceOnUse">
	<stop  offset="0" style="stop-color:#270645"/>
	<stop  offset="1" style="stop-color:#180031"/>
</radialGradient>
<rect y="0.1" class="st0" width="230" height="99.9"/>
<linearGradient id="SVGID_2_" gradientUnits="userSpaceOnUse" x1="191.4595" y1="60.7732" x2="90.1694" y2="43.1632" gradientTransform="matrix(1 0 0 -1 0 102)">
	<stop  offset="0" style="stop-color:#FFFFFF"/>
	<stop  offset="1" style="stop-color:#E4DDFE"/>
</linearGradient>
<path class="st1" d="M122.6,45.3h-4.5c-1.4,0-2.5,1.1-2.5,2.5c0,0,0,0,0,0v7h7c1.4,0,2.5-1.1,2.5-2.5c0,0,0,0,0,0v-4.5
	C125.1,46.4,124,45.3,122.6,45.3C122.6,45.3,122.6,45.3,122.6,45.3z M169.8,41.2v4H161c-1.4,0-2.5,1.1-2.5,2.5c0,0,0,0,0,0v4.5
	c0,1.4,1.1,2.5,2.5,2.5c0,0,0,0,0,0h8.8v4H161c-3.6,0-6.5-2.9-6.5-6.5c0,0,0,0,0,0v-4.5c0-3.6,2.9-6.5,6.5-6.5H169.8z M177.4,41.2
	v4.5h7c1.4,0,2.5-1.1,2.5-2.5c0,0,0,0,0,0v-2h4v2c0,1.6-0.6,3.2-1.7,4.4l-0.2,0.2l0.2,0.2c1.1,1.2,1.7,2.8,1.7,4.4v6.4h-4v-6.4
	c0-1.4-1.1-2.6-2.6-2.6c0,0,0,0,0,0h-6.9v9h-4V41.2H177.4z M150.9,41.2v17.6h-4V41.2H150.9z M136.7,36.7v4.6h6.8v4h-6.8v7
	c0,1.4,1.1,2.5,2.5,2.5c0,0,0,0,0,0h4.3v4h-4.3c-3.6,0-6.5-2.9-6.5-6.5c0,0,0,0,0,0V36.7H136.7z M94.5,41.3v11
	c0,1.4,1.1,2.5,2.5,2.5c0,0,0,0,0,0h4.5c1.4,0,2.5-1.1,2.5-2.5c0,0,0,0,0,0v-11h4v11c0,3.6-2.9,6.5-6.5,6.5c0,0,0,0,0,0H97
	c-3.6,0-6.5-2.9-6.5-6.5c0,0,0,0,0,0v-11H94.5z M122.6,41.2c3.6,0,6.5,2.9,6.5,6.5v4.6c0,3.6-2.9,6.5-6.5,6.5c0,0,0,0,0,0h-7v4.5h-4
	V47.7c0-3.6,2.9-6.5,6.5-6.5c0,0,0,0,0,0H122.6z"/>
<g>
	
		<linearGradient id="Shape_2_" gradientUnits="userSpaceOnUse" x1="39.1982" y1="1010.0524" x2="75.4415" y2="1010.0524" gradientTransform="matrix(1 0 0 1 0 -960.1102)">
		<stop  offset="0" style="stop-color:#D300FD"/>
		<stop  offset="0.7462" style="stop-color:#7471FF"/>
		<stop  offset="1" style="stop-color:#00FDCF"/>
	</linearGradient>
	<path id="Shape_1_" class="st2" d="M64.6,31.1l-10.7,6.1c-0.1,0.1-0.2,0.2-0.2,0.4v22.3c0,0.8-0.7,1.4-1.5,1.4
		c-0.3,0-0.5-0.1-0.7-0.2l-1.4-0.8c-2.2-1.3-3.6-3.7-3.6-6.3V41.8c0-0.1-0.1-0.1-0.1-0.1h-0.1l-6.8,3.9c-0.1,0.1-0.2,0.2-0.2,0.4
		v8.1c0,5.2,2.8,10,7.2,12.6l3.6,2.1c3.5,2,7.9,0.8,9.9-2.7c0.6-1.1,1-2.4,1-3.6v-4.2l7.2-4.2c4.5-2.6,7.2-7.4,7.2-12.5v-4.2
		c0-4-3.3-7.2-7.3-7.2C66.9,30.1,65.7,30.5,64.6,31.1z M64.6,47.8L61,49.9v-8.4l5-2.8c0.7-0.4,1.6-0.2,2,0.5
		c0.1,0.2,0.2,0.5,0.2,0.7v1.7C68.2,44.2,66.8,46.5,64.6,47.8L64.6,47.8z"/>
	<g id="Effects_1_">
		<g id="_1_1_">
			<g>
				<g>
					<defs>
						<path id="SVGID_3_" d="M49.8,68.6l-3.3-1.9c-4.5-2.6-7.3-7.4-7.3-12.6v-8.3c0-0.1,0-0.1,0.1-0.1l7.2-4.1v20.9
							C46.5,65,47.7,67.2,49.8,68.6z"/>
					</defs>
					<clipPath id="SVGID_4_">
						<use xlink:href="#SVGID_3_"  style="overflow:visible;"/>
					</clipPath>
					<g class="st3">
						
							<linearGradient id="SVGID_5_" gradientUnits="userSpaceOnUse" x1="48.0247" y1="1028.8943" x2="48.0247" y2="1001.6393" gradientTransform="matrix(1 0 0 1 0 -960.1102)">
							<stop  offset="0" style="stop-color:#FFFFFF;stop-opacity:0"/>
							<stop  offset="0.49" style="stop-color:#FFFFFF;stop-opacity:0.5"/>
							<stop  offset="1" style="stop-color:#FFFFFF;stop-opacity:0"/>
						</linearGradient>
						<path class="st4" d="M49.8,68.6c-1.2-0.7-2.1-1.7-2.7-2.8c-0.6-1.2-0.9-2.5-0.8-3.9c0-2.6-0.1-5.2,0-7.8v-0.3h0.3l-0.3,0.3
							c0-2.1,0-4.2,0.1-6.3s0.1-4.2,0.2-6.3c0.1,2.1,0.2,4.2,0.2,6.3c0,2.1,0,4.2,0.1,6.3v0.3h-0.4l0.3-0.3c0,2.6,0,5.2,0,7.8
							C46.5,64.5,47.6,67.1,49.8,68.6z"/>
					</g>
				</g>
			</g>
		</g>
		<g id="_2_1_">
			<g>
				<g>
					<defs>
						<path id="SVGID_6_" d="M64.3,31.2c-2.1,1.3-3.4,3.6-3.4,6.1v25.1c0,4-3.2,7.2-7.2,7.2h-0.1h-0.4l0,0h-0.3h-0.3
							c-0.2,0-0.5-0.1-0.7-0.1l0,0l-0.5-0.1L51,69.3c-0.3-0.1-0.6-0.3-0.9-0.4l-0.3-0.2l0,0c-2.1-1.3-3.3-3.6-3.3-6.1v-8.4
							c0,2.6,1.4,5,3.6,6.3l1.4,0.8c0.7,0.4,1.6,0.2,2-0.5c0.1-0.2,0.2-0.5,0.2-0.7V37.6c0-0.2,0.1-0.3,0.2-0.4L64.3,31.2z"/>
					</defs>
					<clipPath id="SVGID_7_">
						<use xlink:href="#SVGID_6_"  style="overflow:visible;"/>
					</clipPath>
					<g class="st5">
						<g id="border_1_">
							
								<linearGradient id="SVGID_8_" gradientUnits="userSpaceOnUse" x1="62.4469" y1="1022.559" x2="62.4469" y2="991.0853" gradientTransform="matrix(1 0 0 1 0 -960.1102)">
								<stop  offset="0" style="stop-color:#FFFFFF;stop-opacity:0"/>
								<stop  offset="0.49" style="stop-color:#FFFFFF;stop-opacity:0.5"/>
								<stop  offset="1" style="stop-color:#FFFFFF;stop-opacity:0"/>
							</linearGradient>
							<path class="st6" d="M64.3,31.2c-1.1,0.8-2,1.8-2.5,3c-0.3,0.6-0.5,1.2-0.6,1.9c-0.1,0.7-0.1,1.3-0.1,2c0,2.7,0,5.4,0.1,8.1
								l-0.1,8.1c0,2.7-0.1,5.4-0.2,8.1c-0.1-2.7-0.2-5.4-0.2-8.1l-0.1-8.1c0-2.7,0-5.4,0.1-8.1c0-0.7,0-1.4,0.1-2
								c0.1-0.7,0.3-1.3,0.7-2C62.2,32.9,63.1,31.9,64.3,31.2z"/>
						</g>
						
							<radialGradient id="shadow_2_" cx="46.2366" cy="1023.5375" r="15.0047" gradientTransform="matrix(1 0 0 1 0 -960.1102)" gradientUnits="userSpaceOnUse">
							<stop  offset="0" style="stop-color:#00032D;stop-opacity:0.4"/>
							<stop  offset="0.48" style="stop-color:#00032D;stop-opacity:0.15"/>
							<stop  offset="1" style="stop-color:#00032D;stop-opacity:0"/>
						</radialGradient>
						<path id="shadow_1_" class="st7" d="M64.3,31.2c-2.1,1.3-3.4,3.6-3.4,6.1v25.1c0,4-3.2,7.2-7.2,7.2h-0.1h-0.4l0,0h-0.3h-0.3
							c-0.2,0-0.5-0.1-0.7-0.1l0,0l-0.5-0.1L51,69.3c-0.3-0.1-0.6-0.3-0.9-0.4l-0.3-0.2l0,0c-2.1-1.3-3.3-3.6-3.3-6.1v-8.4
							c0,2.6,1.4,5,3.6,6.3l1.4,0.8c0.7,0.4,1.6,0.2,2-0.5c0.1-0.2,0.2-0.5,0.2-0.7V37.6c0-0.2,0.1-0.3,0.2-0.4L64.3,31.2z"/>
					</g>
				</g>
			</g>
		</g>
		<g id="_3_1_">
			<g>
				<g>
					<defs>
						<path id="SVGID_9_" d="M75.5,37.4v4.2c0,5.2-2.8,10-7.2,12.5L61,58.3v-8.4l3.6-2.1c2.2-1.3,3.6-3.7,3.6-6.3v-1.6
							c0-0.8-0.7-1.4-1.5-1.4c-0.3,0-0.5,0.1-0.7,0.2l-5,2.8v-4.1c0-2.5,1.3-4.8,3.4-6.1l0.3-0.2l0.2-0.1l0.1-0.2
							c0.3-0.1,0.6-0.3,0.9-0.4l0,0l0.4-0.1l0,0c0.1,0,0.3-0.1,0.4-0.1s0.4-0.1,0.6-0.1h0.4l0,0h0.4l0,0
							C72.2,30.1,75.4,33.4,75.5,37.4z"/>
					</defs>
					<clipPath id="SVGID_10_">
						<use xlink:href="#SVGID_9_"  style="overflow:visible;"/>
					</clipPath>
					<g class="st8">
						<g id="shadow_top_bottom_1_">
							
								<radialGradient id="SVGID_11_" cx="62.1257" cy="994.4705" r="17.0633" gradientTransform="matrix(1 0 0 1 0 -960.1102)" gradientUnits="userSpaceOnUse">
								<stop  offset="0" style="stop-color:#00032D;stop-opacity:0.4"/>
								<stop  offset="0.48" style="stop-color:#00032D;stop-opacity:0.15"/>
								<stop  offset="1" style="stop-color:#00032D;stop-opacity:0"/>
							</radialGradient>
							<path class="st9" d="M75.5,37.4v4.2c0,5.2-2.8,10-7.2,12.5L61,58.3v-8.4l3.6-2.1c2.2-1.3,3.6-3.7,3.6-6.3v-1.6
								c0-0.8-0.7-1.4-1.5-1.4c-0.3,0-0.5,0.1-0.7,0.2l-5,2.8v-4.1c0-2.5,1.3-4.8,3.4-6.1l0.3-0.2l0.2-0.1l0.1-0.2
								c0.3-0.1,0.6-0.3,0.9-0.4l0,0l0.4-0.1l0,0c0.1,0,0.3-0.1,0.4-0.1s0.4-0.1,0.6-0.1h0.4l0,0h0.4l0,0
								C72.2,30.1,75.4,33.4,75.5,37.4z"/>
							
								<radialGradient id="SVGID_12_" cx="60.5237" cy="1014.5709" r="15.9616" gradientTransform="matrix(1 0 0 1 0 -960.1102)" gradientUnits="userSpaceOnUse">
								<stop  offset="0" style="stop-color:#00032D;stop-opacity:0.4"/>
								<stop  offset="0.48" style="stop-color:#00032D;stop-opacity:0.15"/>
								<stop  offset="1" style="stop-color:#00032D;stop-opacity:0"/>
							</radialGradient>
							<path class="st10" d="M75.5,37.4v4.2c0,5.2-2.8,10-7.2,12.5L61,58.3v-8.4l3.6-2.1c2.2-1.3,3.6-3.7,3.6-6.3v-1.6
								c0-0.8-0.7-1.4-1.5-1.4c-0.3,0-0.5,0.1-0.7,0.2l-5,2.8v-4.1c0-2.5,1.3-4.8,3.4-6.1l0.3-0.2l0.2-0.1l0.1-0.2
								c0.3-0.1,0.6-0.3,0.9-0.4l0,0l0.4-0.1l0,0c0.1,0,0.3-0.1,0.4-0.1s0.4-0.1,0.6-0.1h0.4l0,0h0.4l0,0
								C72.2,30.1,75.4,33.4,75.5,37.4z"/>
						</g>
						<g id="shadow_right_1_">
							
								<linearGradient id="SVGID_13_" gradientUnits="userSpaceOnUse" x1="72.7528" y1="1004.0088" x2="66.49" y2="997.6952" gradientTransform="matrix(1 0 0 1 0 -960.1102)">
								<stop  offset="0" style="stop-color:#00032D;stop-opacity:0.4"/>
								<stop  offset="0.48" style="stop-color:#00032D;stop-opacity:0.15"/>
								<stop  offset="1" style="stop-color:#00032D;stop-opacity:0"/>
							</linearGradient>
							<path class="st11" d="M75.4,37.4c0,2.5-1.3,4.9-3.5,6.2l-0.3,0.2l-7.1,4.1c2.2-1.3,3.6-3.7,3.6-6.3v-1.7
								c0-0.8-0.7-1.4-1.5-1.4c-0.3,0-0.5,0.1-0.7,0.2L61,41.5v-4.1c0-2.5,1.3-4.8,3.4-6.1l0.3-0.2l0.2-0.1l0.1-0.2
								c0.3-0.1,0.6-0.3,0.9-0.4l0,0l0.4-0.1l0,0c0.1,0,0.3-0.1,0.4-0.1s0.4-0.1,0.6-0.1h0.4l0,0h0.4l0,0c0.5,0,0.9,0,1.4,0.1h0.1
								c0.2,0,0.5,0.1,0.7,0.2c0.1,0,0.2,0.1,0.3,0.1s0.2,0.1,0.3,0.1l0.4,0.3l0.3,0.2l0.4,0.1l0.3,0.2l0.3,0.2c1.6,1.2,2.7,3,2.9,5
								l0,0C75.4,36.9,75.4,37.1,75.4,37.4z"/>
						</g>
						<g id="_3.1_1_">
							<g>
								<g>
									<defs>
										<path id="SVGID_14_" d="M75.5,37.4v4.2c0,5.2-2.8,10-7.2,12.5L61,58.3v-8.4l3.6-2.1h0.1l7-4.1l0.3-0.2
											C74.1,42.2,75.5,39.9,75.5,37.4z"/>
									</defs>
									<clipPath id="SVGID_15_">
										<use xlink:href="#SVGID_14_"  style="overflow:visible;"/>
									</clipPath>
									<g class="st12">
										<g id="border-2_1_">
											
												<linearGradient id="SVGID_16_" gradientUnits="userSpaceOnUse" x1="68.1532" y1="1010.2435" x2="68.1532" y2="997.4424" gradientTransform="matrix(1 0 0 1 0 -960.1102)">
												<stop  offset="0" style="stop-color:#FFFFFF;stop-opacity:0"/>
												<stop  offset="0.49" style="stop-color:#FFFFFF;stop-opacity:0.5"/>
												<stop  offset="1" style="stop-color:#FFFFFF;stop-opacity:0"/>
											</linearGradient>
											<path class="st13" d="M75.4,37.4c0.1,1.7-0.4,3.4-1.5,4.8c-0.5,0.7-1.2,1.3-1.9,1.7l-2.2,1.3c-1.4,0.8-2.9,1.7-4.4,2.5
												c-1.5,0.8-3,1.6-4.5,2.3c1.4-0.9,2.8-1.8,4.3-2.7s2.9-1.7,4.3-2.6l2.2-1.2C73.9,42.2,75.3,39.9,75.4,37.4z"/>
										</g>
									</g>
								</g>
							</g>
						</g>
					</g>
				</g>
			</g>
		</g>
	</g>
</g>
</svg>
