<?xml version="1.0" encoding="utf-8"?>
<!-- Generator: Adobe Illustrator 25.0.1, SVG Export Plug-In . SVG Version: 6.00 Build 0)  -->
<svg version="1.1" id="Layer_2" xmlns="http://www.w3.org/2000/svg" xmlns:xlink="http://www.w3.org/1999/xlink" x="0px" y="0px"
	 viewBox="0 0 40 40" style="enable-background:new 0 0 40 40;" xml:space="preserve">
<style type="text/css">
	.st0{fill:url(#Shape_2_);}
	.st1{clip-path:url(#SVGID_2_);}
	.st2{fill:url(#SVGID_3_);}
	.st3{clip-path:url(#SVGID_5_);}
	.st4{fill:url(#SVGID_6_);}
	.st5{fill:url(#shadow_2_);}
	.st6{clip-path:url(#SVGID_8_);}
	.st7{fill:url(#SVGID_9_);}
	.st8{fill:url(#SVGID_10_);}
	.st9{fill:url(#SVGID_11_);}
	.st10{clip-path:url(#SVGID_13_);}
	.st11{fill:url(#SVGID_14_);}
</style>
<g>
	
		<linearGradient id="Shape_2_" gradientUnits="userSpaceOnUse" x1="1.4984" y1="980.186" x2="37.7417" y2="980.186" gradientTransform="matrix(1 0 0 1 0 -960.1102)">
		<stop  offset="0" style="stop-color:#D300FD"/>
		<stop  offset="0.7462" style="stop-color:#7471FF"/>
		<stop  offset="1" style="stop-color:#00FDCF"/>
	</linearGradient>
	<path id="Shape_1_" class="st0" d="M26.9,1.2L16.2,7.3C16.1,7.4,16,7.5,16,7.7V30c0,0.8-0.7,1.4-1.5,1.4c-0.3,0-0.5-0.1-0.7-0.2
		l-1.4-0.8c-2.2-1.3-3.6-3.7-3.6-6.3V11.9c0-0.1-0.1-0.1-0.1-0.1H8.6l-6.8,3.9c-0.1,0.1-0.2,0.2-0.2,0.4v8.1c0,5.2,2.8,10,7.2,12.6
		l3.6,2.1c3.5,2,7.9,0.8,9.9-2.7c0.6-1.1,1-2.4,1-3.6v-4.2l7.2-4.2c4.5-2.6,7.2-7.4,7.2-12.5V7.5c0-4-3.3-7.2-7.3-7.2
		C29.2,0.2,28,0.6,26.9,1.2z M26.9,17.9L23.3,20v-8.4l5-2.8c0.7-0.4,1.6-0.2,2,0.5c0.1,0.2,0.2,0.5,0.2,0.7v1.7
		C30.5,14.3,29.1,16.6,26.9,17.9L26.9,17.9z"/>
	<g id="Effects_1_">
		<g id="_1_1_">
			<g>
				<g>
					<defs>
						<path id="SVGID_1_" d="M12.1,38.7l-3.3-1.9c-4.5-2.6-7.3-7.4-7.3-12.6v-8.3c0-0.1,0-0.1,0.1-0.1l7.2-4.1v20.9
							C8.8,35.1,10,37.3,12.1,38.7z"/>
					</defs>
					<clipPath id="SVGID_2_">
						<use xlink:href="#SVGID_1_"  style="overflow:visible;"/>
					</clipPath>
					<g class="st1">
						
							<linearGradient id="SVGID_3_" gradientUnits="userSpaceOnUse" x1="10.3249" y1="999.0279" x2="10.3249" y2="971.7729" gradientTransform="matrix(1 0 0 1 0 -960.1102)">
							<stop  offset="0" style="stop-color:#FFFFFF;stop-opacity:0"/>
							<stop  offset="0.49" style="stop-color:#FFFFFF;stop-opacity:0.5"/>
							<stop  offset="1" style="stop-color:#FFFFFF;stop-opacity:0"/>
						</linearGradient>
						<path class="st2" d="M12.1,38.7C10.9,38,10,37,9.4,35.9c-0.6-1.2-0.9-2.5-0.8-3.9c0-2.6-0.1-5.2,0-7.8v-0.3h0.3l-0.3,0.3
							c0-2.1,0-4.2,0.1-6.3c0.1-2.1,0.1-4.2,0.2-6.3c0.1,2.1,0.2,4.2,0.2,6.3s0,4.2,0.1,6.3v0.3H8.8l0.3-0.3c0,2.6,0,5.2,0,7.8
							C8.8,34.6,9.9,37.2,12.1,38.7z"/>
					</g>
				</g>
			</g>
		</g>
		<g id="_2_1_">
			<g>
				<g>
					<defs>
						<path id="SVGID_4_" d="M26.6,1.3c-2.1,1.3-3.4,3.6-3.4,6.1v25.1c0,4-3.2,7.2-7.2,7.2h-0.1h-0.4l0,0h-0.3h-0.3
							c-0.2,0-0.5-0.1-0.7-0.1l0,0l-0.5-0.1l-0.4-0.1c-0.3-0.1-0.6-0.3-0.9-0.4l-0.3-0.2l0,0c-2.1-1.3-3.3-3.6-3.3-6.1v-8.4
							c0,2.6,1.4,5,3.6,6.3l1.4,0.8c0.7,0.4,1.6,0.2,2-0.5c0.1-0.2,0.2-0.5,0.2-0.7V7.7c0-0.2,0.1-0.3,0.2-0.4L26.6,1.3z"/>
					</defs>
					<clipPath id="SVGID_5_">
						<use xlink:href="#SVGID_4_"  style="overflow:visible;"/>
					</clipPath>
					<g class="st3">
						<g id="border_1_">
							
								<linearGradient id="SVGID_6_" gradientUnits="userSpaceOnUse" x1="24.7471" y1="992.6926" x2="24.7471" y2="961.2189" gradientTransform="matrix(1 0 0 1 0 -960.1102)">
								<stop  offset="0" style="stop-color:#FFFFFF;stop-opacity:0"/>
								<stop  offset="0.49" style="stop-color:#FFFFFF;stop-opacity:0.5"/>
								<stop  offset="1" style="stop-color:#FFFFFF;stop-opacity:0"/>
							</linearGradient>
							<path class="st4" d="M26.6,1.3c-1.1,0.8-2,1.8-2.5,3c-0.3,0.6-0.5,1.2-0.6,1.9s-0.1,1.3-0.1,2c0,2.7,0,5.4,0.1,8.1l-0.1,8.1
								c0,2.7-0.1,5.4-0.2,8.1c-0.1-2.7-0.2-5.4-0.2-8.1l-0.1-8.1c0-2.7,0-5.4,0.1-8.1c0-0.7,0-1.4,0.1-2c0.1-0.7,0.3-1.3,0.7-2
								C24.5,3,25.4,2,26.6,1.3z"/>
						</g>
						
							<radialGradient id="shadow_2_" cx="8.5368" cy="993.6711" r="15.0047" gradientTransform="matrix(1 0 0 1 0 -960.1102)" gradientUnits="userSpaceOnUse">
							<stop  offset="0" style="stop-color:#00032D;stop-opacity:0.4"/>
							<stop  offset="0.48" style="stop-color:#00032D;stop-opacity:0.15"/>
							<stop  offset="1" style="stop-color:#00032D;stop-opacity:0"/>
						</radialGradient>
						<path id="shadow_1_" class="st5" d="M26.6,1.3c-2.1,1.3-3.4,3.6-3.4,6.1v25.1c0,4-3.2,7.2-7.2,7.2h-0.1h-0.4l0,0h-0.3h-0.3
							c-0.2,0-0.5-0.1-0.7-0.1l0,0l-0.5-0.1l-0.4-0.1c-0.3-0.1-0.6-0.3-0.9-0.4l-0.3-0.2l0,0c-2.1-1.3-3.3-3.6-3.3-6.1v-8.4
							c0,2.6,1.4,5,3.6,6.3l1.4,0.8c0.7,0.4,1.6,0.2,2-0.5c0.1-0.2,0.2-0.5,0.2-0.7V7.7c0-0.2,0.1-0.3,0.2-0.4L26.6,1.3z"/>
					</g>
				</g>
			</g>
		</g>
		<g id="_3_1_">
			<g>
				<g>
					<defs>
						<path id="SVGID_7_" d="M37.8,7.5v4.2c0,5.2-2.8,10-7.2,12.5l-7.3,4.2V20l3.6-2.1c2.2-1.3,3.6-3.7,3.6-6.3V10
							c0-0.8-0.7-1.4-1.5-1.4c-0.3,0-0.5,0.1-0.7,0.2l-5,2.8V7.5c0-2.5,1.3-4.8,3.4-6.1L27,1.2l0.2-0.1l0.1-0.2
							c0.3-0.1,0.6-0.3,0.9-0.4l0,0l0.4-0.1l0,0c0.1,0,0.3-0.1,0.4-0.1s0.4-0.1,0.6-0.1H30l0,0h0.4l0,0C34.5,0.2,37.7,3.5,37.8,7.5z
							"/>
					</defs>
					<clipPath id="SVGID_8_">
						<use xlink:href="#SVGID_7_"  style="overflow:visible;"/>
					</clipPath>
					<g class="st6">
						<g id="shadow_top_bottom_1_">
							
								<radialGradient id="SVGID_9_" cx="24.4259" cy="964.604" r="17.0633" gradientTransform="matrix(1 0 0 1 0 -960.1102)" gradientUnits="userSpaceOnUse">
								<stop  offset="0" style="stop-color:#00032D;stop-opacity:0.4"/>
								<stop  offset="0.48" style="stop-color:#00032D;stop-opacity:0.15"/>
								<stop  offset="1" style="stop-color:#00032D;stop-opacity:0"/>
							</radialGradient>
							<path class="st7" d="M37.8,7.5v4.2c0,5.2-2.8,10-7.2,12.5l-7.3,4.2V20l3.6-2.1c2.2-1.3,3.6-3.7,3.6-6.3V10
								c0-0.8-0.7-1.4-1.5-1.4c-0.3,0-0.5,0.1-0.7,0.2l-5,2.8V7.5c0-2.5,1.3-4.8,3.4-6.1L27,1.2l0.2-0.1l0.1-0.2
								c0.3-0.1,0.6-0.3,0.9-0.4l0,0l0.4-0.1l0,0c0.1,0,0.3-0.1,0.4-0.1s0.4-0.1,0.6-0.1H30l0,0h0.4l0,0C34.5,0.2,37.7,3.5,37.8,7.5
								z"/>
							
								<radialGradient id="SVGID_10_" cx="22.8239" cy="984.7045" r="15.9616" gradientTransform="matrix(1 0 0 1 0 -960.1102)" gradientUnits="userSpaceOnUse">
								<stop  offset="0" style="stop-color:#00032D;stop-opacity:0.4"/>
								<stop  offset="0.48" style="stop-color:#00032D;stop-opacity:0.15"/>
								<stop  offset="1" style="stop-color:#00032D;stop-opacity:0"/>
							</radialGradient>
							<path class="st8" d="M37.8,7.5v4.2c0,5.2-2.8,10-7.2,12.5l-7.3,4.2V20l3.6-2.1c2.2-1.3,3.6-3.7,3.6-6.3V10
								c0-0.8-0.7-1.4-1.5-1.4c-0.3,0-0.5,0.1-0.7,0.2l-5,2.8V7.5c0-2.5,1.3-4.8,3.4-6.1L27,1.2l0.2-0.1l0.1-0.2
								c0.3-0.1,0.6-0.3,0.9-0.4l0,0l0.4-0.1l0,0c0.1,0,0.3-0.1,0.4-0.1s0.4-0.1,0.6-0.1H30l0,0h0.4l0,0C34.5,0.2,37.7,3.5,37.8,7.5
								z"/>
						</g>
						<g id="shadow_right_1_">
							
								<linearGradient id="SVGID_11_" gradientUnits="userSpaceOnUse" x1="35.053" y1="974.1423" x2="28.7902" y2="967.8287" gradientTransform="matrix(1 0 0 1 0 -960.1102)">
								<stop  offset="0" style="stop-color:#00032D;stop-opacity:0.4"/>
								<stop  offset="0.48" style="stop-color:#00032D;stop-opacity:0.15"/>
								<stop  offset="1" style="stop-color:#00032D;stop-opacity:0"/>
							</linearGradient>
							<path class="st9" d="M37.7,7.5c0,2.5-1.3,4.9-3.5,6.2l-0.3,0.2L26.8,18c2.2-1.3,3.6-3.7,3.6-6.3V10c0-0.8-0.7-1.4-1.5-1.4
								c-0.3,0-0.5,0.1-0.7,0.2l-4.9,2.8V7.5c0-2.5,1.3-4.8,3.4-6.1L27,1.2l0.2-0.1l0.1-0.2c0.3-0.1,0.6-0.3,0.9-0.4l0,0l0.4-0.1
								l0,0c0.1,0,0.3-0.1,0.4-0.1s0.4-0.1,0.6-0.1H30l0,0h0.4l0,0c0.5,0,0.9,0,1.4,0.1h0.1c0.2,0,0.5,0.1,0.7,0.2
								c0.1,0,0.2,0.1,0.3,0.1s0.2,0.1,0.3,0.1L33.6,1l0.3,0.2l0.4,0.1l0.3,0.2l0.3,0.2c1.6,1.2,2.7,3,2.9,5l0,0
								C37.7,7,37.7,7.2,37.7,7.5z"/>
						</g>
						<g id="_3.1_1_">
							<g>
								<g>
									<defs>
										<path id="SVGID_12_" d="M37.8,7.5v4.2c0,5.2-2.8,10-7.2,12.5l-7.3,4.2V20l3.6-2.1H27l7-4.1l0.3-0.2
											C36.4,12.3,37.8,10,37.8,7.5z"/>
									</defs>
									<clipPath id="SVGID_13_">
										<use xlink:href="#SVGID_12_"  style="overflow:visible;"/>
									</clipPath>
									<g class="st10">
										<g id="border-2_1_">
											
												<linearGradient id="SVGID_14_" gradientUnits="userSpaceOnUse" x1="30.4533" y1="980.3771" x2="30.4533" y2="967.576" gradientTransform="matrix(1 0 0 1 0 -960.1102)">
												<stop  offset="0" style="stop-color:#FFFFFF;stop-opacity:0"/>
												<stop  offset="0.49" style="stop-color:#FFFFFF;stop-opacity:0.5"/>
												<stop  offset="1" style="stop-color:#FFFFFF;stop-opacity:0"/>
											</linearGradient>
											<path class="st11" d="M37.7,7.5c0.1,1.7-0.4,3.4-1.5,4.8C35.7,13,35,13.6,34.3,14l-2.2,1.3c-1.4,0.8-2.9,1.7-4.4,2.5
												s-3,1.6-4.5,2.3c1.4-0.9,2.8-1.8,4.3-2.7s2.9-1.7,4.3-2.6l2.2-1.2C36.2,12.3,37.6,10,37.7,7.5z"/>
										</g>
									</g>
								</g>
							</g>
						</g>
					</g>
				</g>
			</g>
		</g>
	</g>
</g>
</svg>
