<?xml version="1.0" encoding="utf-8"?>
<!-- Generator: Adobe Illustrator 25.0.1, SVG Export Plug-In . SVG Version: 6.00 Build 0)  -->
<svg version="1.1" id="Layer_2" xmlns="http://www.w3.org/2000/svg" xmlns:xlink="http://www.w3.org/1999/xlink" x="0px" y="0px"
	 viewBox="0 0 100.8 93.2" style="enable-background:new 0 0 100.8 93.2;" xml:space="preserve">
<style type="text/css">
	.st0{fill:url(#SVGID_1_);}
	.st1{fill:url(#SVGID_2_);}
	.st2{fill:url(#SVGID_3_);}
	.st3{fill:url(#SVGID_4_);}
	.st4{fill:url(#SVGID_5_);}
	.st5{fill:url(#SVGID_6_);}
	.st6{fill:url(#Shape_2_);}
	.st7{clip-path:url(#SVGID_8_);}
	.st8{fill:url(#SVGID_9_);}
	.st9{clip-path:url(#SVGID_11_);}
	.st10{fill:url(#SVGID_12_);}
	.st11{fill:url(#shadow_2_);}
	.st12{clip-path:url(#SVGID_14_);}
	.st13{fill:url(#SVGID_15_);}
	.st14{fill:url(#SVGID_16_);}
	.st15{fill:url(#SVGID_17_);}
	.st16{clip-path:url(#SVGID_19_);}
	.st17{fill:url(#SVGID_20_);}
</style>
<linearGradient id="SVGID_1_" gradientUnits="userSpaceOnUse" x1="-0.1246" y1="12.4971" x2="81.1854" y2="59.4371" gradientTransform="matrix(1 0 0 -1 0 96)">
	<stop  offset="0" style="stop-color:#270645"/>
	<stop  offset="1" style="stop-color:#4C1083"/>
</linearGradient>
<path class="st0" d="M13.6,81.9c0,1.2-1,2.3-2.3,2.3H6.8c-1.2,0-2.3-1-2.2-2.3V70.6H0v11.3c0,3.7,3,6.8,6.8,6.8h4.5
	c3.7,0,6.8-3,6.8-6.8V70.6h-4.5V81.9z"/>
<linearGradient id="SVGID_2_" gradientUnits="userSpaceOnUse" x1="16.8253" y1="-16.8678" x2="98.1353" y2="30.0722" gradientTransform="matrix(1 0 0 -1 0 96)">
	<stop  offset="0" style="stop-color:#270645"/>
	<stop  offset="1" style="stop-color:#4C1083"/>
</linearGradient>
<path class="st1" d="M64,77.4v4.5c0,3.7,3,6.8,6.8,6.8h9v-4.5h-9c-1.2,0-2.3-1-2.3-2.3v-4.5c0-1.2,1-2.3,2.3-2.3h9v-4.5h-9
	C67,70.6,64,73.7,64,77.4z"/>
<linearGradient id="SVGID_3_" gradientUnits="userSpaceOnUse" x1="5.7605" y1="2.2989" x2="87.0704" y2="49.2389" gradientTransform="matrix(1 0 0 -1 0 96)">
	<stop  offset="0" style="stop-color:#270645"/>
	<stop  offset="1" style="stop-color:#4C1083"/>
</linearGradient>
<path class="st2" d="M32.4,70.6h-4.5c-3.7,0-6.8,3-6.8,6.8v15.8h4.5v-4.5h6.8c3.7,0,6.8-3,6.8-6.8v-4.5
	C39.1,73.7,36.1,70.6,32.4,70.6z M34.6,81.9c0,1.2-1,2.3-2.3,2.3l0,0h-6.8v-6.8c0-1.2,1-2.3,2.3-2.3h0h4.5c1.2,0,2.3,1,2.3,2.3l0,0
	V81.9z"/>
<linearGradient id="SVGID_4_" gradientUnits="userSpaceOnUse" x1="9.2025" y1="-3.6635" x2="90.5125" y2="43.2765" gradientTransform="matrix(1 0 0 -1 0 96)">
	<stop  offset="0" style="stop-color:#270645"/>
	<stop  offset="1" style="stop-color:#4C1083"/>
</linearGradient>
<path class="st3" d="M46.7,66.1h-4.5v15.8c0,3.7,3,6.8,6.8,6.8h4.5v-4.5h-4.5c-1.2,0-2.3-1-2.3-2.3l0,0v-6.8h6.8v-4.5h-6.8V66.1z"/>
<linearGradient id="SVGID_5_" gradientUnits="userSpaceOnUse" x1="12.9095" y1="-10.0847" x2="94.2195" y2="36.8553" gradientTransform="matrix(1 0 0 -1 0 96)">
	<stop  offset="0" style="stop-color:#270645"/>
	<stop  offset="1" style="stop-color:#4C1083"/>
</linearGradient>
<rect x="56.4" y="70.6" class="st4" width="4.5" height="18.1"/>
<linearGradient id="SVGID_6_" gradientUnits="userSpaceOnUse" x1="21.1806" y1="-24.412" x2="102.4906" y2="22.528" gradientTransform="matrix(1 0 0 -1 0 96)">
	<stop  offset="0" style="stop-color:#270645"/>
	<stop  offset="1" style="stop-color:#4C1083"/>
</linearGradient>
<path class="st5" d="M100.8,70.6h-4.5v2.3c0,1.2-1,2.3-2.3,2.2h-6.8v-4.5h-4.5v18.1h4.5v-9H94c1.3,0,2.3,1.1,2.3,2.3v6.7h4.5V82
	c0-1.7-0.6-3.3-1.8-4.6c1.1-1.2,1.8-2.9,1.8-4.6V70.6z"/>
<g>
	
		<linearGradient id="Shape_2_" gradientUnits="userSpaceOnUse" x1="25.4122" y1="987.9083" x2="76.0397" y2="987.9083" gradientTransform="matrix(1 0 0 1 0 -960.1102)">
		<stop  offset="0" style="stop-color:#D300FD"/>
		<stop  offset="0.7462" style="stop-color:#7471FF"/>
		<stop  offset="1" style="stop-color:#00FDCF"/>
	</linearGradient>
	<path id="Shape_1_" class="st6" d="M60.9,1.4L45.9,10c-0.1,0.1-0.3,0.3-0.3,0.6v31.2c0,1.1-1,2-2.1,2c-0.4,0-0.7-0.1-1-0.3l-2-1.1
		c-3.1-1.8-5-5.2-5-8.8v-17c0-0.1-0.1-0.1-0.1-0.1h-0.1l-9.5,5.4c-0.1,0.1-0.3,0.3-0.3,0.6v11.3c0,7.3,3.9,14,10.1,17.6l5,2.9
		c4.9,2.8,11,1.1,13.8-3.8c0.8-1.5,1.4-3.4,1.4-5v-5.9l10.1-5.9C72.2,29.9,76,23.2,76,16.1v-5.9c0-5.6-4.6-10.1-10.2-10.1
		C64.1,0,62.4,0.6,60.9,1.4z M60.9,24.8l-5,2.9V16l7-3.9c1-0.6,2.2-0.3,2.8,0.7c0.1,0.3,0.3,0.7,0.3,1v2.4
		C65.9,19.7,64,22.9,60.9,24.8L60.9,24.8z"/>
	<g id="Effects_1_">
		<g id="_1_1_">
			<g>
				<g>
					<defs>
						<path id="SVGID_7_" d="M40.2,53.8l-4.6-2.7c-6.3-3.6-10.2-10.3-10.2-17.6V22c0-0.1,0-0.1,0.1-0.1l10.1-5.7v29.2
							C35.6,48.8,37.3,51.9,40.2,53.8z"/>
					</defs>
					<clipPath id="SVGID_8_">
						<use xlink:href="#SVGID_7_"  style="overflow:visible;"/>
					</clipPath>
					<g class="st7">
						
							<linearGradient id="SVGID_9_" gradientUnits="userSpaceOnUse" x1="37.7417" y1="1014.228" x2="37.7417" y2="976.1561" gradientTransform="matrix(1 0 0 1 0 -960.1102)">
							<stop  offset="0" style="stop-color:#FFFFFF;stop-opacity:0"/>
							<stop  offset="0.49" style="stop-color:#FFFFFF;stop-opacity:0.5"/>
							<stop  offset="1" style="stop-color:#FFFFFF;stop-opacity:0"/>
						</linearGradient>
						<path class="st8" d="M40.2,53.8c-1.7-1-2.9-2.4-3.8-3.9c-0.8-1.7-1.3-3.5-1.1-5.4c0-3.6-0.1-7.3,0-10.9v-0.4h0.4l-0.4,0.4
							c0-2.9,0-5.9,0.1-8.8s0.1-5.9,0.3-8.8c0.1,2.9,0.3,5.9,0.3,8.8s0,5.9,0.1,8.8V34h-0.6l0.4-0.4c0,3.6,0,7.3,0,10.9
							C35.6,48.1,37.1,51.7,40.2,53.8z"/>
					</g>
				</g>
			</g>
		</g>
		<g id="_2_1_">
			<g>
				<g>
					<defs>
						<path id="SVGID_10_" d="M60.5,1.6c-2.9,1.8-4.7,5-4.7,8.5v35.1c0,5.6-4.5,10.1-10.1,10.1h-0.1H45l0,0h-0.4h-0.4
							c-0.3,0-0.7-0.1-1-0.1l0,0l-0.7-0.1l-0.6-0.1c-0.4-0.1-0.8-0.4-1.3-0.6L40.2,54l0,0c-2.9-1.8-4.6-5-4.6-8.5V33.7
							c0,3.6,2,7,5,8.8l2,1.1c1,0.6,2.2,0.3,2.8-0.7c0.1-0.3,0.3-0.7,0.3-1V10.5c0-0.3,0.1-0.4,0.3-0.6L60.5,1.6z"/>
					</defs>
					<clipPath id="SVGID_11_">
						<use xlink:href="#SVGID_10_"  style="overflow:visible;"/>
					</clipPath>
					<g class="st9">
						<g id="border_1_">
							
								<linearGradient id="SVGID_12_" gradientUnits="userSpaceOnUse" x1="57.8878" y1="1005.3784" x2="57.8878" y2="961.4135" gradientTransform="matrix(1 0 0 1 0 -960.1102)">
								<stop  offset="0" style="stop-color:#FFFFFF;stop-opacity:0"/>
								<stop  offset="0.49" style="stop-color:#FFFFFF;stop-opacity:0.5"/>
								<stop  offset="1" style="stop-color:#FFFFFF;stop-opacity:0"/>
							</linearGradient>
							<path class="st10" d="M60.5,1.6c-1.5,1.1-2.8,2.5-3.5,4.2c-0.4,0.8-0.7,1.7-0.8,2.7c-0.1,1-0.1,1.8-0.1,2.8
								c0,3.8,0,7.5,0.1,11.3L56,33.8c0,3.8-0.1,7.5-0.3,11.3c-0.1-3.8-0.3-7.5-0.3-11.3l-0.1-11.3c0-3.8,0-7.5,0.1-11.3
								c0-1,0-2,0.1-2.8c0.1-1,0.4-1.8,1-2.8C57.5,3.9,58.8,2.5,60.5,1.6z"/>
						</g>
						
							<radialGradient id="shadow_2_" cx="35.244" cy="1006.7452" r="20.9597" gradientTransform="matrix(1 0 0 1 0 -960.1102)" gradientUnits="userSpaceOnUse">
							<stop  offset="0" style="stop-color:#00032D;stop-opacity:0.4"/>
							<stop  offset="0.48" style="stop-color:#00032D;stop-opacity:0.15"/>
							<stop  offset="1" style="stop-color:#00032D;stop-opacity:0"/>
						</radialGradient>
						<path id="shadow_1_" class="st11" d="M60.5,1.6c-2.9,1.8-4.7,5-4.7,8.5v35.1c0,5.6-4.5,10.1-10.1,10.1h-0.1H45l0,0h-0.4h-0.4
							c-0.3,0-0.7-0.1-1-0.1l0,0l-0.7-0.1l-0.6-0.1c-0.4-0.1-0.8-0.4-1.3-0.6L40.2,54l0,0c-2.9-1.8-4.6-5-4.6-8.5V33.7
							c0,3.6,2,7,5,8.8l2,1.1c1,0.6,2.2,0.3,2.8-0.7c0.1-0.3,0.3-0.7,0.3-1V10.5c0-0.3,0.1-0.4,0.3-0.6L60.5,1.6z"/>
					</g>
				</g>
			</g>
		</g>
		<g id="_3_1_">
			<g>
				<g>
					<defs>
						<path id="SVGID_13_" d="M76.1,10.2v5.9c0,7.3-3.9,14-10.1,17.5l-10.2,5.9V27.7l5-2.9c3.1-1.8,5-5.2,5-8.8v-2.2
							c0-1.1-1-2-2.1-2c-0.4,0-0.7,0.1-1,0.3l-7,3.9v-5.7c0-3.5,1.8-6.7,4.7-8.5L61,1.4l0.3-0.1L61.4,1c0.4-0.1,0.8-0.4,1.3-0.6l0,0
							l0.6-0.1l0,0c0.1,0,0.4-0.1,0.6-0.1C64,0.2,64.4,0,64.7,0h0.6l0,0h0.6l0,0C71.5,0,76,4.6,76.1,10.2z"/>
					</defs>
					<clipPath id="SVGID_14_">
						<use xlink:href="#SVGID_13_"  style="overflow:visible;"/>
					</clipPath>
					<g class="st12">
						<g id="shadow_top_bottom_1_">
							
								<radialGradient id="SVGID_15_" cx="57.4391" cy="966.1421" r="23.8353" gradientTransform="matrix(1 0 0 1 0 -960.1102)" gradientUnits="userSpaceOnUse">
								<stop  offset="0" style="stop-color:#00032D;stop-opacity:0.4"/>
								<stop  offset="0.48" style="stop-color:#00032D;stop-opacity:0.15"/>
								<stop  offset="1" style="stop-color:#00032D;stop-opacity:0"/>
							</radialGradient>
							<path class="st13" d="M76.1,10.2v5.9c0,7.3-3.9,14-10.1,17.5l-10.2,5.9V27.7l5-2.9c3.1-1.8,5-5.2,5-8.8v-2.2c0-1.1-1-2-2.1-2
								c-0.4,0-0.7,0.1-1,0.3l-7,3.9v-5.7c0-3.5,1.8-6.7,4.7-8.5L61,1.4l0.3-0.1L61.4,1c0.4-0.1,0.8-0.4,1.3-0.6l0,0l0.6-0.1l0,0
								c0.1,0,0.4-0.1,0.6-0.1C64,0.2,64.4,0,64.7,0h0.6l0,0h0.6l0,0C71.5,0,76,4.6,76.1,10.2z"/>
							
								<radialGradient id="SVGID_16_" cx="55.2013" cy="994.22" r="22.2964" gradientTransform="matrix(1 0 0 1 0 -960.1102)" gradientUnits="userSpaceOnUse">
								<stop  offset="0" style="stop-color:#00032D;stop-opacity:0.4"/>
								<stop  offset="0.48" style="stop-color:#00032D;stop-opacity:0.15"/>
								<stop  offset="1" style="stop-color:#00032D;stop-opacity:0"/>
							</radialGradient>
							<path class="st14" d="M76.1,10.2v5.9c0,7.3-3.9,14-10.1,17.5l-10.2,5.9V27.7l5-2.9c3.1-1.8,5-5.2,5-8.8v-2.2c0-1.1-1-2-2.1-2
								c-0.4,0-0.7,0.1-1,0.3l-7,3.9v-5.7c0-3.5,1.8-6.7,4.7-8.5L61,1.4l0.3-0.1L61.4,1c0.4-0.1,0.8-0.4,1.3-0.6l0,0l0.6-0.1l0,0
								c0.1,0,0.4-0.1,0.6-0.1C64,0.2,64.4,0,64.7,0h0.6l0,0h0.6l0,0C71.5,0,76,4.6,76.1,10.2z"/>
						</g>
						<g id="shadow_right_1_">
							
								<linearGradient id="SVGID_17_" gradientUnits="userSpaceOnUse" x1="72.2839" y1="979.4659" x2="63.5356" y2="970.6466" gradientTransform="matrix(1 0 0 1 0 -960.1102)">
								<stop  offset="0" style="stop-color:#00032D;stop-opacity:0.4"/>
								<stop  offset="0.48" style="stop-color:#00032D;stop-opacity:0.15"/>
								<stop  offset="1" style="stop-color:#00032D;stop-opacity:0"/>
							</linearGradient>
							<path class="st15" d="M76,10.2c0,3.5-1.8,6.8-4.9,8.7l-0.4,0.3l-9.9,5.7c3.1-1.8,5-5.2,5-8.8v-2.4c0-1.1-1-2-2.1-2
								c-0.4,0-0.7,0.1-1,0.3L55.9,16v-5.7c0-3.5,1.8-6.7,4.7-8.5L61,1.4l0.3-0.1L61.4,1c0.4-0.1,0.8-0.4,1.3-0.6l0,0l0.6-0.1l0,0
								c0.1,0,0.4-0.1,0.6-0.1C64,0.2,64.4,0,64.7,0h0.6l0,0h0.6l0,0c0.7,0,1.3,0,2,0.1h0.1c0.3,0,0.7,0.1,1,0.3
								c0.1,0,0.3,0.1,0.4,0.1s0.3,0.1,0.4,0.1l0.6,0.4l0.4,0.3l0.6,0.1l0.4,0.3l0.4,0.3c2.2,1.7,3.8,4.2,4.1,7l0,0
								C76,9.5,76,9.8,76,10.2z"/>
						</g>
						<g id="_3.1_1_">
							<g>
								<g>
									<defs>
										<path id="SVGID_18_" d="M76.1,10.2v5.9c0,7.3-3.9,14-10.1,17.5l-10.2,5.9V27.7l5-2.9H61l9.8-5.7l0.4-0.3
											C74.2,16.9,76.1,13.7,76.1,10.2z"/>
									</defs>
									<clipPath id="SVGID_19_">
										<use xlink:href="#SVGID_18_"  style="overflow:visible;"/>
									</clipPath>
									<g class="st16">
										<g id="border-2_1_">
											
												<linearGradient id="SVGID_20_" gradientUnits="userSpaceOnUse" x1="65.8587" y1="988.1752" x2="65.8587" y2="970.2936" gradientTransform="matrix(1 0 0 1 0 -960.1102)">
												<stop  offset="0" style="stop-color:#FFFFFF;stop-opacity:0"/>
												<stop  offset="0.49" style="stop-color:#FFFFFF;stop-opacity:0.5"/>
												<stop  offset="1" style="stop-color:#FFFFFF;stop-opacity:0"/>
											</linearGradient>
											<path class="st17" d="M76,10.2c0.1,2.4-0.6,4.7-2.1,6.7c-0.7,1-1.7,1.8-2.7,2.4l-3.1,1.8c-2,1.1-4.1,2.4-6.1,3.5
												c-2.1,1.1-4.2,2.2-6.3,3.2c2-1.3,3.9-2.5,6-3.8c2.1-1.3,4.1-2.4,6-3.6l3.1-1.7C73.9,16.9,75.8,13.7,76,10.2z"/>
										</g>
									</g>
								</g>
							</g>
						</g>
					</g>
				</g>
			</g>
		</g>
	</g>
</g>
</svg>
