<?xml version="1.0" encoding="utf-8"?>
<!-- Generator: Adobe Illustrator 25.0.1, SVG Export Plug-In . SVG Version: 6.00 Build 0)  -->
<svg version="1.1" id="图层_3" xmlns="http://www.w3.org/2000/svg" xmlns:xlink="http://www.w3.org/1999/xlink" x="0px" y="0px"
	 viewBox="0 0 316.8 71.8" style="enable-background:new 0 0 316.8 71.8;" xml:space="preserve">
<style type="text/css">
	.st0{fill:#D5B17B;}
</style>
<g>
	<path class="st0" d="M13.7,45.6c0,8.4,3.7,13.1,14.2,13.1c4.6,0,8.4-0.6,11.2-1.8c1.8-0.8,3.5,0.1,3.5,2.9v1.3c0,2.7-1,3.6-3.6,4.5
		c-3,1.1-6.8,1.7-11.3,1.7c-15.7,0-23.4-6.7-23.4-21.8V31.7C4.3,16.6,12.2,9,27.7,9c4.4,0,8,0.6,11,1.8c3.1,1.3,3.7,1.7,3.7,4.5v1.3
		c0,3.1-0.7,3.9-3.6,2.9c-3.3-1.3-7-2-11.2-2c-9.7,0-13.8,4.4-13.8,14.1V45.6z"/>
	<path class="st0" d="M86.8,53.4c0,9.7-5.7,13.9-18.5,13.9c-11.7,0-17.7-4.4-17.7-13.4c0-9.3,6.3-13.1,17.8-13.1h9.6v-4.3
		c0-5.1-3.4-6.6-10.3-6.6c-3.5,0-6.5,0.3-9.1,0.8c-2.5,0.4-3.2-0.1-3.2-2.8v-1.2c0-2.5,0.7-3.3,3.1-3.7c2.7-0.4,5.6-0.7,8.7-0.7
		c12.6,0,19.7,3.9,19.7,14.3V53.4z M77.9,47.6h-9.6c-6,0-8.8,1.7-8.8,6.2c0,4.6,3.3,6,8.5,6c6.5,0,9.8-1.3,9.8-6.8V47.6z"/>
	<path class="st0" d="M106.4,62.5c0,3.1-0.8,3.9-3.9,3.9h-1.1c-3.1,0-3.9-0.8-3.9-3.9V37.7c0-10.3,5.5-15.4,16.5-15.4
		c0.7,0,1.3,0,1.7,0.1c2.9,0.3,3.7,1,3.7,4.1v1.2c0,2.9-0.6,3.5-3.7,3c-0.4-0.1-1-0.1-1.7-0.1c-5.8,0-7.5,2.4-7.5,7.7V62.5z"/>
	<path class="st0" d="M166.7,48.7c0,12.4-7.3,18.6-19.8,18.6c-13.3,0-19.9-6.2-19.9-18.6v-7.5c0-12.6,6.1-19,18.2-19
		c6.1,0,10.4,1.9,12.7,5.7V9.4c0-3.1,0.8-3.9,3.9-3.9h1c3.1,0,3.9,0.8,3.9,3.9V48.7z M135.9,48.6c0,7.3,2.3,10.4,10.9,10.4
		s11.1-3.1,11.1-10.4v-7.5c0-7.3-2.6-10.4-11.1-10.4s-10.9,3.1-10.9,10.4V48.6z"/>
	<path class="st0" d="M179.6,6.1c2.2-2.2,5.7-2.2,7.7,0c2.2,2.1,2.2,5.6,0,7.7c-2.1,2.1-5.6,2.1-7.7,0
		C177.4,11.7,177.4,8.2,179.6,6.1z M179,27.2c0-3.1,0.8-3.9,3.9-3.9h1.1c3.1,0,3.9,0.8,3.9,3.9v35.3c0,3.1-0.8,3.9-3.9,3.9h-1.1
		c-3.1,0-3.9-0.8-3.9-3.9V27.2z"/>
	<path class="st0" d="M200.8,9.4c0-3.1,0.8-3.9,3.9-3.9h1c3.1,0,3.9,0.8,3.9,3.9v18.5c2.3-3.7,6.6-5.7,12.8-5.7
		c12.1,0,18.1,6.4,18.1,19v7.5c0,12.6-6.6,18.6-19.9,18.6c-12.4,0-19.8-6.2-19.8-18.6V9.4z M231.6,41.1c0-7.3-2.4-10.4-10.9-10.4
		s-11.1,3.1-11.1,10.4v7.5c0,7.2,2.4,10.4,11.1,10.4s10.9-3,10.9-10.4V41.1z"/>
	<path class="st0" d="M251.3,9.4c0-3.1,0.8-3.9,3.9-3.9h1.1c3.1,0,3.9,0.8,3.9,3.9v43.1c0,4.6,1.3,6.2,4.1,6.2
		c2.9,0,3.3,0.4,3.3,3.5V63c0,2.9-0.7,3.4-3.6,4c-0.3,0.1-0.8,0.1-1.2,0.1c-7,0-11.6-4.1-11.6-12.9V9.4z"/>
	<path class="st0" d="M312.3,44.1c-0.3,3.2-1.2,4-4.4,4h-24.2V50c0,6.4,3.7,8.9,12.4,8.9c3.6,0,7.3-0.4,11.3-1.4
		c2.8-0.7,3.6,0,3.6,3v1.1c0,2.9-0.5,3.5-3.6,4.3c-3.5,1-7.2,1.4-11.3,1.4c-14.6,0-21.4-5.5-21.4-18.6v-7.6
		c0-12.6,6.4-18.9,19.3-18.9c12.1,0,18.5,6.2,18.5,18C312.4,41.6,312.3,42.8,312.3,44.1z M283.6,40.8H304v-2.2
		c0-5.7-3.4-8.6-10.3-8.6c-6.7,0-10.1,2.9-10.1,8.6V40.8z"/>
</g>
</svg>
